<?xml version="1.0" encoding="UTF-8" standalone="no"?>
<svg xmlns:rdf="http://www.w3.org/1999/02/22-rdf-syntax-ns#" xmlns="http://www.w3.org/2000/svg" height="580" width="580" version="1.0" xmlns:cc="http://creativecommons.org/ns#" xmlns:dc="http://purl.org/dc/elements/1.1/">
 <title>nightclub</title>
 <metadata>
  <rdf:RDF>
   <cc:Work rdf:about="">
    <dc:format>image/svg+xml</dc:format>
    <dc:type rdf:resource="http://purl.org/dc/dcmitype/StillImage"/>
    <dc:title>nightclub</dc:title>
   </cc:Work>
  </rdf:RDF>
 </metadata>
 <path opacity=".8" d="m141.27 118.36c-0.19245 75.883 0.38611 151.77-0.31055 227.65-40.629 5.2942-78.476 39.201-81.727 81.256-0.33583 33.073 27.928 61.333 59.582 66.704 46.377 11.59 100.35-15.849 114.66-62.21 10.2-36.423 1.7484-74.386 4.6719-111.54v-82.621c44.929-8.8306 89.858-17.658 134.79-26.486-0.21998 30.436 0.42367 60.878-0.35547 91.309-39.341 5.6484-76.283 36.781-81.547 77.306-2.1887 33.618 25.551 63.77 57.854 69.526 44.81 12.032 97.744-12.482 114.44-56.332 12.753-36.313 3.5333-75.786 6.4844-113.73v-226.55c-109.51 21.896-219.02 43.802-328.53 65.71z" fill="#fff"/>
 <path d="m441.81 86.792-272.54 54.508v233.36c-10.504-1.8887-21.465-2.0577-32.364 0.85034-31.473 8.3995-54.871 37.811-48.545 61.322 6.3229 23.511 40.919 37.357 72.393 28.958 31.473-8.3997 49.398-36.418 49.398-61.322v-189.93l190.78-37.474v153.3c-10.501-1.668-21.465-1.2046-32.364 1.7034-31.468 8.3984-54.863 36.961-48.545 60.47 6.3284 23.506 40.925 37.356 72.393 28.958 31.47-8.3986 49.398-34.919 49.398-62.174z" fill="#672400"/>
</svg>
