<?xml version="1.0" encoding="UTF-8" standalone="no"?>
<svg xmlns:rdf="http://www.w3.org/1999/02/22-rdf-syntax-ns#" xmlns="http://www.w3.org/2000/svg" height="580" width="580" version="1.0" xmlns:cc="http://creativecommons.org/ns#" xmlns:dc="http://purl.org/dc/elements/1.1/">
 <title>bank</title>
 <metadata>
  <rdf:RDF>
   <cc:Work rdf:about="">
    <dc:format>image/svg+xml</dc:format>
    <dc:type rdf:resource="http://purl.org/dc/dcmitype/StillImage"/>
    <dc:title>bank</dc:title>
   </cc:Work>
  </rdf:RDF>
 </metadata>
 <path opacity=".8" fill-rule="evenodd" d="m43.5 217.5c-29 29-14.5 101.5 43.5 87v188.5c0 29 0 58 29 58h348c29 0 29-29 29-58v-188.5c58 14.5 72.5-58 43.5-87l-246.5-188.5z" fill="#fff"/>
 <path stroke-linejoin="round" d="m130.5 217.5v290h319v-290l-159.5-130.5z" fill-rule="evenodd" stroke="#00f" stroke-linecap="round" stroke-width="29" fill="#00f"/>
 <path stroke-linejoin="round" d="m72.5 261 217.5-174 217.5 174" stroke="#00f" stroke-linecap="round" stroke-width="29" fill="none"/>
 <path fill="#fff" d="m372.85 213.72-10.225 48.006c-9.8207-9.8207-24.147-14.731-42.98-14.731s-34.084 6.759-45.753 20.277c-6.5856 7.6253-11.265 17.157-14.038 28.595h95.318l-5.5458 26.862h-93.238c-0.27402 7.8496-0.20643 15.532 0.1733 22.876h88.213l-5.5458 26.862h-79.027c2.8884 12.363 7.3367 22.068 13.345 29.115 11.554 13.633 26.574 20.45 45.059 20.45 22.183 0 39.861-6.8167 53.032-20.45v53.032c-15.02 7.51-32.524 11.265-52.512 11.265-33.737 0-61.466-11.554-83.187-34.661-14.789-15.713-24.552-35.297-29.289-58.751h-25.649l5.5458-26.862h16.984c-0.25828-7.6968-0.23856-15.485 0.17331-22.877h-22.703l5.5458-26.862h20.623c4.8525-22.992 14.5-42.229 28.942-57.711 21.837-23.339 50.548-35.008 86.133-35.008 19.41 0 36.278 3.524 50.605 10.572z"/>
</svg>
