<?xml version="1.0" encoding="UTF-8" standalone="no"?>
<svg xmlns:rdf="http://www.w3.org/1999/02/22-rdf-syntax-ns#" xmlns="http://www.w3.org/2000/svg" height="580" width="580" version="1.0" xmlns:cc="http://creativecommons.org/ns#" xmlns:dc="http://purl.org/dc/elements/1.1/">
 <title>ferry_terminal</title>
 <metadata>
  <rdf:RDF>
   <cc:Work rdf:about="">
    <dc:format>image/svg+xml</dc:format>
    <dc:type rdf:resource="http://purl.org/dc/dcmitype/StillImage"/>
    <dc:title>ferry_terminal</dc:title>
   </cc:Work>
  </rdf:RDF>
 </metadata>
 <g fill-rule="evenodd">
  <path opacity=".8" d="m379.09 21.646-177.48 1.467c-45.25-1.191-66.88 29.552-76.33 59.223l-25.02 61.854c-27.689 13.14-42.26 29.81-42.26 58.81v129.5h-58v32.361l40.042 128.14c5.9468 14.162 17.958 29 32.769 29 17.597 0 35.81-16.078 43.103-22.115 10.917 12.59 26.212 23.553 43.662 22.254 16.975-0.5205 32.551-10.345 43.045-23.277 11.645 15.699 31.301 27.247 51.314 23.342 14.517-2.3609 27.601-11.11 36.254-22.875 12.446 16.931 34.817 28.055 55.797 21.934 12.63-3.3222 23.304-11.885 31.18-22.088 11.71 15.974 31.955 27.027 52.039 22.824 14.083-2.276 26.124-11.394 34.689-22.465 12.37 14.238 31.189 26.834 50.885 22.223 18.038-4.3606 28.354-22.458 32.563-39.287l31.15-109.36 1.51-40.61h-58l-0.20872-129.07c-2.2023-26.971-21.614-49.061-43.084-59.089l-33.44-82.854c-13.65-25.985-39.67-39.83-66.18-39.84zm-165.45 89.354h156.29l8.9121 26.994-177.06 0.002zm162.22 238.11c0.51736 9.1429 2.0824 18.292 5.3438 26.875l-182.25-0.10157c3.2243-8.5886 4.7442-17.737 5.2285-26.873z" fill="#fff"/>
  <path d="m72.5 406h435l14.5-43.5h29l-29 101.5c-1.796 7.6282-6.8752 29-14.5 29-16.297 0-27.232-29-43.5-29s-26.171 29.066-43.5 29c-17.329-0.0658-25.366-28.869-42.793-29-17.427-0.1308-26.78 29.131-44.207 29-17.427-0.1308-25.366-28.869-42.793-29-17.427-0.1308-26.682 29.065-44.207 29s-25.991-28.804-43.5-29c-17.509-0.19554-27.264 28.483-44.561 28.291-17.3-0.19-26-28.29-42.44-28.29-16.444 0-27.026 29-43.5 29-6.394 0-14.5-29-14.5-29l-29-101.5h29z" fill="#00f"/>
  <path d="m430.4 199.5c15.651-0.00003 28.309 12.761 28.309 28.54s-12.658 28.595-28.309 28.595c-15.651 0.00002-28.364-12.816-28.364-28.595s12.712-28.54 28.364-28.54zm-278.39 0c15.651 0.00003 28.364 12.761 28.364 28.54s-12.712 28.595-28.364 28.595c-15.651 0-28.364-12.816-28.364-28.595s12.712-28.54 28.364-28.54zm58.99-118.5h159c14.45-0.33989 20.209 2.1854 26.354 15.959l25.65 71.04h-263l25.47-69.55c7.86-13.06 14.12-17.95 26.53-17.45zm-8-29c-18.201-0.64917-33.885 5.2882-43.557 26.612l-35.44 89.388c-25.444 7.0723-35.999 24.472-36.586 39.76l-0.414 111.24h29v29c0 47.595 58 48.64 58 0v-29h232v29c0 48.031 58 48.337 58 0v-29h29l0.41378-111.24c-0.58-15.29-11.97-32.69-37.41-39.76l-34.62-89.39c-9.67-21.32-25.35-27.26-43.55-26.61z" fill="#00f"/>
 </g>
</svg>
