<?xml version="1.0" encoding="UTF-8" standalone="no"?>
<svg xmlns:rdf="http://www.w3.org/1999/02/22-rdf-syntax-ns#" xmlns="http://www.w3.org/2000/svg" height="580" width="580" version="1.0" xmlns:cc="http://creativecommons.org/ns#" xmlns:dc="http://purl.org/dc/elements/1.1/">
 <title>theatre</title>
 <metadata>
  <rdf:RDF>
   <cc:Work rdf:about="">
    <dc:format>image/svg+xml</dc:format>
    <dc:type rdf:resource="http://purl.org/dc/dcmitype/StillImage"/>
    <dc:title>theatre</dc:title>
   </cc:Work>
  </rdf:RDF>
 </metadata>
 <path opacity=".8" fill-rule="evenodd" d="m58 87h290v87h174v203c0 87-58 145-145 145-58 0-116-29-134.39-93-97.61 35-184.61-52-184.61-139z" fill="#fff"/>
 <g fill="#c00">
  <path d="m87 116v173c0.001 59 43.5 116 116 116 14.143 0 26.251-2.4098 37.156-5.4374-1.6936-14.015-0.90478-23.562-0.90478-23.562v-6.3437c-9.9472 3.884-22.04 6.3437-36.25 6.3437-49.451 0-87-42.501-87-87v-143.5h174l-0.01 28.5h29l-0.002-58h-232z"/>
  <path d="m159.5 173c-16.016 0-29 12.984-29 29s12.983 29 29 29c16.016 0 29-12.984 29-29s-12.984-29-29-29z"/>
  <path d="m203 274.5c-42.405 0-58 29.491-58 58h94.249v-48.031c-8.8246-6.4252-20.419-9.9687-36.25-9.9687z"/>
  <path d="m319 376h116c0 29-29 58-58 58s-58-29-58-58zm101.5-116c16.016 0 29 12.983 29 29 0 16.016-12.984 29-29 29s-29-12.984-29-29 12.984-29 29-29zm-87 0c16.016 0 29 12.983 29 29 0 16.016-12.984 29-29 29s-29-12.984-29-29 12.983-29 29-29zm-72.499-57v173c-0.002 58.999 43.498 116 116 116 72.498 0 116-57.001 116-116v-173z"/>
 </g>
</svg>
