<?xml version="1.0" encoding="UTF-8" standalone="no"?>
<svg xmlns:rdf="http://www.w3.org/1999/02/22-rdf-syntax-ns#" xmlns="http://www.w3.org/2000/svg" height="580" width="580" version="1.0" xmlns:cc="http://creativecommons.org/ns#" xmlns:dc="http://purl.org/dc/elements/1.1/">
 <title>university</title>
 <metadata>
  <rdf:RDF>
   <cc:Work rdf:about="">
    <dc:format>image/svg+xml</dc:format>
    <dc:type rdf:resource="http://purl.org/dc/dcmitype/StillImage"/>
    <dc:title>university</dc:title>
   </cc:Work>
  </rdf:RDF>
 </metadata>
 <path d="m253.21 110.66-224.21 115.84c-29 11.982-41.983 41.638-11.992 62.169 4.5193 2.7877 33.203 0.51132 48.346 1.1292-9.5362 27.27-10.093 63.028-17.092 90.457-22.132 16.103-29.648 45.239-28.741 71.367-2.4742 19.072-5.3372 40.971 6.8739 57.48 19.324 16.193 43.374 19.754 67.998 20.289 19.02-3.0564 29.964-19.397 32.075-37.668 7.7209-22.696 21.418-45.538 16.823-70.414-1.2041-7.9487-4.2569-15.53-8.2715-22.461 17.843-4.3297 34.439-16.655 52.662-19.736 44.718-13.015 93.098-8.1136 136.02 9.2177 16.999 5.3465 35.88 11.857 53.493 5.7514 26.304-15.623 40.385-46.017 68.46-59.26 23.486-12.874 50.479-14.232 76.119-19.785 15.378-4.5598 30.071-18.341 28.582-35.523-0.51461-18.307-14.532-31.919-26.441-44.165l-21.67-25.29 60.75-36.07c25.007-13.048 23.326-59.356-4.2606-58.934l-277.14-10.34c-9.1464-0.79818-20.588 0.98495-28.375 5.9255z" fill-rule="evenodd" fill="#202020"/>
 <g fill="#fff" fill-rule="evenodd">
  <path stroke-linejoin="round" d="m272.96 136.63-237.96 120.37 299.11 2 210.89-114z" stroke="#fff" stroke-linecap="round" stroke-width="10"/>
  <path stroke-linejoin="round" d="m127.34 364.52 26.833-79.282 186.99 5.3324 124.5-67.779 49.809 57.836c-5.7471 0.14446-62.929 6.8179-90.285 23.954-27.338 17.125-62.945 58.006-62.945 58.006s-77.384-26.806-113.17-27.408c-68.319-1.1491-117.5 28.422-121.74 29.339z" stroke="#fff" stroke-linecap="round" stroke-width="10"/>
  <path d="m134.32 279.23-30.031 0.4375c-4.1904 6.9846-7.2088 15.755-10.438 26.188-4.6526 15.034-8.5898 33.048-10.906 51-8.7287 67.648-8.75 98.938-8.75 98.938h20s-0.0372-29.485 8.5938-96.375c2.1652-16.78 5.9053-33.92 10.156-47.656 4.2509-13.736 10.178-24.522 11.688-26 3.5373-3.4632 6.616-5.2016 8.625-6.0938 0.44788-0.19889 0.78068-0.32356 1.0625-0.4375z" stroke-width="20"/>
  <path d="m87 401.31c-10.758-0.53365-29.875-0.43504-35.631 29.265l-4.5976 53.579c1.4653 7.3249 6.7051 6.2228 9.814 2.3872-1.2107 7.2318 7.9701 10.881 8.753 2.122-2.6749 9.4381 8.3004 10.528 9.372 2.4756-1.5642 8.2294 7.8264 10.666 9.9024 1.8567-2.3544 8.1946 7.8054 10.162 9.6372 1.2378l7.6921-25.11c6.07-10.42 9.72-22.05 12.47-34.13 0.54-13.32-6.4-30.31-27.41-33.69z"/>
 </g>
</svg>
