<?xml version="1.0" encoding="UTF-8" standalone="no"?>
<svg xmlns:rdf="http://www.w3.org/1999/02/22-rdf-syntax-ns#" xmlns="http://www.w3.org/2000/svg" height="580" width="580" version="1.0" xmlns:cc="http://creativecommons.org/ns#" xmlns:dc="http://purl.org/dc/elements/1.1/">
 <title>courthouse</title>
 <metadata>
  <rdf:RDF>
   <cc:Work rdf:about="">
    <dc:format>image/svg+xml</dc:format>
    <dc:type rdf:resource="http://purl.org/dc/dcmitype/StillImage"/>
    <dc:title>courthouse</dc:title>
   </cc:Work>
  </rdf:RDF>
 </metadata>
 <g fill-rule="evenodd">
  <path opacity=".8" d="m290 25.225c-36.73-0.429-35.25 32.775-36.3 61.111-38.11 7.738-68.49 34.184-104.41 47.384-24.44 6.44-51.563-0.9-70.601-17.37-11.844-8.1-30.245-11.32-41.001 0.28-14.16 14.13-9.939 38.8 4.236 51.88 13.682 12.68 25.53 22.59 40.531 30.07l-67.844 159.54c-13.772 14.82-9.6202 39.34 0.428 55.31 22.426 33.17 60.93 53.08 100.74 54.47l0.22 83.1h348l0.14-82.96c39.73-1.11 79.8-19.83 101.13-54.12 16.68-24.52 11.3-42.64 0.02-54.43l-65.89-161.13c24.07-11.94 46.43-31.61 54.11-58.17 2.58-23.44-28.93-40.825-47.56-26.66-25.5 25.42-68.87 29.92-98.58 9.3-26.25-14.15-51.85-31.755-81.86-36.689-2.18-28.645 1.22-60.488-35.51-60.916zm-40.38 146.02l-17.62 292.75h-74.86c35.08-9.42 67.54-35.62 78.22-71.27 3.14-12.9 0.3-28.18-10.23-37l-60.56-148.47c30.27-7.01 56.67-24.12 85.05-36.01zm81.12 0.18c31.79 11.32 58.97 29.1 86.61 35.85l-63.15 150.24c-14.7 15.96-9.91 41.03 2.14 57.07 14.74 23.62 40.16 41.63 66.63 49.41h-74.97l-17.26-292.57zm-210.45 89.57l34.26 87h-67.55l33.29-87zm340.45 0l32.26 87h-67.55l35.29-87z" fill="#fff"/>
  <path stroke-linejoin="round" d="m286 58-25 435h-116v29h290v-29h-116l-25-435c-0.32299-3.8221-7.8411-3.5001-8 0z" stroke="#202020" stroke-linecap="round" stroke-width="6" fill="#202020"/>
  <path stroke-linejoin="round" d="m290.09 112.71c-31.25 0-59.778 10.45-84.121 26.766-26.312 17.135-51.858 26.621-76.471 26.766-21.257 1.671-57.025-14.303-71.367-28.289 13.891 19.051 32.058 38.818 71.367 42.945 37.997-0.61337 56.521-12.626 76.471-22.305 26.03-13.59 50.6-26.19 84.03-26.19s59.659 14.532 85.85 26.197c19.881 10.005 38.476 21.691 76.473 22.305 39.309-4.1278 57.475-23.894 71.365-42.945-14.342 13.986-50.108 29.96-71.365 28.289-24.613-0.14502-50.161-9.6306-76.473-26.766-24.343-16.316-54.512-26.766-85.762-26.766z" stroke="#202020" stroke-linecap="round" stroke-width="6" fill="#202020"/>
 </g>
 <g stroke-linejoin="round" stroke="#202020" stroke-linecap="round" stroke-width="11">
  <path d="m37.728 384.58 84.12-202.41 82.845 202.41h-166.96z" fill="none"/>
  <path d="m35.139 379.03c4.9699 32.981 41.617 58.629 86.071 58.629s81.101-25.648 86.071-58.629h-172.14z" fill="#202020"/>
  <path d="m544.09 384.58-84.12-202.41-82.845 202.41h166.96z" fill="none"/>
  <path d="m546.68 379.03c-4.9699 32.981-41.617 58.629-86.071 58.629s-81.101-25.648-86.071-58.629h172.14z" fill="#202020"/>
 </g>
</svg>
