<?xml version="1.0" encoding="UTF-8" standalone="no"?>
<svg xmlns:rdf="http://www.w3.org/1999/02/22-rdf-syntax-ns#" xmlns="http://www.w3.org/2000/svg" height="580" width="580" version="1.0" xmlns:cc="http://creativecommons.org/ns#" xmlns:dc="http://purl.org/dc/elements/1.1/">
 <title>car_rental</title>
 <metadata>
  <rdf:RDF>
   <cc:Work rdf:about="">
    <dc:format>image/svg+xml</dc:format>
    <dc:type rdf:resource="http://purl.org/dc/dcmitype/StillImage"/>
    <dc:title>car_rental</dc:title>
   </cc:Work>
  </rdf:RDF>
 </metadata>
 <g fill-rule="evenodd">
  <path opacity=".8" d="m174 29c-43.004 0-87 29-87 87 0 48.497 47.753 87 87 87h-29l-45.24 115.47c-27.785 13.393-45.895 44.624-42.709 75.465l0.949 99.06c0 16.74 10.846 29 29 29 0 20.895 8.8658 45.622 29 58h58c20.768-12.297 28.994-36.998 28.994-58h174c0 20.744 8.8149 45.533 29.006 58h58c20.071-12.38 28.992-37.111 28.992-57.998 17.363 0 29-9.9883 29-29l0.7793-103.93c-0.03-32.5-17.08-58.109-44.07-70.719l-43.79-85.59c-13.88-26.15-29.67-34.6-58.3-33.76h-183.11c14.96-5.62 28.7-7.59 44.5-25h52l14.5-29 14.5 29h58.612l13.888-29 15.121 29h57.379l43.5-43.5v-29l-43.5-43.5h-232c-7.09-10.144-29-29-58-29zm39.504 255.5h156.6l8.7012 27.5h-177z" fill="#fff"/>
  <path d="m430.4 373.5c15.651-0.00003 28.309 12.761 28.309 28.54s-12.658 28.595-28.309 28.595c-15.651 0.00002-28.364-12.816-28.364-28.595s12.712-28.54 28.364-28.54zm-278.39 0c15.651 0.00003 28.364 12.761 28.364 28.54s-12.712 28.595-28.364 28.595c-15.651 0-28.364-12.816-28.364-28.595s12.712-28.54 28.364-28.54zm58.99-118.5h159c14.45-0.33989 20.209 2.1854 26.354 15.959l25.65 71.04h-263l25.47-69.55c7.86-13.06 14.12-17.95 26.53-17.45zm-8-29c-18.201-0.64917-33.885 5.2882-43.557 26.612l-35.44 89.39c-25.444 7.0723-35.999 24.472-36.586 39.76l-0.414 111.24h29v29c0 47.595 58 48.64 58 0v-29h232v29c0 48.031 58 48.337 58 0v-29h29l0.41378-111.24c-0.58-15.29-11.97-32.69-37.41-39.76l-34.62-89.39c-9.67-21.32-25.35-27.26-43.55-26.61z" fill="#00f"/>
  <path d="m174 174c-32.033 0-58-25.967-58-58s25.967-58 58-58c20.699 0.022 39.818 11.074 50.168 29h225.33l29 29-29 29h-29l-14.5-29h-29l-14.5 29h-29l-14.5-29h-29l-14.5 29h-51.354c-10.35 17.92-29.46 28.97-50.15 29zm-29-43.5c8.0081 0 14.5-6.4919 14.5-14.5s-6.4919-14.5-14.5-14.5-14.5 6.4919-14.5 14.5 6.4919 14.5 14.5 14.5z" fill="#00f"/>
 </g>
</svg>
