<?xml version="1.0" encoding="UTF-8" standalone="no"?>
<svg xmlns:rdf="http://www.w3.org/1999/02/22-rdf-syntax-ns#" xmlns="http://www.w3.org/2000/svg" height="580" width="580" version="1.0" xmlns:cc="http://creativecommons.org/ns#" xmlns:dc="http://purl.org/dc/elements/1.1/">
 <title>pub</title>
 <metadata>
  <rdf:RDF>
   <cc:Work rdf:about="">
    <dc:format>image/svg+xml</dc:format>
    <dc:type rdf:resource="http://purl.org/dc/dcmitype/StillImage"/>
    <dc:title>pub</dc:title>
   </cc:Work>
  </rdf:RDF>
 </metadata>
 <path opacity=".8" d="m283.27 46.551c-62.33 1.786-125.71-2.306-186.91 12.176-16.462 7.614-22.252 29.095-16.208 45.333 19.123 142.45 36.46 285.17 56.766 427.43 7.3102 16.285 26.823 22.165 43.404 21.697 79.539 5.5335 159.77 6.467 239.03-2.998 14.969-4.0839 26.198-18.996 25.402-34.574 18.108-145.35 38.147-290.49 56.666-435.78 0.8809-7.0288-6.3336-11.453-11.068-15.554-19.82-14.063-45.32-12.144-68.32-14.373-46.18-3.015-92.49-3.437-138.76-3.362z" fill="#fff"/>
 <path d="m131.31 129.26 310.09 2.5108-50.216 371.6-212.16 2.5108-47.706-376.62z" fill-rule="evenodd" fill="#f1ede7"/>
 <path d="m470.23 87.93h-0.251c0.287-0.248 0.445-0.498 0.445-0.75 0-5.937-81.067-10.75-181.07-10.75s-181.07 4.813-181.07 10.75c0 0.252 0.158 0.502 0.446 0.75h-0.446l56.512 430.93h0.255c-0.5 0.27-0.765 0.544-0.765 0.821 0 4.102 55.996 7.425 125.07 7.425 69.075 0 125.07-3.323 125.07-7.425 0-0.277-0.266-0.552-0.765-0.821l56.57-430.93zm-92.853 399.42c-2.895 2.679-174.6 1.4236-177.5-1.2554l-53.68-340.25c95.077 65.905 157.61-8.951 282.16-2.5108l-50.982 344.02z" fill="#672400"/>
</svg>
