<?xml version="1.0" encoding="UTF-8" standalone="no"?>
<svg xmlns:rdf="http://www.w3.org/1999/02/22-rdf-syntax-ns#" xmlns="http://www.w3.org/2000/svg" height="580" width="580" version="1.0" xmlns:cc="http://creativecommons.org/ns#" xmlns:dc="http://purl.org/dc/elements/1.1/">
 <title>cinema</title>
 <metadata>
  <rdf:RDF>
   <cc:Work rdf:about="">
    <dc:format>image/svg+xml</dc:format>
    <dc:type rdf:resource="http://purl.org/dc/dcmitype/StillImage"/>
    <dc:title>cinema</dc:title>
   </cc:Work>
  </rdf:RDF>
 </metadata>
 <path opacity=".8" d="m58 538.98c24.118-7.4924 44.803-23.179 72.354-22.477 27.551 0.7016 54.771 28.607 85.585 26.499 30.815-2.1076 57.009-36.008 87.707-38.352 30.698-2.3442 54.527 28.106 85.378 25.135 30.851-2.9708 64.575-35.441 87.5-41.782 22.92-6.34 30.31 3.33 45.47 5v-464c-22.66-5.673-45.98 10.529-66.49 11.489s-49.51-23.585-78.51-23.513c-29 0.071-58 33.653-87 33.915-29 0.263-58-21.891-87-21.891s-73 41.579-94.5 41.504c-21.5-0.076-30.166-17.505-50.5-12.504z" fill-rule="evenodd" fill="#fff"/>
 <path d="m86.771 89.708c9.859 3.372 18.649 6.417 30.099 5.514 28.13-1.849 57.13-33.759 84.54-35.519 30.59-1.703 59.59 24.601 88.95 22.314 28.64-1.496 53.63-32.433 84.55-35.52 29.53-1.814 59.36 24.066 88.95 22.314 10.97-0.728 19.71-5.276 29.14-10.061v403.31c-5.2881-0.99913-6.7867-1.1189-15.854-1.2688-21.463-1.2943-49.548 29.269-84.413 35.839-33.318 2.1643-53.66-22.086-89.034-21.977-33.906 3.6325-50.508 32.206-84.413 35.839-30.461 0.64167-63.565-24.381-89.034-21.977-14.252 0.69875-28.72 10.029-44.118 19.073z" fill-rule="evenodd" fill="#c00"/>
 <g fill-rule="evenodd">
  <g stroke-linejoin="round" stroke="#fff" stroke-linecap="round" stroke-width="9.0001" fill="#fff">
   <rect height="20" width="20" y="91.5" x="120.5"/>
   <rect height="20" width="20" y="149.5" x="120.5"/>
   <rect height="20" width="20" y="207.5" x="120.5"/>
   <rect height="20" width="20" y="265.5" x="120.5"/>
   <rect height="20" width="20" y="323.5" x="120.5"/>
   <rect height="20" width="20" y="381.5" x="120.5"/>
   <rect height="20" width="20" y="439.5" x="120.5"/>
   <rect height="20" width="20" y="91.5" x="439.5"/>
   <rect height="20" width="20" y="149.5" x="439.5"/>
   <rect height="20" width="20" y="207.5" x="439.5"/>
   <rect height="20" width="20" y="265.5" x="439.5"/>
   <rect height="20" width="20" y="323.5" x="439.5"/>
   <rect height="20" width="20" y="381.5" x="439.5"/>
   <rect height="20" width="20" y="439.5" x="439.5"/>
  </g>
  <g fill="#ddd">
   <path d="m174 203h232v145h-232z"/>
   <path d="m174 68.902c8.99-4.504 17.26-9.894 27.41-9.902 30.59-2.471 59.59 24.103 88.95 22.5 28.64-2.729 57.64-34.708 84.55-35.5 9.48-1.18 21.84 1.963 31.09 6.372v121.63h-232z"/>
   <path d="m174 377h232v116c-4.5742 2.1076-7.3207 3.129-13.268 4-28.503 3.8331-60.237-21.428-89.034-22-32.249 4.3113-54.514 34.625-84.413 36-22.15 1.29-26.95-3.65-45.29-11.61z"/>
  </g>
 </g>
</svg>
