<?xml version="1.0" encoding="UTF-8" standalone="no"?>
<svg xmlns:rdf="http://www.w3.org/1999/02/22-rdf-syntax-ns#" xmlns="http://www.w3.org/2000/svg" height="580" width="580" version="1.0" xmlns:cc="http://creativecommons.org/ns#" xmlns:dc="http://purl.org/dc/elements/1.1/">
 <title>biergarten</title>
 <metadata>
  <rdf:RDF>
   <cc:Work rdf:about="">
    <dc:format>image/svg+xml</dc:format>
    <dc:type rdf:resource="http://purl.org/dc/dcmitype/StillImage"/>
    <dc:title>biergarten</dc:title>
   </cc:Work>
  </rdf:RDF>
 </metadata>
 <path opacity=".8" fill="#fff" d="m148 45.994c-19.54 0.982-60.829-1.32-67.494 26.235l-1.234 449.77c0.944 29 23.433 25.46 39.728 29 79.1 7.0766 208.74 9.465 288 0 14.969-4.0839 36.904 0 36.815-29l0.0985-75.713 20.098-3.7129c58.98-3.57 62.98-26.75 70.09-65.71l22.098-191.71c-0.21-40.15-33.21-69.15-75.9-69.71l-35.803 0.57419 0.0985-39.713c-2.49-26.265-53.84-26.669-66.61-27.809-87-7.71-152-6.739-230-2.498z"/>
 <path d="m145 116h232v377h-232z" fill-rule="evenodd" fill="#f1ede7"/>
 <path fill="#672400" d="m412.23 87.93h-0.251c0.287-0.248 0.445-0.498 0.445-0.75 0-5.937-64.424-10.629-153.07-10.75-85.357-0.11686-149.07 4.813-149.07 10.75 0 0.252 0.158 0.502 0.446 0.75h-0.446l0.512 430.93h0.255c-0.5 0.27-0.765 0.544-0.765 0.821 0 4.102 81.996 7.425 151.07 7.425 69.075 0 151.07-3.323 151.07-7.425 0-0.277-0.266-0.552-0.765-0.821l0.57-430.93zm-42.853 399.42c-2.895 2.679-214.6 1.4236-217.5-1.2554l0.32-340.25c95.07 65.91 108.8-29.84 218.16-2.51l-0.982 344.02z"/>
 <path fill="#672400" d="m406 147.86 70-2.5422c33.799-3.5033 49.064 22.92 47 33l-22.09 200.32c-1.5797 19.593-16.327 30.025-28.212 31.87l-44.464 5.5266c-16.93 0.45-21.28 9.12-22.24 25.34v-57.169l47.915-6.92c6.7231-1.4157 13.6-2.0781 14.389-8.5559l20.14-172.56c0.57-14.59-1.93-16.85-11.45-16.85l-71 4z" fill-rule="evenodd"/>
</svg>
