<?xml version="1.0" encoding="UTF-8" standalone="no"?>
<svg xmlns:rdf="http://www.w3.org/1999/02/22-rdf-syntax-ns#" xmlns="http://www.w3.org/2000/svg" height="580" width="580" version="1.0" xmlns:cc="http://creativecommons.org/ns#" xmlns:dc="http://purl.org/dc/elements/1.1/">
 <title>car_sharing</title>
 <metadata>
  <rdf:RDF>
   <cc:Work rdf:about="">
    <dc:format>image/svg+xml</dc:format>
    <dc:type rdf:resource="http://purl.org/dc/dcmitype/StillImage"/>
    <dc:title>car_sharing</dc:title>
   </cc:Work>
  </rdf:RDF>
 </metadata>
 <path opacity=".8" d="m203 0c-29 0-66.84 37.002-49.19 72.5-8.81 14.5-23.31 8.441-23.31 43.5v72.5c0 14.5 14.5 29 12.003 37.435-17.361 23.035-28.195 65.329-42.743 92.539-27.785 13.393-45.895 44.624-42.709 75.465l0.949 99.06c0 16.74 10.846 29 29 29 0 20.827 9.0094 45.58 29 58h58c20.451-12.392 28.994-37.148 28.994-58h174c0 20.659 8.989 45.484 29.006 58h58c20.537-12.237 28.992-36.89 28.992-57.999 17.363 0 29-9.9883 29-29l0.7793-103.93c-0.03-32.5-17.08-58.109-44.07-70.719-14.61-33.59-22.56-62.84-38.79-92.34-4.91-8.51 9.59-23.01 9.59-37.51l-0.002-72.491c-0.001-33.825-13.94-28.294-20.5-43.5 13.07-39.256-23-72.5-52-72.5s-66.72 35.817-53.1 72.5c-4.9 14.5-19.4 7.842-19.4 43.5l0.004 80.493h-29l-0.004-80.493c-0.002-33.444-14.5-29-23.8-43.5 16.1-36.243-19.7-72.5-48.7-72.5zm10.504 284.49h156.6l8.7012 27.5h-177z" fill-rule="evenodd" fill="#fff"/>
 <g fill="#00f" fill-rule="evenodd">
  <path d="m430.4 373.5c15.651-0.00003 28.309 12.761 28.309 28.54s-12.658 28.595-28.309 28.595c-15.651 0.00002-28.364-12.816-28.364-28.595s12.712-28.54 28.364-28.54zm-278.39 0c15.651 0.00003 28.364 12.761 28.364 28.54s-12.712 28.595-28.364 28.595c-15.651 0-28.364-12.816-28.364-28.595s12.712-28.54 28.364-28.54zm58.99-118.5h159c14.45-0.33989 20.209 2.1854 26.354 15.959l25.65 71.04h-263l25.47-69.55c7.86-13.06 14.12-17.95 26.53-17.45zm-8-29c-18.201-0.64917-33.885 5.2882-43.557 26.612l-35.44 89.39c-25.444 7.0723-35.999 24.472-36.586 39.76l-0.414 111.24h29v29c0 47.595 58 48.64 58 0v-29h232v29c0 48.031 58 48.337 58 0v-29h29l0.41378-111.24c-0.58-15.29-11.97-32.69-37.41-39.76l-34.62-89.39c-9.67-21.32-25.35-27.26-43.55-26.61z"/>
  <path d="m232 58a29 29 0 0 1 -29 29 29 29 0 0 1 -29 -29 29 29 0 0 1 29 -29 29 29 0 0 1 29 29z"/>
  <path d="m406 58a29 29 0 0 1 -29 29 29 29 0 0 1 -29 -29 29 29 0 0 1 29 -29 29 29 0 0 1 29 29z"/>
  <path d="m159.5 116c0-14.5 0-29 15.207-29h57.29c14.5 0 14.5 14.5 14.5 29l0.003 72.5h-87z"/>
  <path d="m333.5 116c0-14.5 0-29 15.207-29h57.29c14.5 0 14.5 14.5 14.5 29l0.003 72.5h-87z"/>
 </g>
</svg>
