<?xml version="1.0" encoding="UTF-8" standalone="no"?>
<svg xmlns:rdf="http://www.w3.org/1999/02/22-rdf-syntax-ns#" xmlns="http://www.w3.org/2000/svg" height="580" width="580" version="1.0" xmlns:cc="http://creativecommons.org/ns#" xmlns:dc="http://purl.org/dc/elements/1.1/">
 <title>school</title>
 <metadata>
  <rdf:RDF>
   <cc:Work rdf:about="">
    <dc:format>image/svg+xml</dc:format>
    <dc:type rdf:resource="http://purl.org/dc/dcmitype/StillImage"/>
    <dc:title>school</dc:title>
   </cc:Work>
  </rdf:RDF>
 </metadata>
 <path stroke-linejoin="round" d="m116 507.5 174-449.5 174 449.5" stroke="#202020" stroke-linecap="round" stroke-width="30" fill="none"/>
 <rect stroke-linejoin="round" ry="2.122" height="261" width="435" stroke="#202020" stroke-linecap="round" y="159.5" x="72.5" stroke-width="24" fill="#fff"/>
 <g fill="#202020">
  <path d="m156.26 194.13c-14.32 0-25.11 2.56-32.37 7.68-7.27 5.12-12.38 13-15.36 23.66l26.46 4.77c1.8-5.11 4.15-8.68 7.06-10.68 2.9-2.08 6.95-3.11 12.14-3.11 7.68 0 12.9 1.21 15.67 3.63 3.45 3.07 4.17 9.64 4.15 14.84-5.26 2.21-14.71 4.6-28.33 7.15-10.1 1.94-17.85 4.22-23.25 6.85-5.32 2.56-9.47 6.29-12.45 11.2-2.97 4.85-4.46 10.38-4.46 16.6 0 9.41 3.25 17.19 9.76 23.35 6.57 6.16 15.52 9.23 26.87 9.23 6.43 0 12.48-1.21 18.16-3.63 5.67-2.42 11-6.05 15.98-10.89 1.44 4.42 2.11 7.5 3.83 12.03h28.85c-2.56-5.25-4.32-10.16-5.29-14.73-0.9-4.63-1.35-11.79-1.35-21.48l0.31-34.03c0-12.66-1.31-21.34-3.94-26.04-2.56-4.78-7.02-8.69-13.39-11.73-6.36-3.11-16.05-4.67-29.05-4.67zm17.74 59.75v0.01 5.81c0 6.98-0.38 11.72-1.14 14.21-1.11 3.81-3.43 7.03-6.95 9.65-4.78 3.46-9.79 5.19-15.05 5.19-4.7 0-8.58-1.48-11.62-4.46-3.04-2.97-4.56-6.5-4.56-10.58 0-4.15 1.9-7.58 5.7-10.27 2.49-1.66 7.78-3.36 15.88-5.09 8.09-1.73 14-3.21 17.74-4.46v-0.01z"/>
  <path d="m232.05 224.37v152.11h27.08v-16.19c4.43 6.16 9.68 10.83 15.77 14.01 6.16 3.12 12.38 4.67 18.68 4.67 12.8 0 23.65-5.08 32.58-15.25 8.99-10.17 13.49-24.66 13.49-43.48 0-18.19-4.39-32.13-13.18-41.81-8.78-9.75-19.89-14.63-33.31-14.63-12.31 0-22.96 5.12-31.95 15.35v-54.78h-29.16zm53.33 61.74c7.13 0 12.97 2.8 17.54 8.4 4.56 5.54 6.85 14.6 6.85 27.19 0 11.83-2.29 20.51-6.85 26.04-4.5 5.46-9.96 8.2-16.39 8.2-8.37 0-15.09-3.88-20.14-11.62-3.59-5.47-5.39-13.91-5.39-25.32 0-11.06 2.32-19.3 6.95-24.7 4.64-5.46 10.45-8.19 17.43-8.19z"/>
  <path d="m470.38 239.78-28.741 5.188c-0.96667-5.74-3.18-10.063-6.64-12.97-3.3895-2.9053-7.8165-4.3579-13.281-4.3579-7.2633 0-13.074 2.5248-17.432 7.5745-4.2887 4.9805-6.4331 13.35-6.4331 25.11 0 13.074 2.179 22.309 6.5369 27.704 4.4271 5.3955 10.341 8.0933 17.743 8.0933 5.5339 0 10.065-1.5564 13.593-4.6692 3.5278-3.182 6.018-8.612 7.4707-16.29l28.638 4.8767c-2.9745 13.143-8.6811 23.069-17.12 29.779-8.4393 6.71-19.749 10.065-33.929 10.065-16.117 0-28.984-5.0843-38.599-15.253-9.546-10.169-14.319-24.245-14.319-42.23 0-18.193 4.8077-32.339 14.423-42.438 9.6153-10.169 22.62-15.253 39.014-15.253 13.419 0 24.072 2.9053 31.958 8.7158 8.8562 8.1368 14.362 15.133 17.118 26.355z"/>
 </g>
</svg>
