<?xml version="1.0" encoding="UTF-8" standalone="no"?>
<svg xmlns:rdf="http://www.w3.org/1999/02/22-rdf-syntax-ns#" xmlns="http://www.w3.org/2000/svg" height="580" width="580" version="1.0" xmlns:cc="http://creativecommons.org/ns#" xmlns:dc="http://purl.org/dc/elements/1.1/">
 <title>cafe</title>
 <metadata>
  <rdf:RDF>
   <cc:Work rdf:about="">
    <dc:format>image/svg+xml</dc:format>
    <dc:type rdf:resource="http://purl.org/dc/dcmitype/StillImage"/>
    <dc:title>cafe</dc:title>
   </cc:Work>
  </rdf:RDF>
 </metadata>
 <path opacity=".8" d="m62.244 87s-19.628-2.6524-22.104 59.768c-2.4756 62.421 7.9573 192.74 22.811 232.35 22.476 59.935 88.243 118.68 140.05 123.78 51.805 5.0996 87.551 4.8378 134.39-17.683 32.977-15.855 65.712-56.846 96.902-57.293 58.171-0.83372 87.345-45.721 116-88.415 30.007-44.707 27.425-113.16 8.4878-164.8-21.763-49.24-50.141-74.324-105.39-59.415-9.3328 2.5185-12.594-28.927-26.878-29-133.19-0.693-364.27 0.695-364.27 0.695z" fill-rule="evenodd" fill="#fff"/>
 <path fill="#672400" d="m85.477 115.75c-4.693-0.02-8.668 3.45-9.274 8.11 0 0-11.238 85.49 2.141 171.68 6.689 43.1 19.445 86.63 43.816 120.12 24.29 33.37 61.02 56.28 111.69 56.25 4.87 0.27 9.52 0.34 13.95 0.27 4.43 0.07 9.08 0 13.96-0.27 50.66 0.03 87.39-22.88 111.68-56.25 2.02-2.78 3.96-5.63 5.82-8.54 60.06-5.14 101.15-29.28 126.04-58.57 27.64-32.53 35.76-68.75 36.24-92.53 0.45-22.16-3.67-47.53-13.98-70.15-5.15-11.31-11.91-22.04-21.7-30.72s-23.4-14.97-38.21-14.97c-16.75 0-32.18 4.65-45.74 10.53-1.2-16.65-2.51-26.85-2.51-26.85-0.61-4.66-4.58-8.13-9.27-8.11l-162.33 0.66-162.32-0.66zm382.17 70.05c2.96 0 4.71 0.63 7.95 3.5s7.17 8.3 10.44 15.49c6.55 14.36 10.19 35.27 9.89 50.3-0.28 13.41-6.15 41.26-25.4 63.92-13.92 16.38-34.62 31.43-68.07 38.78 6.81-20.04 11.53-41.2 14.8-62.25 5.18-33.37 6.66-66.61 6.54-94.85 0.39-0.21 0.74-0.42 1.14-0.64 14.1-7.64 32.21-14.25 42.71-14.25z" fill-rule="evenodd"/>
</svg>
