<?xml version="1.0" encoding="UTF-8" standalone="no"?>
<svg xmlns:rdf="http://www.w3.org/1999/02/22-rdf-syntax-ns#" xmlns="http://www.w3.org/2000/svg" height="580" width="580" version="1.0" xmlns:cc="http://creativecommons.org/ns#" xmlns:dc="http://purl.org/dc/elements/1.1/">
 <title>restaurant</title>
 <metadata>
  <rdf:RDF>
   <cc:Work rdf:about="">
    <dc:format>image/svg+xml</dc:format>
    <dc:type rdf:resource="http://purl.org/dc/dcmitype/StillImage"/>
    <dc:title>restaurant</dc:title>
   </cc:Work>
  </rdf:RDF>
 </metadata>
 <path opacity=".8" d="m333.07 56.648c-28.23 1.174-43.07 30.352-43.07 66.952-17.33-36.6-50.76-59.096-76.1-65.922-26.85-3.997-53.11 10.76-70.83 30.047-45.969 47.625-65.906 118.62-51.774 183.16 8.2055 36.147 28.236 70.429 58.954 92.084-5.3092 53.063-10.621 106.13-15.932 159.19h138.71c-5.2061-53.068-10.769-106.1-15.779-159.19 16.646-11.832 30.067-27.706 40.678-45.053 10.007 15.474 27.418 23.006 41.883 33.414l-17.246 170.83h138.25l-15.967-171.8c16.24-16.22 48.16-31.35 48.16-60.35v-203c-8.95-25.894-40.48-41.118-71.13-17.024-15.87-20.434-43.68-16.498-58.96-1.49-8.1-7.36-18.8-12.075-29.84-11.838z" fill="#fff"/>
 <path fill="#672400" d="m203.68 86.71c-28.961 0-86.86 57.922-86.883 144.8-0.0233 86.953 62.087 114.5 65.203 115.84l-14.521 144.8h72.402l-14.462-144.8c2.0101-1.2178 65.163-28.961 65.163-115.84 0-86.883-57.94-144.8-86.902-144.8zm115.84 21.721v181.01c0 28.961 50.682 28.961 50.682 57.922l-14.48 144.8h72.402l-14.48-144.8c0-28.961 50.682-28.961 50.682-57.922v-181.01c0-28.961-28.961-28.961-28.961 0v152.04c0 16.313-28.961 16.313-28.961 0v-152.04c0-28.961-28.961-28.961-28.961 0v152.04c0 15.272-28.961 15.272-28.961 0v-152.04c0-28.961-28.961-28.961-28.961 0z"/>
</svg>
