<?xml version="1.0" encoding="UTF-8" standalone="no"?>
<svg xmlns:rdf="http://www.w3.org/1999/02/22-rdf-syntax-ns#" xmlns="http://www.w3.org/2000/svg" height="580" width="580" version="1.0" xmlns:cc="http://creativecommons.org/ns#" xmlns:dc="http://purl.org/dc/elements/1.1/">
 <title>toilets</title>
 <metadata>
  <rdf:RDF>
   <cc:Work rdf:about="">
    <dc:format>image/svg+xml</dc:format>
    <dc:type rdf:resource="http://purl.org/dc/dcmitype/StillImage"/>
    <dc:title>toilets</dc:title>
   </cc:Work>
  </rdf:RDF>
 </metadata>
 <g>
  <path opacity=".8" d="m418.27 56.562c-31.366 0.50095-60.186 23.82-68.98 53.639v-53.49c-29.859-0.000001-59.719 0-89.578 0-0.0752 17.628 0.14973 37.55-0.11133 53.758-8.2204-30.915-38.456-53.988-70.412-53.887-41.266-1.5256-78.562 37.859-74.447 78.998 0.94311 16.057 8.0354 31.364 18.289 43.57-24.611 12.513-40.022 44.226-28.899 70.619 5.8432 14.068 16.69 25.127 26.167 36.758-23.166 19.863-42.24 47.353-43.972 78.666-1.3042 13.998-0.4841 28.068-0.33847 42.095h50.475v87h104.08v-87h19.172v87h89.578c0.003-56.36-0.013-112.72 0.006-169.08 9.2428 21.726 20.962 43.861 19.362 68.139-0.76615 33.641 0.11148 67.291-0.1962 100.94h103.81c1.479-40.639-1.6199-81.531 1.5686-121.99 12.191-42.922 37.362-81.128 47.549-124.69 4.0453-17.904 1.348-37.963-10.836-52.26-7.8873-9.7344-18.752-16.969-30.68-20.746 20.246-26.5 18.939-66.709-3-91.84-14.31-16.938-36.43-26.908-58.61-26.21zm-68.943 93.572c2.544 8.8784 6.7311 17.28 12.271 24.668-4.2767 1.2183-8.412 2.9304-12.309 5.0723 0.024-9.821-0.0484-20.377 0.0371-29.74zm-89.615 41.473c-4.5104-4.8749-10.316-8.9402-15.783-12.174 7.5228-8.353 12.883-18.575 15.783-29.418v41.592zm0 107.17c-4.1907-4.2684-8.6181-8.2963-13.098-12.258 4.333-5.173 8.8789-10.167 13.098-15.436v27.693z" fill="#fff"/>
  <path fill="#c00" d="m188.5 87c-24.02 0-43.5 19.48-43.5 43.5s19.48 43.5 43.5 43.5 43.5-19.48 43.5-43.5-19.48-43.5-43.5-43.5zm232 0c-24.02 0-43.5 19.48-43.5 43.5s19.48 43.5 43.5 43.5 43.5-19.48 43.5-43.5-19.48-43.5-43.5-43.5zm-261 116c-17.39 0-29 16.49-29 29 0 15.29 36.25 43.4 36.25 58 0 16.12-50.75 29-50.75 87h50.75v87h43.5v-87h50.75c0-58-50.75-71.64-50.75-87s36.25-42.01 36.25-58c0-11.82-12.32-29-29-29h-58zm217.5 0c-15.29 0-29 13.93-29 29 0 29 50.75 116.47 50.75 145v87h43.5v-87c0-27.97 50.75-116 50.75-145 0-16.05-13.01-29-29-29h-87z"/>
  <path d="m290 87h29v377h-29z" fill-rule="evenodd" fill="#c00"/>
 </g>
</svg>
