<?xml version="1.0" encoding="UTF-8" standalone="no"?>
<svg xmlns:rdf="http://www.w3.org/1999/02/22-rdf-syntax-ns#" xmlns="http://www.w3.org/2000/svg" height="580" width="580" version="1.0" xmlns:cc="http://creativecommons.org/ns#" xmlns:dc="http://purl.org/dc/elements/1.1/">
 <title>kindergarten</title>
 <metadata>
  <rdf:RDF>
   <cc:Work rdf:about="">
    <dc:format>image/svg+xml</dc:format>
    <dc:type rdf:resource="http://purl.org/dc/dcmitype/StillImage"/>
    <dc:title>kindergarten</dc:title>
   </cc:Work>
  </rdf:RDF>
 </metadata>
 <g stroke-linejoin="round" stroke="#202020" stroke-linecap="round" stroke-width="29" fill="#fff">
  <path d="m72.5 145 232 87v304.5l-232-116z"/>
  <path d="m507.5 130.5-203 101.5v304.5l203-145z"/>
  <path d="m275.5 58-203 87 232 87 203-101.5z"/>
 </g>
 <g fill="#202020">
  <path d="m147.99 228.21c-2.26 0.06-4.34 0.33-6.25 0.81-10.18 2.53-17.36 10.32-21.53 23.35l37.09 23.59h0.01c2.52-6.02 5.82-9.51 9.89-10.47 4.07-1.05 9.74 0.08 17.02 3.39 10.76 4.91 18.08 9.94 21.96 15.1 4.29 5.77 5.93 15.15 5.82 23.45-7.37-0.26-20.61-2.94-39.71-8.06-14.15-3.74-25.01-5.49-32.58-5.25-7.46 0.19-13.28 2.77-17.45 7.76-4.17 4.88-6.25 11.69-6.25 20.41 0 13.19 4.55 26.17 13.66 38.95 9.21 12.83 21.76 22.87 37.67 30.12 9.01 4.1 17.5 6.27 25.45 6.5s15.41-1.46 22.39-5.06c2.22 7.01 2.86 12.05 5.38 19.32l40.44 18.43c-3.59-9-6.06-17.01-7.42-24.03-1.26-7.07-1.89-17.4-1.89-30.97l0.43-47.51c0-17.74-1.84-30.74-5.52-39.02-3.59-8.32-9.84-16.65-18.76-24.98-8.92-8.43-22.5-16.8-40.72-25.1-16.31-7.44-29.36-11.01-39.13-10.73zm20.23 97.51c4.09 0.1 10.39 1.18 18.89 3.24 11.35 2.75 19.64 4.44 24.87 5.08 0 10.57 0.37 16.69-1.6 27.34-1.55 4.63-4.8 7.65-9.74 9.08-6.69 1.8-13.72 1.03-21.09-2.33-6.59-3.01-12.02-7.57-16.29-13.68-4.26-6.11-6.4-12.03-6.4-17.75 0-5.82 2.67-9.4 8-10.75 0.87-0.19 1.99-0.26 3.36-0.23z"/>
  <path d="m462.95 271.98-32.068 22.128c-1.0805-5.8553-3.5502-9.4207-7.4092-10.696-3.7817-1.3146-8.7211-0.4186-14.818 2.688-8.104 4.1291-14.587 10.249-19.449 18.361-4.7851 7.9953-7.1776 18.553-7.1776 31.673 0 14.587 2.4311 23.651 7.2934 27.194 4.9395 3.5032 11.538 3.1509 19.796-1.0568 6.1743-3.146 11.23-7.4583 15.166-12.937 3.9361-5.5558 6.7146-13.03 8.3353-22.423l31.952-10.839c-3.3187 16.355-9.6861 30.674-19.102 42.958s-22.035 22.457-37.856 30.518c-17.983 9.1627-32.338 10.804-43.066 4.9252-10.651-5.9185-15.976-18.911-15.976-38.978 0-20.298 5.364-38.814 16.092-55.548 10.728-16.811 25.238-29.877 43.529-39.197 14.973-7.6287 26.858-10.443 35.657-8.4434 10.595 4.2873 15.46 8.693 19.101 19.673z"/>
  <path d="m296.93 116.85c-12.824-0.0637-23.281 1.7537-31.411 5.4325-4.202 1.9014-7.0839 3.965-8.6362 6.1986-1.5522 2.2336-1.7706 4.6311-0.67326 7.1969l-45.549-15.856-27.557 12.467 131.4 45.758 25.56-11.561-14.092-4.8985c9.4472 0.46242 16.746 0.39708 21.892-0.20895 6.7272-0.84284 12.489-2.3395 17.272-4.5038 5.5878-2.5284 8.711-5.5248 9.3792-8.9613 0.66793-3.4364-1.6632-7.1199-6.9879-11.051-5.3248-3.9307-13.19-7.708-23.587-11.329-15.596-5.4318-30.399-8.3018-44.412-8.6362-0.87582-0.0209-1.7452-0.042-2.6002-0.0464zm-1.4394 16.924c0.67147 0.005 1.3545 0.0388 2.0662 0.0696 5.6936 0.24692 12.297 1.6727 19.826 4.2949 8.5449 2.9761 13.502 5.5866 14.904 7.8469 1.4024 2.2604 0.4774 4.1416-2.7859 5.6182-3.5315 1.598-8.2773 2.258-14.254 2.0198-5.98-0.24-13.06-1.77-21.25-4.62-7.4693-2.6014-11.882-5.0872-13.21-7.429s-0.13509-4.334 3.5752-6.0129c2.6989-1.2212 6.4201-1.8227 11.12-1.7876z"/>
 </g>
</svg>
