<?xml version="1.0" encoding="UTF-8" standalone="no"?>
<svg xmlns:rdf="http://www.w3.org/1999/02/22-rdf-syntax-ns#" xmlns="http://www.w3.org/2000/svg" height="580" width="580" version="1.0" xmlns:cc="http://creativecommons.org/ns#" xmlns:dc="http://purl.org/dc/elements/1.1/">
 <title>toilets</title>
 <metadata>
  <rdf:RDF>
   <cc:Work rdf:about="">
    <dc:format>image/svg+xml</dc:format>
    <dc:type rdf:resource="http://purl.org/dc/dcmitype/StillImage"/>
    <dc:title>toilets</dc:title>
   </cc:Work>
  </rdf:RDF>
 </metadata>
 <path d="m58 0c-29 0-58 29-58 58v464c0 29 29 58 58 58h464c29 0 58-29 58-58v-464c0-29-29-58-58-58z" fill-rule="evenodd" fill="#c00"/>
 <path fill="#fff" d="m189.07 145.68-63.28-0.68c-11.271 0.00036-21.407 4.735-30.41 12.844-6.7625 6.2954-11.264 13.278-13.504 20.947l-31.09 103.35c-0.89346 2.2543-1.3402 4.2817-1.3401 6.082-0.00005 10.364 5.1748 15.545 15.525 15.545 7.2159 0.0002 11.951-4.0545 14.205-12.164l28.364-95.6h25.53l-46.07 152h29v145c-0.00012 11.71 3.243 20 14.5 20 11.257-0.00002 14.5-8.2895 14.5-20v-145h29v145c-0.00016 11.257 3.2429 20 14.5 20 11.257-0.00002 14.5-8.7431 14.5-20v-145h29l-46.849-152h26.205l28.369 95.614c2.2539 8.1096 6.9821 12.164 14.185 12.164 10.363 0.0002 15.545-5.1816 15.545-15.545-0.00027-2.2539-0.44698-4.2813-1.3401-6.082l-31.09-103.36c-2.2544-7.2156-7.4292-14.198-15.525-20.947-9.91-8.1-20.72-12.84-32.43-12.84zm-30.451-7.4428c10.35 0.00035 19.129-3.6008 26.338-10.803 7.2089-7.2018 10.813-15.758 10.814-25.668-0.0002-10.363-3.6047-19.146-10.814-26.349-7.2093-7.2018-15.989-10.803-26.338-10.803-9.9101 0.00043-18.47 3.6015-25.679 10.803-7.2092 7.2026-10.814 15.986-10.814 26.349-0.00011 9.9103 3.6044 18.466 10.814 25.668 7.209 7.2026 15.768 10.804 25.679 10.803zm292.02-0.65976c9.9094 0.00037 18.469-3.6042 25.679-10.814 7.2085-7.2087 10.813-15.768 10.814-25.679-0.00056-10.349-3.6051-19.015-10.814-25.998-7.2096-6.9819-15.769-10.473-25.679-10.473-9.9104 0.00043-18.467 3.4916-25.668 10.473-7.2027 6.9827-10.804 15.649-10.803 25.998-0.00048 9.9103 3.6006 18.47 10.803 25.679 7.2017 7.2094 15.758 10.814 25.668 10.814zm-54.64 7.42c-13.058 0.00033-24.206 4.616-33.442 13.852-9.24 9.23-14.56 23.64-14.56 37.15v107c-0.00042 10.817 4.5896 16 14.5 16 9.4559 0.00018 14.5-5.1827 14.5-16v-107h29v297c-0.00048 13.511 0.98849 20 14.5 20 13.511-0.00002 14.499-6.489 14.5-20v-174h29v174c-0.00053 13.511 0.98843 20 14.5 20 13.964-0.00002 14.499-6.489 14.5-20v-297h29v107c-0.00059 11.257 5.043 16 14.5 16 9.4695 0.00016 14.499-4.7429 14.5-16v-109c-0.00061-13.057-5.7198-24.8-14.502-34.483-8.78-9.68-19.54-14.52-33.5-14.52z"/>
 <path d="m290 58h29v464h-29z" fill-rule="evenodd" fill="#fff"/>
</svg>
