<?xml version="1.0" encoding="UTF-8" standalone="no"?>
<svg xmlns:rdf="http://www.w3.org/1999/02/22-rdf-syntax-ns#" xmlns="http://www.w3.org/2000/svg" height="580" width="580" version="1.0" xmlns:cc="http://creativecommons.org/ns#" xmlns:dc="http://purl.org/dc/elements/1.1/">
 <title>car_wash</title>
 <metadata>
  <rdf:RDF>
   <cc:Work rdf:about="">
    <dc:format>image/svg+xml</dc:format>
    <dc:type rdf:resource="http://purl.org/dc/dcmitype/StillImage"/>
    <dc:title>car_wash</dc:title>
   </cc:Work>
  </rdf:RDF>
 </metadata>
 <path opacity=".8" d="m217.5 14.5c-20.73 0.605-36.05 17.328-47.21 33.104-26.97 33.001-58.22 62.756-81.007 99.016-8.957 23.87 6.217 70.88 55.817 65.14-15.893 27.474-31.576 81.74-45.342 106.72-27.785 13.393-45.895 44.624-42.709 75.465l0.951 99.06c0 16.74 10.846 29 29 29 0 20.991 8.661 45.682 29 58h58c20.639-12.336 28.994-37.059 28.994-58h174c0 20.659 8.989 45.483 29.006 58h58c20.537-12.237 28.992-36.889 28.992-57.998 17.363 0 29-9.9883 29-29l0.7793-103.93c-0.03-32.5-17.08-58.109-44.07-70.719l-44.38-108.64c29.68-6.71 47.77-51.93 21.88-79.21l-103.61-111.64c-15.37-8.041-35.02-3.874-47.93 6.285-15.86-13.979-42.4-13.965-57.7 0.501-7.95-7.242-18.71-11.308-29.46-11.146zm102.03 93.36 75.97 89.14h-99.99c23.49-8.5 23.49-52 24.02-89.14zm-86.846 0.55078c-0.68 36.59-0.68 80.09 21.86 88.59h-98.981zm-19.182 176.08h156.6l8.7012 27.5h-177z" fill-rule="evenodd" fill="#fff"/>
 <path d="m430.4 373.5c15.651-0.00003 28.309 12.761 28.309 28.54s-12.658 28.595-28.309 28.595c-15.651 0.00002-28.364-12.816-28.364-28.595s12.712-28.54 28.364-28.54zm-278.39 0c15.651 0.00003 28.364 12.761 28.364 28.54s-12.712 28.595-28.364 28.595c-15.651 0-28.364-12.816-28.364-28.595s12.712-28.54 28.364-28.54zm58.99-118.5h159c14.45-0.33989 20.209 2.1854 26.354 15.959l25.65 71.04h-263l25.47-69.55c7.86-13.06 14.12-17.95 26.53-17.45zm-8-29c-18.201-0.64917-33.885 5.2882-43.557 26.612l-35.44 89.39c-25.444 7.0723-35.999 24.472-36.586 39.76l-0.414 111.24h29v29c0 47.595 58 48.64 58 0v-29h232v29c0 48.031 58 48.337 58 0v-29h29l0.41378-111.24c-0.58-15.29-11.97-32.69-37.41-39.76l-34.62-89.39c-9.67-21.32-25.35-27.26-43.55-26.61z" fill-rule="evenodd" fill="#00f"/>
 <g stroke="#00f" stroke-linecap="round" stroke-width="35" fill="none">
  <path d="m275.5 58v101.5"/>
  <path d="m333.5 58 87 101.5"/>
  <path d="m217.5 58-87 101.5"/>
 </g>
</svg>
