<?xml version="1.0" encoding="UTF-8" standalone="no"?>
<!-- Created with Inkscape (http://www.inkscape.org/) -->
<svg xmlns:rdf="http://www.w3.org/1999/02/22-rdf-syntax-ns#" xmlns="http://www.w3.org/2000/svg" height="580" width="580" version="1.1" xmlns:cc="http://creativecommons.org/ns#" xmlns:dc="http://purl.org/dc/elements/1.1/">
 <title>aussichtspunkt</title>
 <metadata>
  <rdf:RDF>
   <cc:Work rdf:about="">
    <dc:format>image/svg+xml</dc:format>
    <dc:type rdf:resource="http://purl.org/dc/dcmitype/StillImage"/>
    <dc:title>aussichtspunkt</dc:title>
   </cc:Work>
  </rdf:RDF>
 </metadata>
 <g stroke-linejoin="round" stroke="#fff" stroke-linecap="round" stroke-width="23.864" fill="#734a08">
  <path d="m278.65 288.7c-0.79354 0.005 57.861-22.316 117.58-42.831 67.055-23.037 94.461-26.072 94.461 41.443s-24.812 60.402-96.609 38.123c-58.278-18.086-114.83-36.745-115.43-36.737z"/>
  <path d="m285.81 300.41c-0.39244 0.68973 9.6042-61.267 21.697-123.24 13.577-69.59 24.651-94.842 83.121-61.085 58.47 33.758 39.904 51.689-15.289 102.73-44.802 41.427-89.237 81.074-89.53 81.597z"/>
  <path d="m294.42 300.67c0.4011 0.68473-48.257-38.951-95.883-80.412-53.478-46.553-69.81-68.77-11.34-102.53 58.47-33.757 64.716-8.7131 81.32 64.605 13.476 59.513 25.593 117.82 25.9 118.33z"/>
  <path d="m301.36 291.5c0.79354-0.005-57.861 22.316-117.58 42.831-67.055 23.037-94.461 26.072-94.461-41.443s24.812-60.402 96.609-38.123c58.278 18.086 114.83 36.745 115.43 36.737z"/>
  <path d="m295.56 280.23c0.39244-0.68973-9.6042 61.267-21.697 123.24-13.577 69.59-24.651 94.842-83.121 61.085-58.47-33.758-39.904-51.689 15.289-102.73 44.802-41.427 89.237-81.074 89.53-81.597z"/>
  <path d="m287.41 279.06c-0.4011-0.68473 48.257 38.951 95.883 80.412 53.478 46.553 69.81 68.77 11.34 102.53-58.47 33.758-64.716 8.7131-81.32-64.605-13.47-59.52-25.59-117.82-25.9-118.34z"/>
 </g>
</svg>
