<?xml version="1.0" encoding="UTF-8" standalone="no"?>
<svg xmlns:rdf="http://www.w3.org/1999/02/22-rdf-syntax-ns#" xmlns="http://www.w3.org/2000/svg" height="580" width="580" version="1.1" xmlns:cc="http://creativecommons.org/ns#" xmlns:dc="http://purl.org/dc/elements/1.1/">
 <title>funkmast</title>
 <metadata>
  <rdf:RDF>
   <cc:Work rdf:about="">
    <dc:format>image/svg+xml</dc:format>
    <dc:type rdf:resource="http://purl.org/dc/dcmitype/StillImage"/>
    <dc:title>funkmast</dc:title>
   </cc:Work>
  </rdf:RDF>
 </metadata>
 <g fill="#505050">
  <path d="m384.12 39.875c-0.94286-12.311 14.505-13.164 22.057-7.3491 16.237 11.73 30.181 26.327 44.27 40.48 9.5701 10.899 19.823 21.285 27.104 33.959 8.9329 13.482 19.013 27.763 18.789 44.688 0.69001 18.039 0.62536 37.762-10.92 52.772-17.026 25.778-40.222 46.641-64.414 65.519-8.2674 6.4765-18.008 14.172-29.179 12.355-8.7828-5.1749-1.7604-17.649 4.4436-22.372 15.773-12.7 30.054-27.094 44.429-41.313 9.405-12.916 22.329-24.411 25.083-40.89 3.69-20.94 2.55-45.39-12.79-61.72-11.88-13.89-23.88-27.762-38.28-39.166-8.31-6.893-15.82-14.747-23.12-22.681-3.32-4.262-5.77-9.157-7.47-14.273"/>
  <path d="m358.75 101.5c-0.7576-5.5318 5.2593-8.5147 9.9688-6.9951 8.4483 1.7564 13.53 9.191 19.504 14.718 5.9498 5.9213 12.375 11.731 15.613 19.691 6.2428 14.297 6.6509 30.504 4.5171 45.751-1.713 11.49-6.7653 22.697-15.536 30.508-5.3342 5.1434-10.276 10.72-15.947 15.494-4.394 3.3386-11.432 6.0794-16.312 2.2656-3.8138-4.8801-1.073-11.918 2.2656-16.312 3.9924-4.6707 8.5497-8.999 11.126-14.702 7.0345-14.426 7.5386-31.159 5.5189-46.813-1.6069-11.35-6.2872-22.55-14.774-30.475-3.2784-3.5992-5.9752-8.1344-5.9544-13.141"/>
  <path d="m167.04 39.875c0.94286-12.311-14.505-13.164-22.057-7.3491-16.237 11.73-30.181 26.327-44.27 40.48-9.5701 10.899-19.823 21.285-27.104 33.959-8.9329 13.482-19.013 27.763-18.789 44.688-0.69001 18.039-0.62536 37.762 10.92 52.772 17.026 25.778 40.222 46.641 64.414 65.519 8.2674 6.4765 18.008 14.172 29.179 12.355 8.7828-5.1749 1.7604-17.649-4.4436-22.372-15.773-12.7-30.054-27.094-44.429-41.313-9.405-12.916-22.329-24.411-25.083-40.89-3.69-20.94-2.55-45.39 12.79-61.72 11.88-13.89 23.88-27.762 38.28-39.166 8.31-6.893 15.82-14.747 23.12-22.681 3.32-4.262 5.77-9.157 7.47-14.273"/>
  <path d="m192.41 101.5c0.7576-5.5318-5.2593-8.5147-9.9688-6.9951-8.4483 1.7564-13.53 9.191-19.504 14.718-5.9498 5.9213-12.375 11.731-15.613 19.691-6.2428 14.297-6.6509 30.504-4.5171 45.751 1.713 11.49 6.7653 22.697 15.536 30.508 5.3342 5.1434 10.276 10.72 15.947 15.494 4.394 3.3386 11.432 6.0794 16.312 2.2656 3.8138-4.8801 1.073-11.918-2.2656-16.312-3.9924-4.6707-8.5497-8.999-11.126-14.702-7.0345-14.426-7.5386-31.159-5.5189-46.813 1.6069-11.35 6.2872-22.55 14.774-30.475 3.2784-3.5992 5.9752-8.1344 5.9544-13.141"/>
 </g>
 <path d="m261 232v-174h29v174c29 0 29 0 29 29v232c0 29 0 29 29 29v29l-29-0.00014c-29 0-29 0-29-29l-29-0.00017c0 29 0 29-29 29h-29v-29c29 0 29 0 29-29v-232c0-29 0-29 29-29zm29 261v-58h-29v58m29-87v-58h-29v58m29-87v-58h-29v58" fill="#202020"/>
</svg>
