<?xml version="1.0" encoding="UTF-8" standalone="no"?>
<svg xmlns:rdf="http://www.w3.org/1999/02/22-rdf-syntax-ns#" xmlns="http://www.w3.org/2000/svg" height="580" width="580" version="1.0" xmlns:cc="http://creativecommons.org/ns#" xmlns:dc="http://purl.org/dc/elements/1.1/">
 <title>geldautomat</title>
 <metadata>
  <rdf:RDF>
   <cc:Work rdf:about="">
    <dc:format>image/svg+xml</dc:format>
    <dc:type rdf:resource="http://purl.org/dc/dcmitype/StillImage"/>
    <dc:title>geldautomat</dc:title>
   </cc:Work>
  </rdf:RDF>
 </metadata>
 <path opacity=".8" d="m145 377h-58v-203h58c0-87 87-120 145-120 106.1 0 154.2 33 174 120 0 29-29 58-58 58h-29v87h29c29 0 58 29 58 58 0 58-58 127.27-174 120-58 0-145-33-145-120z" fill-rule="evenodd" fill="#fff"/>
 <g stroke-linejoin="round" stroke="#00f" stroke-width="58" fill="none">
  <path stroke-linecap="round" d="m406 377c-6.0844 28.398-27.028 46.63-58 58-25.432 4.1632-50.553 8.6876-87 0-29.797-10.032-58-26.419-58-58v-203c0-32.23 28.462-50.913 58-58 27.27-5.1895 55.963-6.1118 87 0 27.787 8.6251 49.8 24.564 58 58"/>
  <path stroke-linecap="square" d="m145 232h174"/>
  <path stroke-linecap="square" d="m144.59 319h174"/>
 </g>
</svg>
