<?xml version="1.0" encoding="UTF-8" standalone="no"?>
<!-- Created with Inkscape (http://www.inkscape.org/) -->
<svg xmlns:rdf="http://www.w3.org/1999/02/22-rdf-syntax-ns#" xmlns="http://www.w3.org/2000/svg" height="580" width="580" version="1.1" xmlns:cc="http://creativecommons.org/ns#" xmlns:dc="http://purl.org/dc/elements/1.1/">
 <title>hotel</title>
 <metadata>
  <rdf:RDF>
   <cc:Work rdf:about="">
    <dc:format>image/svg+xml</dc:format>
    <dc:type rdf:resource="http://purl.org/dc/dcmitype/StillImage"/>
    <dc:title>hotel</dc:title>
   </cc:Work>
  </rdf:RDF>
 </metadata>
 <path opacity=".8" d="m493 290v-29c0-20.41-29-29-29-29-29-13.88-132.33-141.59-145-145h-58c-22.984 23.812-100.42 111.98-145 145-9.7136 7.1953-29 12.622-29 29v29c0 29 29 29 29 29v203h348v-203c11.324-1.4434 29 0 29-29z" fill="#fff"/>
 <path fill="#672400" d="m275 116c-37.963 39.02-74.298 84.782-109 116-11.117 9.636-36.361 24.476-50 29v29h29v203h290v-203h29v-29c-17.3-5.38-35.44-17.94-50-29-40.56-32.45-71.85-91.3-109-116z"/>
 <path d="m212 261v188h49v-73h58v73h49v-188h-49v72h-58v-72z" fill-rule="evenodd" fill="#fff"/>
</svg>
