<?xml version="1.0" encoding="UTF-8" standalone="no"?>
<svg xmlns:rdf="http://www.w3.org/1999/02/22-rdf-syntax-ns#" xmlns="http://www.w3.org/2000/svg" height="580" width="580" version="1.0" xmlns:cc="http://creativecommons.org/ns#" xmlns:dc="http://purl.org/dc/elements/1.1/">
 <title>administrative</title>
 <metadata>
  <rdf:RDF>
   <cc:Work rdf:about="">
    <dc:format>image/svg+xml</dc:format>
    <dc:type rdf:resource="http://purl.org/dc/dcmitype/StillImage"/>
    <dc:title>administrative</dc:title>
   </cc:Work>
  </rdf:RDF>
 </metadata>
 <path opacity=".8" d="m246.5 196.6-159.5 78.9v101.5h29v58h-29v87h406v-87h-29v-58h29l-0.47-101.51-159.03-78.15c0-23.34-14.5-37.84-43.5-37.84s-43.5 14.5-43.5 37.099z" fill="#fff"/>
 <path d="m290 188.5c-8.71 0-14.5 5.79-14.5 14.5v14.5l-159.5 72.5h348l-159.5-72.5v-14.5c0-10.89-7.97-14.5-14.5-14.5zm-174 130.5v29h29v116h-29v29h348v-29h-29v-116h29v-29h-348zm58 29h58v116h-58v-116zm87 0h58v116h-58v-116zm87.57 0.07h57.36v115.86h-57.36v-115.86z" fill="#c00"/>
</svg>
