<?xml version="1.0" encoding="UTF-8" standalone="no"?>
<!-- Created with Inkscape (http://www.inkscape.org/) -->
<svg xmlns:rdf="http://www.w3.org/1999/02/22-rdf-syntax-ns#" xmlns="http://www.w3.org/2000/svg" height="580" width="580" version="1.1" xmlns:cc="http://creativecommons.org/ns#" xmlns:dc="http://purl.org/dc/elements/1.1/">
 <title>picknick</title>
 <metadata>
  <rdf:RDF>
   <cc:Work rdf:about="">
    <dc:format>image/svg+xml</dc:format>
    <dc:type rdf:resource="http://purl.org/dc/dcmitype/StillImage"/>
    <dc:title>picknick</dc:title>
   </cc:Work>
  </rdf:RDF>
 </metadata>
 <path opacity=".8" d="m116 203h64l-23.949 58h-110.05v106h68l-49 126h118l50-126h116.03l49.949 126h115.02l-49-126h69v-106h-111.19l-23.81-58h65v-106h-348zm188.96 58h-34.926l17.47-44.64z" fill="#fff"/>
 <path d="m145 174h76l-46 115h-101v50h81l-49 125h58l50-125h154l50 125h55l-49-125h82v-50h-102l-47-115h78v-49h-290m156 49 45 115h-117l45-115" fill="#734a08"/>
</svg>
