<?xml version="1.0" encoding="UTF-8" standalone="no"?>
<!-- Created with Inkscape (http://www.inkscape.org/) -->
<svg xmlns:rdf="http://www.w3.org/1999/02/22-rdf-syntax-ns#" xmlns="http://www.w3.org/2000/svg" height="580" width="580" version="1.1" xmlns:cc="http://creativecommons.org/ns#" xmlns:dc="http://purl.org/dc/elements/1.1/">
 <title>polizei</title>
 <metadata>
  <rdf:RDF>
   <cc:Work rdf:about="">
    <dc:format>image/svg+xml</dc:format>
    <dc:type rdf:resource="http://purl.org/dc/dcmitype/StillImage"/>
    <dc:title>polizei</dc:title>
   </cc:Work>
  </rdf:RDF>
 </metadata>
 <g fill-rule="evenodd">
  <path d="m289.1 58.451c-24.01 0.506-45.56 23.139-55.04 46.499-6.49 15.02-0.79 24.47-2.06 40.05-12.154-11.077-21.953-19.441-38.152-25.487-21.559-9.3335-48.037-6.1828-67.097 7.2915-14.273 12.466-16.698 32.998-16.268 50.785 2.44 26.17 22.16 39.73 34.52 54.41-18.16-0.11-34.61-1.36-51.142 8.3-18.959 10.05-36.305 29.77-36.068 50.43 0.21 18.29 11.662 33.44 23.876 45.52 22.264 18.31 40.764 10.23 63.334 11.75-11.299 11.891-22.892 23.582-29.374 39.308-9.5972 21.088-6.4823 47.111 6.5286 66.069 10.421 12.961 28.199 16.27 43.977 17.153 18.172 0.6789 36.676-6.2596 48.758-19.966 5.64-5.7 11.07-10.23 17.11-15.56 0.23962 18.886-4.6505 38.059 7.1436 54.643 11.65 18.19 30.77 32.36 50.86 32.36 18.348 0 36.007-14.798 47.572-27.709 15.14-20.1 10.43-59.29 10.43-59.29s23.104 24.415 37.973 30.496c20.705 9.1215 45.93 6.1267 64.882-5.6873 14.122-10.017 17.689-28.383 18.574-44.488 0.77-17.48-5.43-38.32-16.02-48.87-6.03-6.13-12.71-11.98-18.41-18.45 18.381-0.0772 34.235 0.32284 51.934-3.8624 18.89-10.51 35.07-31.34 35.14-51.69 0.06-18.03-10.94-33.31-23.25-45.32-16.01-20.66-46.11-15.31-63.82-15.13 10.697-11.187 21.534-17.764 28.234-32.388 10.622-21.051 7.8311-47.603-4.9028-67.106-9.8124-13.222-27.26-16.82-42.819-17.991-18.75-1.1461-35.826 7.5515-51.003 16.713-5.64 2.91-10.45 8.47-16.51 13.77-0.32-19.07 4.54-33.5-7.45-50.237-4.83-7.757-30.08-36.763-51.45-36.312z" fill="#fff"/>
  <path d="m290.07 87s-29 14.027-29 29v43.5c0 8.1718-6.1403 16.344-13.23 24.516-12.347-0.73761-24.456-1.7134-30.998-8.2558l-30.76-30.76c-10.863-10.863-41.012 0-41.012 0s-10.588 30.424 0 41.012l30.76 30.76c6.4689 6.4689 7.4952 18.379 8.2305 30.582-8.33 7.27-16.66 13.65-24.99 13.65h-43.5c-15.363 0-29 29-29 29s14.027 29 29 29h43.5c8.33 0 16.66 6.3837 24.99 13.646-0.73529 12.203-1.7615 24.113-8.2305 30.582l-30.76 30.76c-10.863 10.863 0 41.012 0 41.012s30.424 10.588 41.012 0l30.76-30.76c6.5425-6.5425 18.651-7.5182 30.998-8.2558 7.0902 8.1718 13.23 16.344 13.23 24.516v43.5c0 15.363 29 29 29 29s29-14.027 29-29v-43.5c0-8.1718 6.1403-16.344 13.23-24.516 12.347 0.73761 24.456 1.7134 30.998 8.2558l30.76 30.76c10.863 10.863 41.012 0 41.012 0s10.588-30.424 0-41.012l-30.76-30.76c-6.4689-6.4689-7.4952-18.379-8.2305-30.582 8.33-7.27 16.66-13.65 24.99-13.65h43.5c15.363 0 29-29 29-29s-14.027-29-29-29h-43.5c-8.33 0-16.66-6.3837-24.99-13.646 0.73529-12.203 1.7615-24.113 8.2305-30.582l30.76-30.76c10.863-10.863 0-41.012 0-41.012s-30.424-10.588-41.012 0l-30.76 30.76c-6.5425 6.5425-18.651 7.5182-30.998 8.2558-7.0902-8.1718-13.23-16.344-13.23-24.516v-43.5c0-15.363-29-29-29-29z" fill="#838383"/>
  <path d="m232.07 232s-1.307 35.337 0 58c1.0034 17.398 11.573 58 29 58 18.535 0 40.454 0.31883 58 0 17.424-0.3166 29-40.573 29-58v-58z" fill="#fff"/>
 </g>
</svg>
