<?xml version="1.0" encoding="UTF-8" standalone="no"?>
<svg
   xmlns:dc="http://purl.org/dc/elements/1.1/"
   xmlns:cc="http://creativecommons.org/ns#"
   xmlns:rdf="http://www.w3.org/1999/02/22-rdf-syntax-ns#"
   xmlns:svg="http://www.w3.org/2000/svg"
   xmlns="http://www.w3.org/2000/svg"
   xmlns:sodipodi="http://sodipodi.sourceforge.net/DTD/sodipodi-0.dtd"
   xmlns:inkscape="http://www.inkscape.org/namespaces/inkscape"
   height="580"
   width="580"
   version="1.0"
   id="svg4220"
   inkscape:version="0.91 r13725"
   sodipodi:docname="interesting_other.svg">
  <defs
     id="defs4232" />
  <sodipodi:namedview
     pagecolor="#ffffff"
     bordercolor="#666666"
     borderopacity="1"
     objecttolerance="10"
     gridtolerance="10"
     guidetolerance="10"
     inkscape:pageopacity="0"
     inkscape:pageshadow="2"
     inkscape:window-width="1387"
     inkscape:window-height="899"
     id="namedview4230"
     showgrid="false"
     inkscape:zoom="1.5021831"
     inkscape:cx="265.98276"
     inkscape:cy="305.20821"
     inkscape:window-x="76"
     inkscape:window-y="2"
     inkscape:window-maximized="0"
     inkscape:current-layer="svg4220" />
  <title
     id="title4222">other</title>
  <metadata
     id="metadata4224">
    <rdf:RDF>
      <cc:Work
         rdf:about="">
        <dc:format>image/svg+xml</dc:format>
        <dc:type
           rdf:resource="http://purl.org/dc/dcmitype/StillImage" />
        <dc:title>other</dc:title>
      </cc:Work>
    </rdf:RDF>
  </metadata>
  <circle
     opacity=".8"
     cx="290"
     cy="290"
     r="145"
     fill="#fff"
     id="circle4226" />
  <circle
     cy="290"
     cx="290"
     r="116"
     fill="#00f"
     id="circle4228"
     style="fill:#cc0000" />
  <path
     style="fill:#d40000;fill-opacity:0"
     d="m 277.6,405.02423 c -35.00115,-3.72233 -67.55184,-24.27125 -86.02215,-54.3049 -37.11279,-60.34724 -11.91214,-139.31651 53.35548,-167.19585 23.65991,-10.10642 51.87848,-11.83774 77,-4.72424 18.59278,5.2648 35.35192,15.24092 49.68922,29.57821 17.39668,17.39668 27.98435,37.64074 32.43787,62.02255 1.45517,7.96664 1.64338,29.86471 0.32087,37.33333 -1.51362,8.54796 -4.19324,18.03054 -7.25295,25.66667 -19.08547,47.63164 -68.22935,77.07983 -119.52834,71.62423 z"
     id="path4234"
     inkscape:connector-curvature="0" />
  <path
     style="fill:#d40000;fill-opacity:0"
     d="m 277.6,405.02423 c -35.00115,-3.72233 -67.55184,-24.27125 -86.02215,-54.3049 -37.11279,-60.34724 -11.91214,-139.31651 53.35548,-167.19585 23.65991,-10.10642 51.87848,-11.83774 77,-4.72424 18.59278,5.2648 35.35192,15.24092 49.68922,29.57821 17.39668,17.39668 27.98435,37.64074 32.43787,62.02255 1.45517,7.96664 1.64338,29.86471 0.32087,37.33333 -1.51362,8.54796 -4.19324,18.03054 -7.25295,25.66667 -19.08547,47.63164 -68.22935,77.07983 -119.52834,71.62423 z"
     id="path4236"
     inkscape:connector-curvature="0" />
  <path
     style="fill:#ff0000;fill-opacity:0"
     d="m 277.6,405.02423 c -35.00115,-3.72233 -67.55184,-24.27125 -86.02215,-54.3049 -37.11279,-60.34724 -11.91214,-139.31651 53.35548,-167.19585 23.65991,-10.10642 51.87848,-11.83774 77,-4.72424 18.59278,5.2648 35.35192,15.24092 49.68922,29.57821 17.39668,17.39668 27.98435,37.64074 32.43787,62.02255 1.45517,7.96664 1.64338,29.86471 0.32087,37.33333 -1.51362,8.54796 -4.19324,18.03054 -7.25295,25.66667 -19.08547,47.63164 -68.22935,77.07983 -119.52834,71.62423 z"
     id="path4238"
     inkscape:connector-curvature="0" />
  <path
     style="fill:#ff0000;fill-opacity:0"
     d="m 277.6,405.02423 c -35.00115,-3.72233 -67.55184,-24.27125 -86.02215,-54.3049 -37.11279,-60.34724 -11.91214,-139.31651 53.35548,-167.19585 23.65991,-10.10642 51.87848,-11.83774 77,-4.72424 18.59278,5.2648 35.35192,15.24092 49.68922,29.57821 17.39668,17.39668 27.98435,37.64074 32.43787,62.02255 1.45517,7.96664 1.64338,29.86471 0.32087,37.33333 -1.51362,8.54796 -4.19324,18.03054 -7.25295,25.66667 -19.08547,47.63164 -68.22935,77.07983 -119.52834,71.62423 z"
     id="path4240"
     inkscape:connector-curvature="0" />
  <path
     style="fill:#ff0000;fill-opacity:0"
     d="m 277.6,405.02423 c -35.00115,-3.72233 -67.55184,-24.27125 -86.02215,-54.3049 -37.11279,-60.34724 -11.91214,-139.31651 53.35548,-167.19585 23.65991,-10.10642 51.87848,-11.83774 77,-4.72424 18.59278,5.2648 35.35192,15.24092 49.68922,29.57821 17.39668,17.39668 27.98435,37.64074 32.43787,62.02255 1.45517,7.96664 1.64338,29.86471 0.32087,37.33333 -1.51362,8.54796 -4.19324,18.03054 -7.25295,25.66667 -19.08547,47.63164 -68.22935,77.07983 -119.52834,71.62423 z"
     id="path4242"
     inkscape:connector-curvature="0" />
  <path
     style="fill:#ff0000;fill-opacity:0"
     d="m 277.6,405.02423 c -35.00115,-3.72233 -67.55184,-24.27125 -86.02215,-54.3049 -37.11279,-60.34724 -11.91214,-139.31651 53.35548,-167.19585 23.65991,-10.10642 51.87848,-11.83774 77,-4.72424 18.59278,5.2648 35.35192,15.24092 49.68922,29.57821 17.39668,17.39668 27.98435,37.64074 32.43787,62.02255 1.45517,7.96664 1.64338,29.86471 0.32087,37.33333 -1.51362,8.54796 -4.19324,18.03054 -7.25295,25.66667 -19.08547,47.63164 -68.22935,77.07983 -119.52834,71.62423 z"
     id="path4244"
     inkscape:connector-curvature="0" />
  <path
     style="fill:#ff0000;fill-opacity:0"
     d="m 277.6,405.02423 c -35.00115,-3.72233 -67.55184,-24.27125 -86.02215,-54.3049 -37.11279,-60.34724 -11.91214,-139.31651 53.35548,-167.19585 23.65991,-10.10642 51.87848,-11.83774 77,-4.72424 18.59278,5.2648 35.35192,15.24092 49.68922,29.57821 17.39668,17.39668 27.98435,37.64074 32.43787,62.02255 1.45517,7.96664 1.64338,29.86471 0.32087,37.33333 -1.51362,8.54796 -4.19324,18.03054 -7.25295,25.66667 -19.08547,47.63164 -68.22935,77.07983 -119.52834,71.62423 z"
     id="path4246"
     inkscape:connector-curvature="0" />
  <path
     style="fill:#ff0000;fill-opacity:0"
     d="m 277.6,405.02423 c -35.00115,-3.72233 -67.55184,-24.27125 -86.02215,-54.3049 -37.11279,-60.34724 -11.91214,-139.31651 53.35548,-167.19585 23.65991,-10.10642 51.87848,-11.83774 77,-4.72424 18.59278,5.2648 35.35192,15.24092 49.68922,29.57821 17.39668,17.39668 27.98435,37.64074 32.43787,62.02255 1.45517,7.96664 1.64338,29.86471 0.32087,37.33333 -1.51362,8.54796 -4.19324,18.03054 -7.25295,25.66667 -19.08547,47.63164 -68.22935,77.07983 -119.52834,71.62423 z"
     id="path4248"
     inkscape:connector-curvature="0" />
  <path
     style="fill:#ff0000;fill-opacity:0"
     d="m 277.6,405.02423 c -35.00115,-3.72233 -67.55184,-24.27125 -86.02215,-54.3049 -37.11279,-60.34724 -11.91214,-139.31651 53.35548,-167.19585 23.65991,-10.10642 51.87848,-11.83774 77,-4.72424 18.59278,5.2648 35.35192,15.24092 49.68922,29.57821 17.39668,17.39668 27.98435,37.64074 32.43787,62.02255 1.45517,7.96664 1.64338,29.86471 0.32087,37.33333 -1.51362,8.54796 -4.19324,18.03054 -7.25295,25.66667 -19.08547,47.63164 -68.22935,77.07983 -119.52834,71.62423 z"
     id="path4250"
     inkscape:connector-curvature="0" />
  <path
     style="fill:#ff0000;fill-opacity:0"
     d="m 277.6,405.02423 c -35.00115,-3.72233 -67.55184,-24.27125 -86.02215,-54.3049 -37.11279,-60.34724 -11.91214,-139.31651 53.35548,-167.19585 23.65991,-10.10642 51.87848,-11.83774 77,-4.72424 18.59278,5.2648 35.35192,15.24092 49.68922,29.57821 17.39668,17.39668 27.98435,37.64074 32.43787,62.02255 1.45517,7.96664 1.64338,29.86471 0.32087,37.33333 -1.51362,8.54796 -4.19324,18.03054 -7.25295,25.66667 -19.08547,47.63164 -68.22935,77.07983 -119.52834,71.62423 z"
     id="path4252"
     inkscape:connector-curvature="0" />
  <path
     style="fill:#ff0000;fill-opacity:0"
     d="m 277.6,405.02423 c -35.00115,-3.72233 -67.55184,-24.27125 -86.02215,-54.3049 -37.11279,-60.34724 -11.91214,-139.31651 53.35548,-167.19585 23.65991,-10.10642 51.87848,-11.83774 77,-4.72424 18.59278,5.2648 35.35192,15.24092 49.68922,29.57821 17.39668,17.39668 27.98435,37.64074 32.43787,62.02255 1.45517,7.96664 1.64338,29.86471 0.32087,37.33333 -1.51362,8.54796 -4.19324,18.03054 -7.25295,25.66667 -19.08547,47.63164 -68.22935,77.07983 -119.52834,71.62423 z"
     id="path4254"
     inkscape:connector-curvature="0" />
  <path
     style="fill:#ff2a2a;fill-opacity:0"
     d="m 277.6,405.02423 c -35.00115,-3.72233 -67.55184,-24.27125 -86.02215,-54.3049 -37.11279,-60.34724 -11.91214,-139.31651 53.35548,-167.19585 23.65991,-10.10642 51.87848,-11.83774 77,-4.72424 18.59278,5.2648 35.35192,15.24092 49.68922,29.57821 17.39668,17.39668 27.98435,37.64074 32.43787,62.02255 1.45517,7.96664 1.64338,29.86471 0.32087,37.33333 -1.51362,8.54796 -4.19324,18.03054 -7.25295,25.66667 -19.08547,47.63164 -68.22935,77.07983 -119.52834,71.62423 z"
     id="path4256"
     inkscape:connector-curvature="0" />
</svg>
