<?xml version="1.0" encoding="UTF-8" standalone="no"?>
<svg xmlns:rdf="http://www.w3.org/1999/02/22-rdf-syntax-ns#" xmlns="http://www.w3.org/2000/svg" height="580" width="580" version="1.0" xmlns:cc="http://creativecommons.org/ns#" xmlns:dc="http://purl.org/dc/elements/1.1/">
 <title>recycling</title>
 <metadata>
  <rdf:RDF>
   <cc:Work rdf:about="">
    <dc:format>image/svg+xml</dc:format>
    <dc:type rdf:resource="http://purl.org/dc/dcmitype/StillImage"/>
    <dc:title>recycling</dc:title>
   </cc:Work>
  </rdf:RDF>
 </metadata>
 <path fill="#734a08" d="m234 326l-49.8-87h-100l40.7 23.6-25 43c-2.2 3.9-3.2 8-3.2 12.3s1.1 8.4 3.2 12.3l39.6 69c1.8-5 3.6-9.3 5.4-12.9l49-85 40 23.6m-74 70c-2.9 4.6-4.3 9.6-4.3 15 0 8.2 2.9 15.2 8.8 20.9s12.9 8.6 21 8.6h99v-80h-104c-0.7 1.4-3.4 6.1-8 13.9l-12.3 21.4m133-198h100l50-87-40.7 23.6-25-43c-5.4-7.3-12.4-11.3-21.4-11.3h-79c3.2 3.6 5.9 7.1 8 10.7l48.7 85-8 4.8-32 18.7m-49.7-115.2c-11.4 0-20 5-25.7 15l-49.8 86c18.9 11 41.9 24.3 69 39.6 16-27.5 33.4-57 51.9-90l-19.4-35.6c-5.7-10-14.3-15-25.7-15m128 276v-9.6-36.9l-49.8 87 49.8 86v-46.6h49.8c9.6 0 16.9-4.1 21.9-12.3l39.6-69c-5.4 1.4-9.8 2.1-13.4 2.1l-98-0.5m73.9-147c-1.8 1.1-24.8 14.3-69 39.6 22 38 39.6 68 53 91h40c11.8 0 20.5-5 26-15 5.4-9.6 5.2-19.4-0.5-29.4l-49-86"/>
</svg>
