<?xml version="1.0" encoding="UTF-8" standalone="no"?>
<svg xmlns:rdf="http://www.w3.org/1999/02/22-rdf-syntax-ns#" xmlns="http://www.w3.org/2000/svg" height="580" width="580" version="1.0" xmlns:cc="http://creativecommons.org/ns#" xmlns:dc="http://purl.org/dc/elements/1.1/">
 <title>garden_centre</title>
 <metadata>
  <rdf:RDF>
   <cc:Work rdf:about="">
    <dc:format>image/svg+xml</dc:format>
    <dc:type rdf:resource="http://purl.org/dc/dcmitype/StillImage"/>
    <dc:title>garden_centre</dc:title>
   </cc:Work>
  </rdf:RDF>
 </metadata>
 <path opacity=".8" d="m371.41 85.643c-63.898-0.59985-125.89 47.307-138.1 110.62-6.5538 28.456-4.4942 58.218 1.6894 86.543-5.4048-3.3449-11.183-6.2009-16.004-10.402-0.41018-20.227 2.542-42.632-8.4963-60.734-10.699-12.444-19.912-26.907-31.781-38.12-24.498-4.3891-48.103 9.7921-64.2 27.132-25.643 26.127-51.18 56.13-57.411 93.407-2.0585 16.306 11.542 30.191 25.914 35.404 15.895 9.6945 33.707 22.132 53.365 17.994 8.3953-1.5388 16.808-2.9794 25.215-4.4531 47.64 60 95.28 119.98 142.92 179.97h167.59c15.72-91.61 39.62-181.96 50.71-274.4-1.05-45.98-14.5-94.35-48.39-127.11-27.38-25.806-66.11-36.309-103.03-35.847zm11.736 100.9c21.947 0.78092 41.468 23.438 40.525 45.461h-93.998c-1.7409-14.184 1.2377-33.815 15.744-40.123 11.737-5.4871 25.09-5.0408 37.729-5.3379z" fill="#fff"/>
 <path d="m377 116c-57.966-1.9778-130.11 40.342-116 145l21.762 87-93.121-58-1.2885-58-23.19-29c-20.16 0-78.16 68.27-78.16 94.24l37.87 21.76 49.13-8.6 145 182.6h128.24l45.76-232c0-145-96.084-144.32-116-145zm0 40.561c58 0.55679 87 46.439 73.399 104.44h-145.44c-14.96-58-1.6-104.44 72.04-104.44z" fill="#00f"/>
</svg>
