<?xml version="1.0" encoding="UTF-8" standalone="no"?>
<svg xmlns:rdf="http://www.w3.org/1999/02/22-rdf-syntax-ns#" xmlns="http://www.w3.org/2000/svg" height="580" width="580" version="1.0" xmlns:cc="http://creativecommons.org/ns#" xmlns:dc="http://purl.org/dc/elements/1.1/">
 <title>tobacco</title>
 <metadata>
  <rdf:RDF>
   <cc:Work rdf:about="">
    <dc:format>image/svg+xml</dc:format>
    <dc:type rdf:resource="http://purl.org/dc/dcmitype/StillImage"/>
    <dc:title>tobacco</dc:title>
   </cc:Work>
  </rdf:RDF>
 </metadata>
 <path opacity=".8" fill="#fff" d="m326.09 41.054c-49.586-0.26004-93.8 49.25-88.744 98.836 3.1768 34.134 26.967 65.838 59.453 77.297 2.8636 40.896 39.551 73.288 80.201 68.813h58v33h-377v116h493v-149c0-65-62.546-126.93-107.95-122.28 2.79-48.44-33-100.28-91.71-101.87-8.4644-10.981-12.061-20.534-25.254-20.795z"/>
 <g fill="#00f">
  <path d="m87 348h348v58h-348z"/>
  <path d="m464 348h20.5v58h-20.5z"/>
  <path d="m371.88 256.58c-27.499 0-49.89-22.272-49.89-49.771 0-5.2265 0.83149-10.215 2.3163-14.967-34.091-0.59392-61.471-28.449-61.471-62.659 0-34.448 27.617-62.303 61.946-62.778v18.115c-24.351 0.35636-43.95 20.193-43.95 44.663 0 24.588 20.075 44.663 44.663 44.663 3.1478 0 6.058-0.35635 8.9088-0.95028 0.8315-0.23757 1.7224-0.35635 2.5539-0.35635 5.8204 0 10.572 4.7514 10.572 10.572 0 2.1975-0.71271 4.1575-1.8412 5.9392-3.3854 5.1077-5.4641 11.166-5.4641 17.758 0 17.402 14.135 31.656 31.656 31.656h65.45c24.826 0 44.782 20.075 44.782 44.782l0.11 35.76h-18.23v-35.695c0-14.729-11.938-26.667-26.667-26.667h-65.45z"/>
  <path d="m391.99 187.33c6.7113-8.6713 10.691-19.481 10.691-31.3 0-28.508-23.104-51.612-51.612-51.612h-4.0387v-18.233h4.0387c38.486 0 69.845 31.3 69.845 69.845 0 10.334-2.3163 20.193-6.355 28.983l12.769-0.11879c52.325 0 94.671 42.466 94.671 94.671v39.437h-18.233v-39.437c0-42.228-34.21-76.438-76.438-76.438h-26.727c-5.5829 0-10.215-4.6326-10.215-10.334 0-2.0787 0.71271-3.8011 1.6036-5.4641z"/>
  <path d="m501.5 348h20.5v58h-20.5z"/>
 </g>
</svg>
