<?xml version="1.0" encoding="UTF-8" standalone="no"?>
<svg xmlns:rdf="http://www.w3.org/1999/02/22-rdf-syntax-ns#" xmlns="http://www.w3.org/2000/svg" height="580" width="580" version="1.0" xmlns:cc="http://creativecommons.org/ns#" xmlns:dc="http://purl.org/dc/elements/1.1/">
 <title>hairdresser</title>
 <metadata>
  <rdf:RDF>
   <cc:Work rdf:about="">
    <dc:format>image/svg+xml</dc:format>
    <dc:type rdf:resource="http://purl.org/dc/dcmitype/StillImage"/>
    <dc:title>hairdresser</dc:title>
   </cc:Work>
  </rdf:RDF>
 </metadata>
 <path opacity=".8" d="m478.47 56.877c-19.043 0.97114-41.378-3.3753-57.508 9.8223-6.23 5.005-12.36 12.752-14.96 20.301h-116v-29h-116v261c-50.06-7.26-104.48 27.88-114.65 77.93-12.045 48.21 16.331 103.71 63.91 119.74 36.68 14.02 81.78 4.95 108.74-23.67 34.054 35.417 95.184 40.889 133.91 9.832 19.749-14.92 34.764-37.242 40.092-61.342 0.5182 18.677-0.39287 37.583 2.6777 55.986 8.06 19.03 34.19 24.52 55.32 24.52 19.131-0.45962 36.504 0.72442 49.525-15.043 12.952-17.286 8.0864-40.218 8.4746-60.311l-0.82-359.65c-4.19-19.139-23.47-30.754-42.71-30.123zm-72.47 291.12c0.13516 16.345 0.21912 33.354 0 49.697-4.18-18.53-15.75-36.19-29-49.7z" fill-rule="evenodd" fill="#fff"/>
 <path fill="#00f" d="m202.83 86.883v276.57c-12.18-9.25-27.14-15.41-43.53-15.41-39.89 0-72.536 32.65-72.536 72.54s32.646 72.54 72.536 72.54c34.91 0 63.94-25.06 70.73-58.03h3.63c6.79 32.97 35.82 58.03 70.73 58.03 39.89 0 72.54-32.65 72.54-72.54s-32.65-72.54-72.54-72.54c-16.38 0-31.35 6.16-43.53 15.41v-276.57l-58.03 0.003zm261.17 0.105c-29 0-29 0-29 29.002l-116 0.01-0.1 28.92h116.07v29.01h-116.07v29.02h116.07v29.02h-116.07v29.01h116.07v29.02h-116.07v29.02h116.07l0.03 144.97c0 29 0 29 29 29s29 0 29-29v-348c0-29.002 0-29.002-29-29.002zm-304.69 290.06c24.21 0 43.53 19.31 43.53 43.52s-19.32 43.53-43.53 43.53-43.52-19.32-43.52-43.53 19.31-43.52 43.52-43.52zm145.08 0c24.21 0 43.52 19.31 43.52 43.52s-19.31 43.53-43.52 43.53-43.52-19.32-43.52-43.53 19.31-43.52 43.52-43.52z"/>
</svg>
