<?xml version="1.0" encoding="UTF-8" standalone="no"?>
<svg xmlns:rdf="http://www.w3.org/1999/02/22-rdf-syntax-ns#" xmlns="http://www.w3.org/2000/svg" height="580" width="580" version="1.0" xmlns:cc="http://creativecommons.org/ns#" xmlns:dc="http://purl.org/dc/elements/1.1/">
 <title>car</title>
 <metadata>
  <rdf:RDF>
   <cc:Work rdf:about="">
    <dc:format>image/svg+xml</dc:format>
    <dc:type rdf:resource="http://purl.org/dc/dcmitype/StillImage"/>
    <dc:title>car</dc:title>
   </cc:Work>
  </rdf:RDF>
 </metadata>
 <path opacity=".8" fill="#fff" d="m379.08 111h-201.59c-26.373 7.2985-44.352 32.681-52.041 57.902-8.4658 20.903-14.616 42.894-25.69 62.58-27.785 13.393-45.895 44.624-42.708 75.464l0.95 99.06c0 16.74 10.846 29 29 29 0 29 15.47 65.934 57.295 66.01 41.82 0.08 58.7-37.01 58.7-66.01h174c0 29 17.394 66.021 58.716 66.021 41.32 0 57.28-37.02 57.28-66.02 17.363 0 29-9.9883 29-29l0.77857-103.93c-0.03-32.5-17.08-58.11-44.07-70.72-14.88-34.88-22.64-74.16-47.83-103.68-13.9-12.82-33.03-16.92-51.8-16.67zm-8.982 86.5 8.7 27.5h-177l11.7-27.5z" fill-rule="evenodd"/>
 <path fill="#00f" d="m430.4 286.5c15.651-0.00003 28.309 12.761 28.309 28.54s-12.658 28.595-28.309 28.595c-15.651 0.00002-28.364-12.816-28.364-28.595s12.712-28.54 28.364-28.54zm-278.39 0c15.651 0.00003 28.364 12.761 28.364 28.54s-12.712 28.595-28.364 28.595c-15.651 0-28.364-12.816-28.364-28.595s12.712-28.54 28.364-28.54zm58.99-118.5h159c14.45-0.33989 20.209 2.1854 26.354 15.959l25.65 71.04h-263l25.47-69.55c7.86-13.06 14.12-17.95 26.53-17.45zm-8-29c-18.201-0.64917-33.885 5.2882-43.557 26.612l-35.44 89.39c-25.444 7.0723-35.999 24.472-36.586 39.76l-0.414 111.24h29v29c0 47.595 58 48.64 58 0v-29h232v29c0 48.031 58 48.337 58 0v-29h29l0.41378-111.24c-0.58-15.29-11.97-32.69-37.41-39.76l-34.62-89.39c-9.67-21.32-25.35-27.26-43.55-26.61z"/>
</svg>
