<?xml version="1.0" encoding="UTF-8" standalone="no"?>
<svg xmlns:rdf="http://www.w3.org/1999/02/22-rdf-syntax-ns#" xmlns="http://www.w3.org/2000/svg" height="580" width="580" version="1.0" xmlns:cc="http://creativecommons.org/ns#" xmlns:dc="http://purl.org/dc/elements/1.1/">
 <title>department_store</title>
 <metadata>
  <rdf:RDF>
   <cc:Work rdf:about="">
    <dc:format>image/svg+xml</dc:format>
    <dc:type rdf:resource="http://purl.org/dc/dcmitype/StillImage"/>
    <dc:title>department_store</dc:title>
   </cc:Work>
  </rdf:RDF>
 </metadata>
 <path opacity=".8" d="m43.5 217.5c-29 29-14.5 101.5 43.5 87v188.5c0 29 0 58 29 58h348c29 0 29-29 29-58v-188.5c58 14.5 72.5-58 43.5-87l-246.5-188.5z" fill-rule="evenodd" fill="#fff"/>
 <path stroke-linejoin="round" d="m130.5 217.5v290h319v-290l-159.5-130.5z" fill-rule="evenodd" stroke="#00f" stroke-linecap="round" stroke-width="29" fill="#00f"/>
 <path stroke-linejoin="round" d="m72.5 261 217.5-174 217.5 174" stroke="#00f" stroke-linecap="round" stroke-width="29" fill="none"/>
 <path d="m217.31 246.94-54.516 36.344 18.172 60.876 36.344-24.532v145.38h145.38v-145.38l36.344 24.532 18.172-60.876-54.516-36.344h-36.344c0 18.172-18.172 36.344-36.344 36.344s-36.344-18.172-36.344-36.344z" fill="#fff"/>
</svg>
