<?xml version="1.0" encoding="UTF-8" standalone="no"?>
<svg xmlns:rdf="http://www.w3.org/1999/02/22-rdf-syntax-ns#" xmlns="http://www.w3.org/2000/svg" height="580" width="580" version="1.0" xmlns:cc="http://creativecommons.org/ns#" xmlns:dc="http://purl.org/dc/elements/1.1/">
 <title>florist</title>
 <metadata>
  <rdf:RDF>
   <cc:Work rdf:about="">
    <dc:format>image/svg+xml</dc:format>
    <dc:type rdf:resource="http://purl.org/dc/dcmitype/StillImage"/>
    <dc:title>florist</dc:title>
   </cc:Work>
  </rdf:RDF>
 </metadata>
 <path opacity=".8" d="m271.58 46.582c-18.94 17.769-36.1 37.652-49.3 60.098-13.13-21.237-31.04-42.53-56.25-48.926-16.963-3.1132-34.494 2.2562-48.66 11.592 20.557 33.031 20.119 73.124 21.622 110.64 1.2763 33.262 4.6413 69.184 25.947 96.327 14.496 17.972 34.968 30.896 57.245 36.812l0.11328 26.275c-33.501-30.961-78.442-49.603-124-50.867-52.765 13.372-21.534 43.347-4.6348 63.649 22.528 19.729 29.782 50.019 37.371 77.614 6.9971 27.689 19.192 56.025 42.87 73.407 24.025 17.594 54.991 20.976 83.939 19.951 33.463-0.7988 68.822 3.4731 100.31-10.668 30.342-13.283 48.619-44.149 57.01-74.979 8.0663-29.59 14.572-62.33 37.736-84.28 23.63-14.36 37.67-48.93 11.1-63.22-55.03 0.37101-105.71 17.106-138.22 48.418l0.4043-25.307c36.635-9.6636 68.377-39.68 75.82-77.439 13.175-49.442 0.47969-102.88 20.453-150.81 3.4339-12.362 1.7882-10.746-1.8613-20.699-26.25-15.691-62.35-4.249-78.89 20.344-5.74 7.138-11.03 14.632-15.92 22.366-13.79-23.445-31.41-44.838-52.93-61.585l-0.69898 0.71514z" fill="#fff"/>
 <path d="m158 87c27.388 82.163-22.219 186.57 94.25 201.2v161.3c0-42.51-65.33-130.5-152.25-130.5 87 58 29 174 145 174h58c116 0 58-116 145-174-86.92 0-152.25 85.405-152.25 130.5v-161.3c116.1-14.14 66.86-119.04 94.25-201.2-29 0-65.25 87-65.25 87s-21.75-58-50.75-87c-29 29-50.75 87-50.75 87s-36.25-87-65.25-87z" fill="#00f"/>
</svg>
