<?xml version="1.0" encoding="UTF-8" standalone="no"?>
<svg xmlns:rdf="http://www.w3.org/1999/02/22-rdf-syntax-ns#" xmlns="http://www.w3.org/2000/svg" height="580" width="580" version="1.0" xmlns:cc="http://creativecommons.org/ns#" xmlns:dc="http://purl.org/dc/elements/1.1/">
 <title>travel_agency</title>
 <metadata>
  <rdf:RDF>
   <cc:Work rdf:about="">
    <dc:format>image/svg+xml</dc:format>
    <dc:type rdf:resource="http://purl.org/dc/dcmitype/StillImage"/>
    <dc:title>travel_agency</dc:title>
   </cc:Work>
  </rdf:RDF>
 </metadata>
 <path opacity=".8" d="m456.06 40.414c-19.99-0.379-39.23 6.158-55.08 17.586h-139.98v87h29l-35.482 17.137 15.3 40.86h-95.82c-58 0-58 13.463-58 58v29c-58 0-58 13.395-58 58v116c0 58 12.235 58 58 58h203c46.058 0 58 0 58-58-0.22583-30.078-0.49314-85.941 0-116 0-21.11 6.3407-33.039-15.68-49.854 11.907 7.812 23.816 15.623 35.723 23.436l37.96-60.59v58h87v-133.05c29.63-33.14 28.95-89.129-4.05-119.4-16.17-16.285-38.83-26.352-61.89-26.136zm-125.45 227.39c-1.0276 13.187 28.088 28.429 23.184 25.754-10.507-5.4627-22.631-5.6278-34.104-4.3808 0.89126-18.987 1.7306-38.399-2.8106-57.043l46.32-18.594c-11.535 19.407-31.441 43.664-32.59 54.264z" fill="#fff"/>
 <path fill="#00f" d="m456.08 70.809c-32.03 0-58 26.048-58 58.181 0 32.13 25.97 58.18 58 58.18 32.04 0 58-26.05 58-58.18l-1.74-14.17c-6.48-25.873-29.66-44.011-56.26-44.011zm-166.08 16.191v29h87v-29h-87zm85.19 57.82l-81.56 33.63 10.87 26.37 81.56-32.73-10.87-27.27zm37.15 48.18l-47.12 71.82 23.56 15.45 48.03-70.91-24.47-16.36zm51.66 10v87h29v-87h-29zm-290 29c-29 0-29 0-29 29v58h-29c-29 0-29 0-29 29v116c0 29 0 29 29 29h203c29 0 29 0 29-29v-116c0-29 0-29-29-29h-29v-58c0-29 0-29-29-29h-87zm0 29h87v58h-87v-58z"/>
</svg>
