<?xml version="1.0" encoding="UTF-8" standalone="no"?>
<svg xmlns:rdf="http://www.w3.org/1999/02/22-rdf-syntax-ns#" xmlns="http://www.w3.org/2000/svg" height="580" width="580" version="1.0" xmlns:cc="http://creativecommons.org/ns#" xmlns:dc="http://purl.org/dc/elements/1.1/">
 <title>motorcycle</title>
 <metadata>
  <rdf:RDF>
   <cc:Work rdf:about="">
    <dc:format>image/svg+xml</dc:format>
    <dc:type rdf:resource="http://purl.org/dc/dcmitype/StillImage"/>
    <dc:title>motorcycle</dc:title>
   </cc:Work>
  </rdf:RDF>
 </metadata>
 <path opacity=".8" d="m289.77 73.887c-39.057 0.0283-73.065 37.362-69.959 76.217 0.15974 7.8986 1.5593 15.785 4.2458 23.219-22.588 27.865-43.292 57.176-64.096 86.377-23.369 0.45338-47.334-2.5943-70.215 3.4492-22.899 14.04-27.553 48.32-11.942 69.41-39.879 23.84-61.222 76.84-44.525 121 15.74 46.616 68.323 78.897 116.97 67.619 32.64-6.5527 61.41-29.758 74.775-60.242 41.807-1.2745 85.763 2.2727 125.02-15.082 11.849 47.42 61.33 83.409 110.36 76.925 50.484-5.1947 94.125-52.358 91.812-103.72-0.66468-41.031-27.985-80.629-66.647-94.84 11.614-24.768 12.434-56.912-5.6836-78.863-19.42-24.257-50.66-33.202-78.705-43.252-8.3618-3.2399-17.342-8.6229-26.484-7.0508-2.0703 1.6929-4.0829-2.3262-6.1914-2.832-5.4326-3.0212-1.9124-9.6298-2.9814-14.471-0.67006-14.354 1.5326-28.675 0.55952-42.947-5.0455-35.963-40.428-63.203-76.322-60.912z" fill-rule="evenodd" fill="#fff"/>
 <g fill="#00f" fill-rule="evenodd">
  <path d="m348.51 406.17c10.967-57.72 52.305-86.773 106.11-87.374 33.038-63.803-26.933-73.801-67.927-90.195-2.6041 29.659-1.0084 60.486-47.916 77.794-1.883-9.1756-5.7305-16.67-18.039-16.912l-69.337 0.41726-49.043-38.33c-7.9255 12.605-23.652 28.753-23.676 37.766l-74.41 0.41726c-5.4187 4.6149-10.015 16.861 0.84579 29.033 44.575-1.377 133.95 12.7 125.64 111.9 20.648-1.0317 109.11 4.312 117.75-24.514z"/>
  <path d="m335.72 186.44-0.19945-26.283-29.43-4.0057v-20.855l30.028 4.9904c-2.2083-18.793-14.29-32.379-40.903-36.314-16.711 1.1683-34.235 2.0863-44.203 33.343-2.9214 12.397-1.1005 24.944 6.5994 35.747 24.925-13.665 43.581-4.3353 60.599 10.995l17.509 2.3784z"/>
  <path d="m386.98 243.26-87.657-66.236c-11.782-6.2839-24.776-7.4815-40.305 1.9611-13.275 12.059-35.7 45.469-53.553 68.21l49.889 37.345 47.916-66.662 75.819 58.066c5.8362-10.19 7.2018-22.144 7.892-32.697z"/>
 </g>
 <path stroke-linejoin="round" d="m72.5 420.5c-0.005 32.03 25.964 58 58 58s58.005-25.968 58-58c0.005-32.032-25.964-58-58-58s-58.005 25.968-58 58v0z" stroke="#00f" stroke-linecap="round" stroke-width="29" fill="none"/>
 <path stroke-linejoin="round" d="m391.5 420.5c-0.005 32.032 25.964 58 58 58s58.005-25.968 58-58c0.005-32.032-25.964-58-58-58s-58.005 25.968-58 58v0z" stroke="#00f" stroke-linecap="round" stroke-width="29" fill="none"/>
</svg>
