<?xml version="1.0" encoding="UTF-8" standalone="no"?>
<svg xmlns:rdf="http://www.w3.org/1999/02/22-rdf-syntax-ns#" xmlns="http://www.w3.org/2000/svg" height="580" width="580" version="1.0" xmlns:cc="http://creativecommons.org/ns#" xmlns:dc="http://purl.org/dc/elements/1.1/">
 <title>pet</title>
 <metadata>
  <rdf:RDF>
   <cc:Work rdf:about="">
    <dc:format>image/svg+xml</dc:format>
    <dc:type rdf:resource="http://purl.org/dc/dcmitype/StillImage"/>
    <dc:title>pet</dc:title>
   </cc:Work>
  </rdf:RDF>
 </metadata>
 <path opacity=".8" d="m310.46 39.449c-37.95 1.0747-70.463 29.792-84.142 63.974-4.041 8.2599-6.8502 17.612-9.1353 26.138-19.738-21.354-53.761-30.749-80.283-16.711-27.953 14.158-43.46 44.685-49.281 74.305-7.1257 37.645 4.1676 80.561 35.096 104.78 4.5277 1.5431-3.1191 3.6568-4.3398 5.5449-23.023 16.849-45.346 38.569-52.595 67.1-7.3547 36.805 19.623 76.391 56.529 83.148 26.595 7.9714 57.332 6.1555 79.757 24.64 21.869 20.314 33.59 51.263 61.21 65.387 33.847 18.924 81.521-0.20425 93.871-36.731 8.5204-22.119 10.055-46.439 10.412-69.744 31 14.963 68.555 6.9784 96.123-11.736 31.897-20.849 55.519-58.069 52.227-97.094-2.9404-26.164-22.933-50.798-49.459-55.402 25.861-26.828 42.138-66.059 33.305-103.37-6.4943-25.521-28.802-47.248-55.598-49.48-22.227-3.0986-44.912 3.5637-63.916 14.967 0.97888-30.675-10.81-64.136-37.756-81.035-9.6037-5.7476-20.79-9.0448-32.023-8.6816z" fill="#fff"/>
 <path d="m454.6 146.14c-33.051-15.026-70.985 8.294-90.927 36.377-19.394 23.963-28.064 64.218-4.2068 86.769 22.533 16.455 54.941 5.4846 75.565-11.171 25.265-21.18 47-56.687 36.744-90.118-2.9636-9.0958-8.9543-17.143-17.176-21.857zm-126.9-74.454c-26.832-13.613-57.993 8.3354-70.64 33.397-19.078 32.206-23.178 78.872 4.3566 105.81 22.393 17.005 53.65 1.213 68.506-20.103 23.514-32.153 33.235-82.395 5.3052-113.18-2.2096-2.3283-4.7406-4.3457-7.5276-5.9248zm144.62 227.33c-36.019-18.232-79.96 5.4029-101.45 37.722-14.835 20.544-17.233 56.163 7.1996 68.836 37.443 17.452 82.273-9.006 101.91-43.617 11.586-19.757 12.619-49.624-7.6575-62.941zm-341.16-144.23c-25.348 34.889-24.629 91.999 11.396 116.84 23.592 12.134 50.139-7.7706 60.082-30.175 16.434-31.997 14.825-75.858-9.412-96.048s-50.721-10.421-62.066 9.3874zm158.72 138.3c-35.126-21.038-81.011-17.396-116.84 3.3193-28.326 14.546-55.873 33.735-74.783 60.099-12.371 21.664-2.686 51.721 20.321 59.769 31.441 13.765 69.689 9.1967 97.731 31.242 23.991 17.18 33.014 49.231 58.631 64.26 24.149 15.796 55.441-3.9384 59.365-31.785 8.97-37.854 5.9322-77.299-0.19861-114.87-5.7974-28.462-18.319-57.55-44.229-72.037z" fill="#00f"/>
</svg>
