<?xml version="1.0" encoding="UTF-8" standalone="no"?>
<svg xmlns:rdf="http://www.w3.org/1999/02/22-rdf-syntax-ns#" xmlns="http://www.w3.org/2000/svg" height="580" width="580" version="1.0" xmlns:cc="http://creativecommons.org/ns#" xmlns:dc="http://purl.org/dc/elements/1.1/">
 <title>doityourself</title>
 <metadata>
  <rdf:RDF>
   <cc:Work rdf:about="">
    <dc:format>image/svg+xml</dc:format>
    <dc:type rdf:resource="http://purl.org/dc/dcmitype/StillImage"/>
    <dc:title>doityourself</dc:title>
   </cc:Work>
  </rdf:RDF>
 </metadata>
 <g>
  <path opacity=".8" d="m434.04 28.705c-0.92 0.007-1.83 0.033-2.75 0.078-25.63 0.256-51.21 17.853-58.78 42.44-4.82-12.337-14.06-22.824-26.96-27.18-16.32-6.118-35.73-3.503-49.62 7.117-23.28-8.145-47.99-12.315-72.67-11.117-19.25-0.331-38.51-0.139-57.76-0.674-49.3 2.185-93.531 34.463-117.72 76.381-11.618 13.9-14.95 37.72-0.274 50.74 15.761 13.2 41.595 5.17 50.41-12.4 14.204-12.37 34.934-17.79 53.044-12.75 5.82 6.75 8.34 16.4 15.68 22.11-1.2 30.35 0.55 61.03-1.52 91.18-16.26 15.79-16.98 40.29-15.52 61.45-1.26 64.18-6.25 128.41-3.58 192.63 7.16 24.21 34.88 37.84 58.91 33.51 22.98 1.5 49.19 2.34 67.83-13.56 17.22-15.01 18.8-40.13 16-61.3-1.71-64.09-0.15-128.33-5.12-192.3-2.51-7.48-6.87-14.36-12.64-19.75 0.48-29.4 0.01-59.2 1.17-88.34 5.19-3.23 8.81-8.3 13.48-12.16 17.56 27.05 63.45 28.97 81.34 1.27 2.56-3.73 4.41-7.67 5.75-11.75l8.15 223.94-55.51 36.99 27.95 139.55 163.35-0.01 27.94-139.54-55.55-37.01 9.92-292.04c-5.21-29.726-36.41-47.731-64.95-47.505z" fill-rule="evenodd" fill="#fff"/>
  <path d="m435 421.85 34.786 17.393v69.572h17.393l17.393-86.964-52.18-34.78 11.61-300.07c0-29-58-29-58 0l11.607 300.07-52.179 34.786 17.393 86.964h17.393v-69.572z" fill-rule="evenodd" stroke="#00f" stroke-width="11.995" fill="#00f"/>
  <path d="m66.405 143.79 2.3706-1.5155c15.387-30.037 96.063-50.463 110.83-12.569 1.2169 7.0302 9.0181 13.992 17.102 15.244l-1.1305 127.13c-7.121-0.0648-15.032 7.8559-15.25 14.976l-6.0997 205.93c-0.55498 18.772 14.786 19.194 22.956 19.345l37.706 0.34291c8.2227 0.0492 24.691-5.1551 24.375-21.092l-3.5009-203.77c-0.11478-7.097-7.8305-15.006-14.899-15.173 0 0-0.0249-0.0771-0.0508-0.0517l1.17-127.58c12.814-0.54952 19.754-6.3245 24.207-13.972 8.6012-14.77 26.458-9.7004 41.754-8.2021l-0.10807 6.2496c-0.034 9.3756 8.2739 16.957 18.725 17.052s18.921-7.3594 19.006-16.683l0.40463-41.676c0.034-9.3756-8.2739-16.957-18.725-17.001-9.4518-0.11157-16.962 6.0451-18.42 14.178-30.31-2.022-25.12-11.889-64.83-14.274l-71.41-1.418c-50.39 0.028-83.708 32.801-106.2 74.531z" fill="#00f"/>
  <path d="m449.5 101.5a14.5 14.5 0 0 1 -14.5 14.5 14.5 14.5 0 0 1 -14.5 -14.5 14.5 14.5 0 0 1 14.5 -14.5 14.5 14.5 0 0 1 14.5 14.5z" fill-rule="evenodd" fill="#fff"/>
 </g>
</svg>
