<?xml version="1.0" encoding="UTF-8" standalone="no"?>
<svg xmlns:rdf="http://www.w3.org/1999/02/22-rdf-syntax-ns#" xmlns="http://www.w3.org/2000/svg" height="580" width="580" version="1.0" xmlns:cc="http://creativecommons.org/ns#" xmlns:dc="http://purl.org/dc/elements/1.1/">
 <title>variety_store</title>
 <metadata>
  <rdf:RDF>
   <cc:Work rdf:about="">
    <dc:format>image/svg+xml</dc:format>
    <dc:type rdf:resource="http://purl.org/dc/dcmitype/StillImage"/>
    <dc:title>variety_store</dc:title>
   </cc:Work>
  </rdf:RDF>
 </metadata>
 <path opacity=".8" d="m58 493c0 58 0 58 58 58h348c58 0 58 0 58-58v-348h-116v-58c0-58 0-58-58-58h-116c-58 0-58 0-58 58v58h-116z" fill-rule="evenodd" fill="#fff"/>
 <path fill="#00f" d="m231.86 58.143c-28.96 0-28.96 0-28.96 28.964l0.28 86.893h-116.18l-0.004 319c0 28.96 0.001 28.96 28.964 28.96h348.07c28.97 0 28.97 0 28.97-28.96v-319h-115.19l-1.13-86.889c0-28.964 0-28.965-28.97-28.965l-115.85-0.003zm0 28.964h115.86v86.893h-115.86v-86.893zm-28.86 144.89h58v232h-58v-116h-58v-58c43.5 0 58-14.5 58-58zm191.65 58.15c7.15 0.02 14.36 1.05 21.64 3.13 7.22 2.07 14.13 5.15 20.72 9.22v34.36c-5.62-5.78-11.62-10.12-18.01-13.01-13.88-6.05-30.96-5.8-42.47 2.45-6.18 4.52-10.83 11.15-13.96 19.9h56.12l-8.96 21.68h-51.32c-0.46 6.2-0.41 11.11-0.11 16.57h44.67l-9.27 21.68h-31.13c3.47 9.04 8.23 15.82 14.27 20.34 13.3 8.44 28.88 8.37 41.95 2.45 6.32-2.97 12.39-7.38 18.22-13.23v34.35c-6.59 4.08-13.5 7.15-20.72 9.23-22.8 6.3-51.52 1.32-68.4-11.34-12.42-9.71-21.23-23.65-26.44-41.81h-22.59l9.16-21.68h10.2c-0.33-5.48-0.3-11.46 0-16.56h-19.36l9.16-21.69h13.43c5.35-18.23 14.2-32.13 26.55-41.69 15.44-9.53 30.91-14.4 46.65-14.35z"/>
</svg>
