<?xml version="1.0" encoding="UTF-8" standalone="no"?>
<svg xmlns:rdf="http://www.w3.org/1999/02/22-rdf-syntax-ns#" xmlns="http://www.w3.org/2000/svg" height="580" width="580" version="1.0" xmlns:cc="http://creativecommons.org/ns#" xmlns:dc="http://purl.org/dc/elements/1.1/">
 <title>optician</title>
 <metadata>
  <rdf:RDF>
   <cc:Work rdf:about="">
    <dc:format>image/svg+xml</dc:format>
    <dc:type rdf:resource="http://purl.org/dc/dcmitype/StillImage"/>
    <dc:title>optician</dc:title>
   </cc:Work>
  </rdf:RDF>
 </metadata>
 <path opacity=".8" d="m304.32 194.41c3.4204 12.215 11.034 23.635 20.734 31.588h-71.225c14.017-10.509 24.965-28.82 22.631-46.838-1.524-20.529-17.702-41.452-39.465-41.789-21.218-0.0931-37.149 16.236-54.821 25.535l-125.49 75.31c1.255 53.91-0.135 116.12 21.822 166.6 9.584 23.6 37.508 30.18 60.918 30.18 35.903-0.84128 71.251 2 106.79-0.6543 30.034-13.264 37.971-44.575 43.754-70.863 5.1141 22.814 13.221 46.656 30.82 62.902 18 13.403 41.317 9.0025 62.248 8.6152 30.14-0.20264 56.803 2.5523 89.057-0.75391 25.971-8.3955 35.677-37.122 40.067-60.22 8.9698-40.354 12.904-88.163 8.652-129.36-6.6886-16.824-25.906-22.065-39.481-31.49l-131.45-75.952c-41.255-5.8415-51.16 37.664-45.549 57.188z" fill="#fff"/>
 <path fill="#00f" d="m342.98 166.66c-11.14 0.51-17.13 24.8 5.02 37.59l87 50.75h-290l87-50.75c26.75-15.45 10.58-42.36 0-36.25l-145 87c0 58 7.25 151 36.25 151h108.75c29 0 36.25-107.5 36.25-107.5 14.99-7.25 28.51-7.25 43.5 0 0 0 7.25 107.5 36.25 107.5h108.75c29 0 36.25-93 36.25-151l-145-87c-1.73-1-3.43-1.41-5.02-1.34zm-219.73 124.59h108.75l-14.5 78.5h-79.75l-14.5-78.5zm224.75 0h108.75l-14.5 78.5h-79.75l-14.5-78.5z"/>
</svg>
