<?xml version="1.0" encoding="UTF-8" standalone="no"?>
<svg xmlns:rdf="http://www.w3.org/1999/02/22-rdf-syntax-ns#" xmlns="http://www.w3.org/2000/svg" height="580" width="580" version="1.0" xmlns:cc="http://creativecommons.org/ns#" xmlns:dc="http://purl.org/dc/elements/1.1/">
 <title>deli</title>
 <metadata>
  <rdf:RDF>
   <cc:Work rdf:about="">
    <dc:format>image/svg+xml</dc:format>
    <dc:type rdf:resource="http://purl.org/dc/dcmitype/StillImage"/>
    <dc:title>deli</dc:title>
   </cc:Work>
  </rdf:RDF>
 </metadata>
 <path opacity=".8" d="m143.88 101.45c-21.129 42.107-15.334 74.981-0.48242 106.38-28.38 8.3991-35.427 32.674-28.904 55.73-60.315-3.185-58.102 89.493-11.275 76.24 41.78-20.8 52.12-1.72 26.18 16.89-51.031 0.90575-83.077 62.425-52.787 95.811 40.163 17.227 74.177 83.745 116.93 67.982 30.993-9.1343 52.073-44.542 43.518-76.047 15.017-38.438 23.938-17.416 25.004 9.0098-7.6904 24.221 0.88697 48.145 25.797 49.211 30.462-1.1479 43.339-35.589 43.576-59.553 31.849-1.8258 45.716-12.525 49.264-38.822 28.48 14.924 62.931 7.483 87.168-6.5234 29.567-18.243 50.541-53.05 45.803-88.424-9.3331-35.394-28.056-33.635-43.715-40.762-36.425 2.7712-67.921 15.712-88.504 43.518-11.093-8.4046 15.309-62.165 14.59-82.67 25.439-29.239 20.576 3.3261 37.842 13.586 14.192 11.055 38.759 7.8856 46.525-9.4277 18.686-53.155-45.373-94.354-85.455-85.188 0.031-52.988-58.036-93.389-100.15-69.822-15.337 11.159-17.493 37.419-1.5879 49.08 25.781 8.6381 48.774 20.262 13.418 33.713-26.044 4.8438-49.523 18.591-70.033 34.906-2.2893-2.6433-4.8217-7.2264-0.39423-9.2158 22.46-24.164 29.046-59.064 25.5-91.02-20.348-56.968-92.019-36.971-117.83 5.4114z" fill="#fff"/>
 <path fill="#000fff" d="m223.35 88.6c-49.35 2.578-70.83 53.55-65.44 83.8 3.07 14.26 9.16 18.51 21.59 15.07 39.87-18.78 52.5-42.47 52.28-81.18-4.95 11.13-27.98 32.81-36.87 32.63-6.17-18.29 16.77-38.4 28.44-50.32zm92.84 13.29c-8.24 1.71-4.81 4.11 9.53 6.66 31.31 12.01 36.54 38.57 23.18 58.12-12.68 18.44-12.35 24.76 0.57 10.83 27.54-31.26 7.65-75.94-33.28-75.61zm96.93 75.9c-14.61 0.17-29.49 7.41-38.06 21.05-11.29 15.28-5.01 14.44 10.74-1.45 20.2-23.39 52.51-10.06 61.97 12.81 3.58 9.01 5.98 11.98 6.86 8.48-2.01-28.06-21.5-41.12-41.51-40.89zm-84.74 11.37c-7.32-0.13-15.87 1.34-26.3 4.37-25.77 9.68-33.37 16.44-51.79 30.66l94.44 78.31c10.02-19.11 18.84-39.82 20.54-56.58 2.38-24.69-1.38-38.27-13.35-48.2-6.74-5.58-14.13-8.4-23.54-8.56zm-125.96 4.8c-1.57-0.07-3.91 1.37-7.62 4.1-4.05 2.98-10.86 5.92-15.13 6.55-6.74 0.98-7.55 1.84-6.05 6.43 2.58 7.94 19.23 20.72 30.08 23.09 5.27 1.15 13.37 1.54 18.01 0.87 8.25-1.18 8.19-1.47-3.12-13.35-6.35-6.67-12.02-15.41-12.59-19.41-0.81-5.59-1.57-8.19-3.58-8.28zm-28.32 35c-0.55 0.05-1.61 0.72-3.24 1.89-8.16 5.82-5.46 19.22 5.73 28.5 5.47 4.54 9.82 6.83 9.65 5.1-0.16-1.74-1.92-4.97-3.91-7.18-9.71-10.79-11.99-16.35-9.37-22.86 1.56-3.9 2.05-5.53 1.14-5.45zm70.11 2.75c-31.99 33.73-53.13 69.61-64.83 108.72l63.04 54.15c37.08-17.58 67.52-50.31 96.05-84.72l-94.26-78.15zm-99.3 5.98c-3.17-0.03-3.66 13.69-0.29 22.12 4.4 10.97 26.05 30.3 29.4 26.26 1.35-1.64-0.53-4.09-4.64-6.06-9.52-4.56-20.39-20.92-20.84-31.38-0.21-4.77-1.36-9.48-2.56-10.47-0.39-0.32-0.74-0.47-1.07-0.47zm-11.72 54.05c-13.87 0.07-31.61 5.97-37.131 12.63-6.499 7.84-0.446 8.53 8.831 1.01 10.85-8.8 34.41-9.35 53.07-1.25 8.95 3.88 16.47 5.59 16.73 3.79 0.6-4.35-26.02-15.42-38.78-16.12-0.88-0.05-1.79-0.07-2.72-0.06zm331.35 7.55c-40.4 1.82-68.8 34.23-70.62 65.97-1.08 12.85 4.23 18.05 18.81 18.43 37.51 0.96 75.44-34.59 71.68-67.2l-1.45-12.63c-8.86 21.34-40.03 45.3-44.18 37.26 2.28-17.03 12.73-31.8 25.76-41.83zm-123.63 27.49c-1.43 0.02-1.79 1.31-1.79 3.72-0.04 18.46 17.83 42.98 32.73 44.91 4.79 0.61 5.48-0.34 5.2-7.14-0.18-4.32 1.46-11.55 3.63-16.08 4.56-9.5 3.86-10.67-6.18-10.23-4.04 0.17-13.65-3.76-21.36-8.75-6.83-4.42-10.41-6.47-12.23-6.43zm-165.33 21.57c-6.51 15.04-23.42 40.63-41.57 38.95-7.67-1.02-24.04 1.26-32.14 11.02-17.376 20.96-6.129 44.05 17.99 36.93 5.29-1.84 8.99-0.02 8.53 3.81-7.75 17.64 9.91 32.25 26.67 23.52 4.16-1.49 7.34 0.65 7.17 4.94-1.38 5.48-0.25 13.73 2.51 18.32 4.41 7.36 6.41 8.12 16.68 6.37 25.58-9.11 28.42-20.21 24.55-45.25 0.72-22.21 13.62-35.16 29.1-46.95l-59.49-51.66zm142.4 24.23c-2.23 0.15-0.38 3.69 5.84 8.85 6.67 5.53 12.68 7.86 18.23 7.06 4.56-0.66 9.44-3.67 10.84-6.71 2.25-4.85 1.78-5.02-3.89-1.4-5.91 3.78-11.8 2.57-24.19-4.98-3.37-2.04-5.66-2.9-6.83-2.82zm-18.68 15.65c-0.49 0.05-0.92 0.27-1.26 0.67-3.39 4.09 18.57 21.09 30.64 23.73 10.14 2.21 25.95-1.47 21.64-5.04-1.2-1-6.05-1.26-10.77-0.58-10.36 1.5-28.45-6.16-34.69-14.66-2.02-2.76-4.09-4.24-5.56-4.12zm-22.61 4.04c-0.13 0-0.24 0.02-0.35 0.06-1.66 0.56 1.46 7.62 6.93 15.7 15.89 23.84 12.05 43.7 4.71 62.78-0.96 5.56 6.24-0.3 9.98-8.12 4.47-9.33 4.21-31.06-0.51-42.12-5.5-12.88-16.96-28.38-20.76-28.3z"/>
</svg>
