<?xml version="1.0" encoding="UTF-8" standalone="no"?>
<svg xmlns:rdf="http://www.w3.org/1999/02/22-rdf-syntax-ns#" xmlns="http://www.w3.org/2000/svg" height="580" width="580" version="1.0" xmlns:cc="http://creativecommons.org/ns#" xmlns:dc="http://purl.org/dc/elements/1.1/">
 <title>art</title>
 <metadata>
  <rdf:RDF>
   <cc:Work rdf:about="">
    <dc:format>image/svg+xml</dc:format>
    <dc:type rdf:resource="http://purl.org/dc/dcmitype/StillImage"/>
    <dc:title>art</dc:title>
   </cc:Work>
  </rdf:RDF>
 </metadata>
 <g fill-rule="evenodd">
  <path opacity=".8" d="m116 58v377h348v-377z" fill="#fff"/>
  <path d="m145 87v319h290v-319h-290zm29 29h232v261h-232v-261z" fill="#00f"/>
  <path d="m203 174c17.465-25.824 27.407-44.293 58-29 22.847-5.1614 19.707 18.913 29 29-2.3389 14.408 3.6235 34.188-29 29-14.748 29-21.76 33.258-36.78 29-9.9-2.81 7.78-38.58-10.61-29-16.31-4.34-16.85-15.26-10.61-29z" fill="#00b400"/>
  <path d="m294.28 300.3c-33.241-31.224-46.085 17.041-64.83-1.442-22.613-6.1054-8.5934-25.927-12.101-39.186 8.7967-11.648 12.761-31.923 39.186-12.101 31.537-50.126 22.301-15.15 33.46-3.5162 7.1254 7.4284-12.29 25.529 8.4452 25.647 12.396 11.458 7.7706 21.362-4.161 30.598z" fill="#c00"/>
  <path d="m356.01 156.21c-7.3241 38.619 17.808 45.794-0.36007 64.845-22.732-7.7027-25.78 9.0248-38.979 12.753-11.793-8.6011-32.132-12.227-12.753-38.979-20.231-17.257-15.52-22.045-4.074-33.397 7.3084-7.2484 25.731 11.862 25.503-8.872 11.25-12.585 21.229-8.1259 30.663 3.6498z" fill="#fff832"/>
  <path d="m342.44 299.15c-23.44 7.58-47.58-12.28-52.44-38.15 29 0 7.7247-26.199 12.404-39.091 13.869-4.553 28.686-18.948 39.091 12.404 25.822-6.3491 26.959 0.27079 29.492 16.191 1.6177 10.165 6.0122 30.232-7.6867 25.885 3.6491 16.481-5.7975 21.98-20.866 22.764z" fill="#33f"/>
 </g>
</svg>
