<?xml version="1.0" encoding="UTF-8" standalone="no"?>
<svg xmlns:rdf="http://www.w3.org/1999/02/22-rdf-syntax-ns#" xmlns="http://www.w3.org/2000/svg" height="580" width="580" version="1.0" xmlns:cc="http://creativecommons.org/ns#" xmlns:dc="http://purl.org/dc/elements/1.1/">
 <title>cosmetics</title>
 <metadata>
  <rdf:RDF>
   <cc:Work rdf:about="">
    <dc:format>image/svg+xml</dc:format>
    <dc:type rdf:resource="http://purl.org/dc/dcmitype/StillImage"/>
    <dc:title>cosmetics</dc:title>
   </cc:Work>
  </rdf:RDF>
 </metadata>
 <path opacity=".8" d="m87 116h-29v87h29v58h74.309c-34.01 32.267-53.129 78.617-60.48 124.32-3.054 23.564 2.2975 49.044 18.593 66.964 17.794 21.748 40.446 39.008 63.728 54.444 23.27 13.58 48.85 15.28 77.85 15.28 37.742 0 73.2 4.901 108.95-3.6952 37.03-12.272 66-40.417 90.734-69.502 15.178-20.278 20.205-47.405 13.763-71.854-8.4502-48.713-31.02-97.37-71.541-127.4 44.085-4.5502 87.158-14.255 107.62-46.614 14.273-23.14 17.123-53.528 4.6678-78.082-16.37-35.495-55.49-57.373-94.07-56.518-30.19-0.189-60.52 12.289-81.09 34.528-10.57-13.939-29.25-18.344-45.95-16.934-17.39-0.257-37.54 0.286-50.61 13.445-4.63 4.369-8.53 11.529-11.47 16.619v-58h-145z" fill="#fff"/>
 <path fill="#00f" d="m116 87v29h29v-29h-29zm58 0v29h29v-29h-29zm246.5 11.561c-34.09 0-62.68 19.789-70.42 46.439h-31.08c0-29 0-29-29-29-28.03 0.49-29 0-29 29v99.24l58-0.68v-69.56h31.08c7.74 26.65 36.33 46.44 70.42 46.44 40.04 0 72.5-27.28 72.5-60.94s-32.46-60.939-72.5-60.939zm-333.5 46.439v29h29v-29h-29zm58 0v29h29v-29h-29zm58 0v29h29v-29h-29zm-87 58v29h29v-29h-29zm58 0v29h29v-29h-29zm58 58c-58 0-102.41 87-102.41 145 0 29 73.41 87 102.41 87h116c29 0 99.01-58 99.01-87 0-58-41.01-145-99.01-145h-116z"/>
</svg>
