<?xml version="1.0" encoding="UTF-8" standalone="no"?>
<svg xmlns:rdf="http://www.w3.org/1999/02/22-rdf-syntax-ns#" xmlns="http://www.w3.org/2000/svg" height="580" width="580" version="1.0" xmlns:cc="http://creativecommons.org/ns#" xmlns:dc="http://purl.org/dc/elements/1.1/">
 <title>beverages</title>
 <metadata>
  <rdf:RDF>
   <cc:Work rdf:about="">
    <dc:format>image/svg+xml</dc:format>
    <dc:type rdf:resource="http://purl.org/dc/dcmitype/StillImage"/>
    <dc:title>beverages</dc:title>
   </cc:Work>
  </rdf:RDF>
 </metadata>
 <path opacity=".8" d="m413.48 145l-36.48 145h-90.3l32.3 232c0 29 29 58 58.01 57.66l57.63-0.75c29.36 1.09 58.36-27.91 58.36-56.91l32.3-232h-61.3l15.5-58h71.5v-87h-137.52z" fill="#fff"/>
 <path opacity=".8" d="m174 0-29.67 0.28533c-28.33-0.28533-39.96 16.993-40.59 43.924l0.45178 75.875c-41.973 21.17-51.68 34.72-53.19 62.42v321.5c0.4168 57.363 30.875 69.737 65.254 76.214l86.429-0.0333c14.899-0.006 28.762-7.8804 42.126-14.899 19.17-12.81 23.98-25.1 23.19-59.88v-328.4c6.401-24.789-56.945-51.501-54.768-58.324l0.004-75.528c0.36-26.897-10.23-43.152-39.23-43.152z" fill="#fff"/>
 <g fill="#00f">
  <path d="m140.05 28.312c-4.3411-0.00035-7.8606 3.5183-7.8613 7.8594v101.94c-6.2595 2.5353-13.189 5.7244-19.463 9.0586-11.302 6.4165-22.261 13.159-28.793 22.873-2.8917 4.3622-5.5879 11.165-5.0879 21.279-0.69335 89.375-0.14063 225.96-0.14062 330.24 0.00024 7.3765 3.4266 14.335 9.2734 18.832 20.13 13.3 45.057 15.131 66.764 15.551 25.446 0.42014 51.663-1.5189 73.65-13.535 7.623-4.1662 12.365-12.16 12.365-20.848v-334.19c-0.0386-8.2762-4.6027-15.45-10.145-20.648-8.0997-7.3726-18.202-13.579-26.818-18.355-6.4314-3.5486-11.451-7.1708-17.992-10.047v-102.15c-0.00073-4.3403-3.5191-7.8586-7.8594-7.8594z"/>
  <path d="m319 319 29 203c0 7.0618 7.2432 29 29 29h58c20.845 0 29-20.996 29-29l29-203z"/>
  <path d="m522 174h-87l-29 116h29l21.971-87h65.029z"/>
 </g>
</svg>
