<?xml version="1.0" encoding="UTF-8" standalone="no"?>
<svg xmlns:rdf="http://www.w3.org/1999/02/22-rdf-syntax-ns#" xmlns="http://www.w3.org/2000/svg" height="580" width="580" version="1.0" xmlns:cc="http://creativecommons.org/ns#" xmlns:dc="http://purl.org/dc/elements/1.1/">
 <title>outdoor</title>
 <metadata>
  <rdf:RDF>
   <cc:Work rdf:about="">
    <dc:format>image/svg+xml</dc:format>
    <dc:type rdf:resource="http://purl.org/dc/dcmitype/StillImage"/>
    <dc:title>outdoor</dc:title>
   </cc:Work>
  </rdf:RDF>
 </metadata>
 <path opacity=".8" d="m245.34 86.311c-43.978-0.89447-80.955 45.731-71.299 88.377 5.5627 27.83 28.946 50.27 56.172 57.035l6.0938 29.338-37.738 24.84-111.57-38.3v274.4h87v-127.25l27.996 18.666 57.051-37.522c1.3999 7.6606 6.195 16.936-0.62276 23.427l-84.43 122.67h125.51l18.91-23.05 8.14 23.05h116.76l-35.2-143.03 96.17-46.49-113.84-227.68-72.63 36.01c-8.67-31.33-39.69-55.525-72.48-54.499z" fill-rule="evenodd" fill="#fff"/>
 <path d="m246.5 116.45a43.5 43.5 0 0 0 -43.5 43.5 43.5 43.5 0 0 0 43.5 43.5 43.5 43.5 0 0 0 43.5 -43.5 43.5 43.5 0 0 0 -43.5 -43.5zm130.5 28.55-58 29 87 174 58-29-87-174zm-58 58-58 29 8.5527 42.65-66.553 44.35-87-29v29l87 58 76.748-51.203 10.25 51.2 87-29-58-145zm-203 145v145h29v-145h-29zm261 29l-87 29-58 87h53.185l44.41-58 18.408 58h58l-29-116z" fill-rule="evenodd" fill="#00f"/>
</svg>
