<?xml version="1.0" encoding="UTF-8" standalone="no"?>
<svg xmlns:rdf="http://www.w3.org/1999/02/22-rdf-syntax-ns#" xmlns="http://www.w3.org/2000/svg" height="580" width="580" version="1.0" xmlns:cc="http://creativecommons.org/ns#" xmlns:dc="http://purl.org/dc/elements/1.1/">
 <title>greengrocer</title>
 <metadata>
  <rdf:RDF>
   <cc:Work rdf:about="">
    <dc:format>image/svg+xml</dc:format>
    <dc:type rdf:resource="http://purl.org/dc/dcmitype/StillImage"/>
    <dc:title>greengrocer</dc:title>
   </cc:Work>
  </rdf:RDF>
 </metadata>
 <path opacity=".8" d="m311.33 87.119c-16.971 17.192-31.773 36.662-41.321 58.949-25.938-33.462-69.216-52.627-111.46-48.522-25.298 1.1173-49.994 7.4579-74.17 14.598-0.6749 46.878 30.726 90.665 72.529 109.93-35.377 23.224-53.068 66.211-54.543 107.4-1.6993 50.49 20.458 98.747 50.042 138.5 19.541 25.4 45.435 47.955 76.992 56.264 26.284 5.6817 53.7-2.5744 76.279-15.777 28.625 14.547 66.41 22.227 92.447 10.253 37.034-15.764 62.364-49.442 82.049-83.224 24.729-43.486 37.219-96.648 22.857-145.65-10.239-35.646-37.127-68.422-74.037-77.894-24.083-6.8609-50.003-5.6905-73.935 1.2137-0.0762-19.631 4.4007-42.189 21.611-54.436 7.0624-5.7523 13.444-16.456 7.5801-25.123l-45.96-46.6c-8.7223-9.1582-22.82-3.9356-26.964 0.11925z" fill="#fff"/>
 <path fill="#00f" d="m160.92 257.32c-17.795 18.654-28.963 50.685-28.963 79.648 0 57.926 57.926 159.3 115.85 159.3 16.322 0 28.963-7.2407 57.926-21.722 28.963 14.481 41.603 21.722 57.926 21.722 57.926 0 115.85-101.37 115.85-159.3 0-28.963-9.4497-60.994-28.963-79.648-29.6-28.31-86.88-28.97-144.81 14.47-57.93-40.94-115.85-46.49-144.81-14.47zm-43.44-123.09c15.522 57.926 82.653 86.888 144.81 57.926-26.16-57.93-72.41-76.41-144.81-57.93zm207.99-17.83c-16.615 16.615-30.043 40.437-34.209 61.27-2.2771 11.385-3.3 38.392-3.6204 51.586 6.0258 3.5361 12.054 6.3252 18.102 10.861 6.405-4.8038 12.628-8.0818 19.007-11.766 0.50772-11.432 1.1049-35.389 2.7153-43.44 3.0742-15.371 11-30.82 23.348-43.168z"/>
</svg>
