<?xml version="1.0" encoding="UTF-8" standalone="no"?>
<svg xmlns:rdf="http://www.w3.org/1999/02/22-rdf-syntax-ns#" xmlns="http://www.w3.org/2000/svg" height="580" width="580" version="1.0" xmlns:cc="http://creativecommons.org/ns#" xmlns:dc="http://purl.org/dc/elements/1.1/">
 <title>laundry</title>
 <metadata>
  <rdf:RDF>
   <cc:Work rdf:about="">
    <dc:format>image/svg+xml</dc:format>
    <dc:type rdf:resource="http://purl.org/dc/dcmitype/StillImage"/>
    <dc:title>laundry</dc:title>
   </cc:Work>
  </rdf:RDF>
 </metadata>
 <g>
  <path opacity=".8" d="m87 522h406v-464h-406z" fill="#fff"/>
  <path fill="#00f" d="m116 87v406h348v-406h-348zm58 29h145v58h-145v-58zm203 0h58v58h-58v-58zm-87 116c58 0 100.3 46.08 101.5 101.5 0 56.06-45.44 101.5-101.5 101.5s-101.5-45.44-101.5-101.5 45.44-101.5 101.5-101.5z"/>
  <path fill="#00f" d="m362.5 333.5-145 0.0156c0.01 40.03 32.47 72.48 72.5 72.48 40.041 0 72.5-32.459 72.5-72.5z"/>
 </g>
</svg>
