<?xml version="1.0" encoding="UTF-8" standalone="no"?>
<svg xmlns:rdf="http://www.w3.org/1999/02/22-rdf-syntax-ns#" xmlns="http://www.w3.org/2000/svg" height="580" width="580" version="1.0" xmlns:cc="http://creativecommons.org/ns#" xmlns:dc="http://purl.org/dc/elements/1.1/">
 <title>hifi</title>
 <metadata>
  <rdf:RDF>
   <cc:Work rdf:about="">
    <dc:format>image/svg+xml</dc:format>
    <dc:type rdf:resource="http://purl.org/dc/dcmitype/StillImage"/>
    <dc:title>hifi</dc:title>
   </cc:Work>
  </rdf:RDF>
 </metadata>
 <path opacity=".8" fill="#fff" d="m145 87h290v406h-290z" fill-rule="evenodd"/>
 <path fill="#00f" d="m174 116v348h232v-348h-232zm117.35 24.08c27.46 0 49.71 22.26 49.71 49.71 0 27.46-22.25 49.72-49.71 49.72s-49.71-22.26-49.71-49.72c0-27.45 22.25-49.71 49.71-49.71zm-1.51 124.77c48.05 0 87 38.95 87 87s-38.95 87-87 87-87-38.95-87-87 38.95-87 87-87zm0.06 50.87c-20.59 0-37.28 16.7-37.28 37.29s16.69 37.29 37.28 37.29c20.6 0 37.29-16.7 37.29-37.29s-16.69-37.29-37.29-37.29z"/>
</svg>
