<?xml version="1.0" encoding="UTF-8" standalone="no"?>
<svg xmlns:rdf="http://www.w3.org/1999/02/22-rdf-syntax-ns#" xmlns="http://www.w3.org/2000/svg" height="580" width="580" version="1.0" xmlns:cc="http://creativecommons.org/ns#" xmlns:dc="http://purl.org/dc/elements/1.1/">
 <title>sports</title>
 <metadata>
  <rdf:RDF>
   <cc:Work rdf:about="">
    <dc:format>image/svg+xml</dc:format>
    <dc:type rdf:resource="http://purl.org/dc/dcmitype/StillImage"/>
    <dc:title>sports</dc:title>
   </cc:Work>
  </rdf:RDF>
 </metadata>
 <path opacity=".8" d="m360.02 56.721c-35.821 0.64395-67.338 31.54-70.975 66.777-23.398-5.6002-47.852-14.611-72.105-8.9844-23.392 8.7278-35.027 32.592-51.344 49.742-17.987 21.058-40.603 40.95-47.883 68.729-4.1436 32.747 31.281 62.437 63.281 51.52 23.662-7.403 36.189-28.643 51.958-45.87 6.2367-7.151 12.44-14.331 18.593-21.556 16.176 3.9273 30.952 11.635 47.273 14.922-47.273-14.922-57.942 29-58.322 48.447-19.76 1.15-37.5 9.55-61.95 47.2-34.139 43.732-60.23 84.878-89.886 131.89-11.282 32.711 21.238 70.915 55.375 64.469 19.911-2.0078 71.946-69.121 99.625-102.9-3.5028 30.765 26.849 59.946 58.057 53.053 50.986-36.023 94.649-78.484 144.31-126.55 8.2433-19.752 0.70107-43.565-14.973-57.402 28.63-36.519 73.898-73.476 79.576-114.77 0.17133-31.991-27.91-56.436-58.287-44.151-4.0535 1.0993-13.522 6.5269-16.051 6.9578-1.3-51.25-30.32-80.048-69.38-81.394-2.2951-0.14978-4.5972-0.17521-6.8964-0.13488z" fill-rule="evenodd" fill="#fff"/>
 <path d="m362.5 87c-24.024 0-43.5 19.476-43.5 43.5s19.476 43.5 43.5 43.5 43.5-19.476 43.5-43.5c0-24.02-19.48-43.5-43.5-43.5zm-144.65 61.641-65.072 76.391c-18.405 23.222 7.9944 42.629 24.449 21.938l63.199-63.145 66.092 21.666c23.283 8.164 37.282-41.413 10.969-44.98l-79.926-18.391c-7.1557-1.5029-15.694 1.967-19.711 6.5215zm232.62 18.754-49.082 53.992-43.131-27.775c-25.89-16.055-45.488 26.984-20.52 40.338l58 30.658c8.535 5.0996 19.52 3.156 25.787-4.5625l54-71.439c17.47-23.86-11.53-41.6-25.06-21.21zm-169.19 145.44 80.303 23.916-79.176 77.182c-19.4 21.62 5.6 42.03 23.19 25.35l107.39-95.609c11.018-10.208 7.2737-28.465-6.873-33.512l-105.39-53c-37.407-13.746-50.483 45.054-19.434 55.676zm-59.9 5.668-100 143c-18.122 26.034 15.655 41.398 29.234 24.988l116-135c25.028-30.248-26.121-71.047-45.234-32.988z" fill-rule="evenodd" fill="#00f"/>
</svg>
