<?xml version="1.0" encoding="UTF-8" standalone="no"?>
<svg xmlns:rdf="http://www.w3.org/1999/02/22-rdf-syntax-ns#" xmlns="http://www.w3.org/2000/svg" height="580" width="580" version="1.0" xmlns:cc="http://creativecommons.org/ns#" xmlns:dc="http://purl.org/dc/elements/1.1/">
 <title>car_repair</title>
 <metadata>
  <rdf:RDF>
   <cc:Work rdf:about="">
    <dc:format>image/svg+xml</dc:format>
    <dc:type rdf:resource="http://purl.org/dc/dcmitype/StillImage"/>
    <dc:title>car_repair</dc:title>
   </cc:Work>
  </rdf:RDF>
 </metadata>
 <g fill-rule="evenodd">
  <path opacity=".8" fill="#fff" d="m390.33 2.1816-31.2 46.814-214.13-0.475c-37.397 3.0024-61.709 13.62-61.709 53.263s32.709 52.5 61.775 53.034l220.62 0.0955 28.459 40.871-14.302 2.7091h-176.78l-32.732 4c-22.478 9.5329-37.911 30.534-44.883 53.402-8.4658 20.903-14.615 42.894-25.689 62.58-27.794 13.39-45.904 44.62-42.718 75.46l0.95 99.06c0 16.74 10.846 29 29 29 0 21.008 8.6256 45.693 29 58h58c20.602-12.347 28.995-37.076 28.995-58h174c0 20.626 9.0555 45.465 29.005 58h58c19.865-12.44 28.992-37.211 28.992-57.999 17.363 0 29-9.9883 29-29l0.7793-103.93c-0.03-32.5-17.08-58.11-44.07-70.72l-27.92-73.7c-15.78-41.65-44.78-37.99-70.94-46.16l132.64-25.126v-146.72zm-176.83 282.31h156.6l8.7012 27.5h-177z"/>
  <path fill="#00f" d="m430.4 373.5c15.651-0.00003 28.309 12.761 28.309 28.54s-12.658 28.595-28.309 28.595c-15.651 0.00002-28.364-12.816-28.364-28.595s12.712-28.54 28.364-28.54zm-278.39 0c15.651 0.00003 28.364 12.761 28.364 28.54s-12.712 28.595-28.364 28.595c-15.651 0-28.364-12.816-28.364-28.595s12.712-28.54 28.364-28.54zm58.99-118.5h159c14.45-0.33989 20.209 2.1854 26.354 15.959l25.65 71.04h-263l25.47-69.55c7.86-13.06 14.12-17.95 26.53-17.45zm-8-29c-18.201-0.64917-33.885 5.2882-43.557 26.612l-35.44 89.39c-25.444 7.0723-35.999 24.472-36.586 39.76l-0.414 111.24h29v29c0 47.595 58 48.64 58 0v-29h232v29c0 48.031 58 48.337 58 0v-29h29l0.41378-111.24c-0.58-15.29-11.97-32.69-37.41-39.76l-34.62-89.39c-9.67-21.32-25.35-27.26-43.55-26.61z"/>
  <path stroke="#00f" stroke-width="10" d="m406 101 14.5-29h58v-14.5l-72.5-14.5-29 43.5h-246.5c-20.16 0.5-20.16 29.5 0 29h246.5l29 43.5 72.5-14.5v-14.5h-58z" fill="#00f"/>
  <path d="m130.24 90.5c-10.563-0.57179-14.169 16.32-4.1934 20.109 8.5102 4.4235 19.256-6.6481 13.535-14.887-1.8951-3.2232-5.5831-5.3594-9.3418-5.2227z" fill="#fff"/>
 </g>
</svg>
