<?xml version="1.0" encoding="UTF-8" standalone="no"?>
<svg xmlns:rdf="http://www.w3.org/1999/02/22-rdf-syntax-ns#" xmlns="http://www.w3.org/2000/svg" height="580" width="580" version="1.0" xmlns:cc="http://creativecommons.org/ns#" xmlns:dc="http://purl.org/dc/elements/1.1/">
 <title>confectionery</title>
 <metadata>
  <rdf:RDF>
   <cc:Work rdf:about="">
    <dc:format>image/svg+xml</dc:format>
    <dc:type rdf:resource="http://purl.org/dc/dcmitype/StillImage"/>
    <dc:title>confectionery</dc:title>
   </cc:Work>
  </rdf:RDF>
 </metadata>
 <path opacity=".8" d="m289.53 56.629c-49.281-0.64522-92.661 47.495-87.262 96.406 0.78188 6.9818 2.3727 13.868 4.6621 20.508-34.227-2.1192-67.296 13.656-93.018 35.193-24.049 20.982-42.884 50.344-44.979 82.797 2.5576 14.533 2.7395 27.467 16.691 30.334 20.928 52.464 40.185 105.68 63.975 156.94 6.3626 12.886 19.487 20.383 31.395 27.436 26.986 14.548 58.382 17.784 88.558 16.407 43.051 0.61741 88.467 3.3827 128.64-15.063 23.131-11.021 39.59-33.253 46.121-57.73 17.788-43.422 34.011-87.664 52.978-130.44 12.133-3.8398 16.706-18.543 13.756-29.979-2.9432-37.67-28.277-69.687-58.029-91.078-22.793-16.275-50.836-26.549-79.104-24.646 14.597-40.468-5.897-89.864-44.992-107.96-12.179-6.0605-25.789-9.259-39.399-9.1265z" fill="#fff"/>
 <path d="m98.986 290c-0.37409-29 46.369-87 104.37-87 29 0.92511 58 46.03 87 44.641 29 3.395 58-44.795 87-44.641 58 0 103.57 58 103.66 87h-30.251c-15.409-29-44.409-43.866-73.409-45.079-29 3.0865-58 45.233-87 45.079-29 0.7714-58-40.352-87-42.358-29-0.79462-58 13.358-70.198 42.358h-34.172zm249.37-145c0 32.033-25.968 58-58 58-32.033 0-58-25.967-58-58s25.967-58 58-58c26.591 0 49.777 18.083 56.253 43.874m-172.25 333.13-58-145c20.875 4.1751 40.212 26.027 58 29 11.748 1.9633 47.228-30.038 58-29 27.133 2.6158 37.005 26.592 58 29 21.98 2.5201 31.022-23.407 58-29 13.029-2.6999 39.973 27.456 58 29 22.271 1.9082 36.307-24.661 58-29l-58 145c-29 29-58 29-116 29s-87 0-116-29z" fill="#00f"/>
</svg>
