<?xml version="1.0" encoding="UTF-8" standalone="no"?>
<svg xmlns:rdf="http://www.w3.org/1999/02/22-rdf-syntax-ns#" xmlns="http://www.w3.org/2000/svg" height="580" width="580" version="1.0" xmlns:cc="http://creativecommons.org/ns#" xmlns:dc="http://purl.org/dc/elements/1.1/">
 <title>mall</title>
 <metadata>
  <rdf:RDF>
   <cc:Work rdf:about="">
    <dc:format>image/svg+xml</dc:format>
    <dc:type rdf:resource="http://purl.org/dc/dcmitype/StillImage"/>
    <dc:title>mall</dc:title>
   </cc:Work>
  </rdf:RDF>
 </metadata>
 <path opacity=".8" d="m261 0-261 145-0.35912 59.76c6.0409 9.53 19.722 13.88 29.626 15.68l-0.267 301.56c0 29 0 58 29 58h464c29 0 29-29 29-58v-304c10.595-0.61149 21.006-7.8176 29-15v-58l-261-145z" fill-rule="evenodd" fill="#fff"/>
 <path stroke-linejoin="round" d="m72.5 159.5v373h435v-373l-217.5-130.5z" fill-rule="evenodd" stroke="#00f" stroke-linecap="round" stroke-width="29" fill="#00f"/>
 <g stroke-linejoin="round" stroke-linecap="round" fill="none">
  <path d="m29 174 261-145 261 145" stroke="#00f" stroke-width="29"/>
  <path d="m452.76 170.92-49.409 27.996-33.48 155.58-1.8433 87.199h-208.88" stroke="#fff" stroke-width="45"/>
  <path d="m397.5 226.5h-271l33 128h210.37z" stroke="#fff" stroke-width="45"/>
 </g>
 <path d="m216.98 476.45c-0.004 15.875-12.892 28.742-28.788 28.739s-28.779-12.875-28.777-28.75c0.003-15.875 12.89-28.743 28.786-28.741s28.781 12.872 28.78 28.747" fill="#fff"/>
 <path d="m338.1 476.45c-0.004 15.875-12.892 28.742-28.788 28.739s-28.779-12.875-28.777-28.75c0.003-15.875 12.89-28.743 28.786-28.741s28.781 12.872 28.78 28.747" fill="#fff"/>
</svg>
