<?xml version="1.0" encoding="UTF-8" standalone="no"?>
<svg xmlns:rdf="http://www.w3.org/1999/02/22-rdf-syntax-ns#" xmlns="http://www.w3.org/2000/svg" height="580" width="580" version="1.0" xmlns:cc="http://creativecommons.org/ns#" xmlns:dc="http://purl.org/dc/elements/1.1/">
 <title>seafood</title>
 <metadata>
  <rdf:RDF>
   <cc:Work rdf:about="">
    <dc:format>image/svg+xml</dc:format>
    <dc:type rdf:resource="http://purl.org/dc/dcmitype/StillImage"/>
    <dc:title>seafood</dc:title>
   </cc:Work>
  </rdf:RDF>
 </metadata>
 <path opacity=".8" d="m479.39 146.82c-16.23 9.3476-31.848 19.802-46.18 31.832-11.764 9.9934-22.501 21.267-31.4 33.901-33.35-37.028-80.334-62.433-130.11-67.522-53.241-4.4459-106.72 13.301-150.58 42.902-28.366 19.687-53.585 47.413-61.664 81.794-7.2898 30.265 2.9829 62.534 22.371 86.197 35.396 43.42 89.244 68.263 143.61 77.666 55.677 8.3436 114.86-8.0555 157.16-45.525 6.9528-5.9261 13.498-12.335 19.541-19.186 19.361 26.468 45.604 47.428 74.631 62.528 16.238 9.254 47.577-11.635 46.188-38.191-2.0085-35.126-13.638-69.245-27.296-101.48 2.8119-18.306 14.195-33.793 17.909-51.894 4.877-16.372 7.8245-33.257 9.1661-50.282-0.74-44.57-16.41-47.17-43.35-42.75z" fill="#fff"/>
 <path d="m261 174c-87 0-174 58-174 116s87 116 174 116c65.056-0.66119 145-58 145-116s-87-116-145-116zm145 116c0 58 47.397 94.952 87 116 0-58-19.333-77.333-29-116 9.6667-38.667 29-58 29-116-35.627 19.281-87 58-87 116zm-228.51-60c15.952-0.28478 33.138 16.37 33.51 32.32v0.67861c0.00027 15.95-16.88 32.907-32.83 33-15.95 0.0946-32.983-16.71-33.17-32.659-0.18941-15.951 16.54-33.061 32.49-33.34z" fill="#00f"/>
</svg>
