<?xml version="1.0" encoding="UTF-8" standalone="no"?>
<svg xmlns:rdf="http://www.w3.org/1999/02/22-rdf-syntax-ns#" xmlns="http://www.w3.org/2000/svg" height="580" width="580" version="1.0" xmlns:cc="http://creativecommons.org/ns#" xmlns:dc="http://purl.org/dc/elements/1.1/">
 <title>butcher</title>
 <metadata>
  <rdf:RDF>
   <cc:Work rdf:about="">
    <dc:format>image/svg+xml</dc:format>
    <dc:type rdf:resource="http://purl.org/dc/dcmitype/StillImage"/>
    <dc:title>butcher</dc:title>
   </cc:Work>
  </rdf:RDF>
 </metadata>
 <g fill-rule="evenodd">
  <path opacity=".9" d="m295.54 1.9844c-86.56 22.561-166.51 64.432-243.77 108.53-9.3895 5.3406-10.716 17.405-7.7305 26.811 3.6774 11.056 8.2095 21.746 11.781 32.855 38.033 101.43 97.045 194.18 167.54 276.07 9.5848 10.413 19.661 20.369 30.11 29.913 26.064-17.545 51.984-35.307 78.031-52.881 28.605 49.352 63.603 94.887 102.33 136.68 12.354 12.311 30.021 22.846 48.043 18.1 21.578-5.0519 38.676-20.488 54.727-34.844 14.684-15.388 21.503-39.149 12.988-59.283-7.7569-22.255-21.26-41.865-30.862-63.294-24.36-47.06-52.9-92.27-88.5-131.67-50.68-65.18-80.23-144.08-101.26-223.47-5.71-18.727-8.33-38.659-17.36-56.223-4.07-4.4425-9.94-7.5074-16.07-7.3026z" fill="#fff"/>
  <path fill="#00f" d="m259.75 409.43s-42.912-50.321-87.53-123.52c-35.401-58.076-68.143-134.57-71.141-142.7 24.167-17.572 147.5-73.114 172.5-78.558 7.2709 28.089 18.654 83.095 42.703 136.53 24.847 55.212 54.757 98.256 65.889 112.8-26.639 25.128-122.42 95.442-122.42 95.442zm84.03-30.78c3.1005 25.732 89.813 145.37 119.13 167.07 11.316 8.375 19.228 1.5414 38.448-12.036 19.22-13.587 26.455-25.157 19.451-41.515-14.37-33.57-77.25-154.12-106.78-173.44-28.4-41.35-52.21-72.61-75.61-129.94-24.22-59.31-39.68-119.56-48.95-154.96-32.97 9.5664-87.568 32.707-121.16 48.198-37.424 17.257-64.196 34.107-93.936 50.057 9.4069 27.354 31.899 94.726 78.871 167.51 37.115 57.511 68.318 103.3 103.5 138.14z"/>
  <path d="m213.39 139.33c0-13.304 11.391-24.097 25.441-24.097 14.051 0 25.441 10.793 25.441 24.097 0 13.314-11.391 24.107-25.441 24.107-14.051 0-25.441-10.793-25.441-24.107z" fill="#00f"/>
 </g>
</svg>
