<?xml version="1.0" encoding="UTF-8" standalone="no"?>
<svg xmlns:rdf="http://www.w3.org/1999/02/22-rdf-syntax-ns#" xmlns="http://www.w3.org/2000/svg" height="580" width="580" version="1.0" xmlns:cc="http://creativecommons.org/ns#" xmlns:dc="http://purl.org/dc/elements/1.1/">
 <title>mobile_phone</title>
 <metadata>
  <rdf:RDF>
   <cc:Work rdf:about="">
    <dc:format>image/svg+xml</dc:format>
    <dc:type rdf:resource="http://purl.org/dc/dcmitype/StillImage"/>
    <dc:title>mobile_phone</dc:title>
   </cc:Work>
  </rdf:RDF>
 </metadata>
 <path opacity=".8" d="m232 522h116c58 0 87-29 87-87v-232c0-58-29-87-87-87h-29c0-29-29-58-58-58-36.452 0-58 29-58 66-29 0-58 32.317-58 79v232c0 58 29 87 87 87z" fill-rule="evenodd" fill="#fff"/>
 <path d="m261 87c-14.002 0-29 11.241-29 29v29c-32.44 2.37-58 26.25-58 58v232c0 33.315 23.297 58 58 58h116c34.703 0 58-24.685 58-58v-232c0-33.32-23.3-58-58-58h-58v-29c0-18.442-15-29-29-29zm-58 116h174v203h-174v-203zm58 232h58v29h-58v-29z" fill="#00f"/>
</svg>
