<?xml version="1.0" encoding="UTF-8" standalone="no"?>
<svg xmlns:rdf="http://www.w3.org/1999/02/22-rdf-syntax-ns#" xmlns="http://www.w3.org/2000/svg" height="580" width="580" version="1.0" xmlns:cc="http://creativecommons.org/ns#" xmlns:dc="http://purl.org/dc/elements/1.1/">
 <title>toys</title>
 <metadata>
  <rdf:RDF>
   <cc:Work rdf:about="">
    <dc:format>image/svg+xml</dc:format>
    <dc:type rdf:resource="http://purl.org/dc/dcmitype/StillImage"/>
    <dc:title>toys</dc:title>
   </cc:Work>
  </rdf:RDF>
 </metadata>
 <path opacity=".8" fill="#fff" d="m136.12 95.006c-17.362 0.3484-27.268 21.757-20.656 36.617 1.9801 7.42 13.332 9.5296 11.234 18.186-13.706 27.585-36.131 56.73-38.002 84.424 2.8753 32.006 39.867 57.133 70.287 44.459 4.1696-1.8522 7.4906-5.0669 11.223-7.6074 6.393 13.843 4.0126 30.029-2.5273 43.264-4.7225 12.86-9.9248 25.932-15.717 38.164-11.536-7.0833-28.004-4.3637-35.959 6.8125-5.4835 10.343-38.785 44.114-34.647 50.41 48.12 57.503 123.42 87.261 197.32 89.361 88.52-1.3988 171.12-30.3 221.89-91.012l-53.555-71.416-19.412 15.908c-12.365-27.376-28.365-55.582-27.664-86.064 9.1137-3.8147 17.969 5.6846 19.004 14.32 3.5553 14.867-0.22251 32.778 11.031 45.031 12.87 12.475 35.64 7.771 45.313-6.4004 20.08-22.241 34.319-52.917 28.941-83.371-10.895-47.434-64.332-80.162-111.53-67.758-12.727 2.7343-23.962 9.5094-35.117 15.826-28.736-7.6709-60.591-9.8106-87.344-6.9062-13.117-44.575-56.634-76.061-102.13-80.227-10.585-1.5481-21.295-2.0956-31.986-2.0195zm156.47 248.13c14.049-0.10072 28.783 6.2606 35.844 18.863 8.4264 10.794 14.973 22.876 21.479 34.879-38.661 12.821-81.316 13.653-119.86-0.16797 18.531-29.75 28.385-52.861 62.539-53.574z"/>
 <path fill="#00f" d="m145 123.25c18.791 21.75 8.6258 36.803 0 50.75-7.1592 11.576-29 50.343-29 58 3.6114 13.477 16.156 22.656 29 22.656 10.999-6.3501 19.731-20.637 29-29.906 0 0 29 36.25 29 65.25 0 17.641-29 83.375-29 83.375 3.3205 3.3205 21.522 12.496 29 14.5 0 0 29.618-61.27 58-68.875 18.095-4.8485 40.997-4.5559 58 0 28.528 7.6441 58 68.875 58 68.875 7.3498-1.9691 23.965-11.593 29-14.5 0 0-25.192-54.664-29-68.875 0 0-12.194-36.88 0-58 37.42-21.604 72.5-2.8391 72.5 58 15.317-8.8432 29.455-43.5 29-58-13.801-51.507-72.5-72.5-116-29-27.999-16.165-76.413-17.857-116-7.25 0-65.24-59.17-86.99-101.5-86.99zm18.12 50.75c6.0062 0 10.875 4.8688 10.875 10.875s-4.8688 10.875-10.875 10.875-10.875-4.8688-10.875-10.875 4.8688-10.875 10.875-10.875zm-25.375 203-21.75 29c50.489 42.8 110.57 65.25 174 65.25 63.426 0 123.18-26.372 174-65.25l-21.74-29c-48.84 33.78-94.25 58-152.25 58-57.99 0-109.2-21.48-152.24-58z"/>
</svg>
