<?xml version="1.0" encoding="UTF-8" standalone="no"?>
<svg xmlns:rdf="http://www.w3.org/1999/02/22-rdf-syntax-ns#" xmlns="http://www.w3.org/2000/svg" height="580" width="580" version="1.0" xmlns:cc="http://creativecommons.org/ns#" xmlns:dc="http://purl.org/dc/elements/1.1/">
 <title>alcohol</title>
 <metadata>
  <rdf:RDF>
   <cc:Work rdf:about="">
    <dc:format>image/svg+xml</dc:format>
    <dc:type rdf:resource="http://purl.org/dc/dcmitype/StillImage"/>
    <dc:title>alcohol</dc:title>
   </cc:Work>
  </rdf:RDF>
 </metadata>
 <g>
  <path opacity=".8" d="m464 232h-145c-21.546-2.3931-36.975 12.07-40.53 30.019-1.5814 41.357 8.4544 93.797 29.845 120.29 11.04 12.2 25.795 20.793 41.604 25.166l-0.002 54.238c-26.265 4.9308-54.003 18.253-65.873 43.586-10.133 27.534 9.5953 59.449 37.016 66.962 8.73 3.77 17.5 7.73 26.94 7.73h87c9.5262 0 19-3.8449 27.872-7.1179 20.22-8.6904 39.464-26.914 40.011-50.249-3.6944-38.644-37.11-54.519-68.889-60.781l0.31641-54.332c37.815-10.762 63.704-47.961 67.238-86.199 3.5198-19.522 5.6241-39.856 3.1134-59.612-5.32-23.28-16.9-29.71-40.66-29.71z" fill-rule="evenodd" fill="#fff"/>
  <path opacity=".8" d="m174 0-29.67 0.28533c-28.33-0.28533-39.96 16.993-40.59 43.924l0.45178 75.875c-41.973 21.17-51.68 34.72-53.19 62.42v321.5c0.4168 57.363 30.875 69.737 65.254 76.214l86.429-0.0333c14.899-0.006 28.762-7.8804 42.126-14.899 19.17-12.81 23.98-25.1 23.19-59.88v-328.4c6.401-24.789-56.945-51.501-54.768-58.324l0.004-75.528c0.36-26.897-10.23-43.152-39.23-43.152z" fill="#fff"/>
  <path d="m140.05 28.312c-4.3411-0.00035-7.8606 3.5183-7.8613 7.8594v101.94c-6.2595 2.5353-13.189 5.7244-19.463 9.0586-11.302 6.4165-22.261 13.159-28.793 22.873-2.8917 4.3622-5.5879 11.165-5.0879 21.279-0.69335 89.375-0.14063 225.96-0.14062 330.24 0.00024 7.3765 3.4266 14.335 9.2734 18.832 20.13 13.3 45.057 15.131 66.764 15.551 25.446 0.42014 51.663-1.5189 73.65-13.535 7.623-4.1662 12.365-12.16 12.365-20.848v-334.19c-0.0386-8.2762-4.6027-15.45-10.145-20.648-8.0997-7.3726-18.202-13.579-26.818-18.355-6.4314-3.5486-11.451-7.1708-17.992-10.047v-102.15c-0.00073-4.3403-3.5191-7.8586-7.8594-7.8594z" fill="#00f"/>
  <path d="m307.9 261c0 72.03 11.31 120.05 72.04 120.05v106.93a81.026 34.217 0 0 0 -68.94 33.8 81.026 34.217 0 0 0 81.03 34.22 81.026 34.217 0 0 0 81.02 -34.22 81.026 34.217 0 0 0 -69.1 -33.8v-106.93c59.33 0 72.03-48.02 72.03-120.05h-168.08z" fill-rule="evenodd" fill="#00f"/>
 </g>
</svg>
