<?xml version="1.0" encoding="UTF-8" standalone="no"?>
<svg xmlns:rdf="http://www.w3.org/1999/02/22-rdf-syntax-ns#" xmlns="http://www.w3.org/2000/svg" height="580" width="580" version="1.0" xmlns:cc="http://creativecommons.org/ns#" xmlns:dc="http://purl.org/dc/elements/1.1/">
 <title>chemist</title>
 <metadata>
  <rdf:RDF>
   <cc:Work rdf:about="">
    <dc:format>image/svg+xml</dc:format>
    <dc:type rdf:resource="http://purl.org/dc/dcmitype/StillImage"/>
    <dc:title>chemist</dc:title>
   </cc:Work>
  </rdf:RDF>
 </metadata>
 <path opacity=".8" d="m164.79 170.27-18.62-2.9-18.03 271.42-20.31 83.21h250.31l-20.887-83.113c4.2464-8.5665-1.4838-17.637-0.508-26.513l-19.26-244.53-18.42 2.38-21.26-114.23h-90.08zm167.25 79.41h73.012l2.4668 243.51c5.6655 20.287 28.479 32.052 48.607 29.025 18.091 1.4169 39.667-4.9416 47.576-22.791 9.5722-21.493 5.4694-45.182 5.2502-68.016l0.75-375.41c-59.22 0.001-118.44 0.001-177.66 0z" fill="#fff"/>
 <path fill="#00f" d="m212.28 86l-17.44 87c29 8.84 45.08 8.84 74.08 0l-16.08-87h-40.56zm149.76 0v17.68h56.84v-17.68h-56.84zm72.96 0v378.12c1.39 27.97 0 27.88 20.84 27.88 22.2 0 23.12 0 23.12-29l0.68-377h-44.64zm-72.96 29v17.68h56.84v-17.68h-56.84zm0 29v17.68h56.84v-17.68h-56.84zm0 29v17.68h56.84v-17.68h-56.84zm-188.04 29l-14.28 221.12c57.69 18.36 90.71 18.36 147.72-2.04l-17.44-219.08c-58 8.16-58 8.84-116 0zm188.04 0v17.68h56.84v-17.68h-56.84zm-209.56 261l-6.8 29h173.76l-7.48-29h-159.48z"/>
</svg>
