<?xml version="1.0" encoding="UTF-8" standalone="no"?>
<svg xmlns:rdf="http://www.w3.org/1999/02/22-rdf-syntax-ns#" xmlns="http://www.w3.org/2000/svg" height="580" width="580" version="1.0" xmlns:cc="http://creativecommons.org/ns#" xmlns:dc="http://purl.org/dc/elements/1.1/">
 <title>electronics</title>
 <metadata>
  <rdf:RDF>
   <cc:Work rdf:about="">
    <dc:format>image/svg+xml</dc:format>
    <dc:type rdf:resource="http://purl.org/dc/dcmitype/StillImage"/>
    <dc:title>electronics</dc:title>
   </cc:Work>
  </rdf:RDF>
 </metadata>
 <path opacity=".8" d="m356.03 57.785c-20.574 0.44265-35.628 16.893-48.451 31.057l-46.16 46.038c-18.08-18.54-34.72-41.452-60.3-49.906-29.173-5.9806-60.861 21.225-56.586 51.364 1.0599 14.253 9.4418 27.836 18.728 37.662h-18.26c-58 0-87 29-87 87v174c0 58 29 87 87 87h290c58 0 87-29 87-87l1.0308-173.97c-1.03-58.03-29.32-86.09-87.32-86.09l-75.94-0.94c16.942-16.961 35.405-34.263 45.326-56.596 7.2972-29.264-19.052-60.988-49.065-59.619z" fill="#fff"/>
 <path fill="#00f" d="m357.27 87.803c-3.78-0.049-7.72 1.281-11.08 4.635l-84.28 85.182-55.29-56.18c-6.15-8.29-19.94-9.13-27.19-1.81s-6.39 20.98 1.82 27.19l55.29 56.18h-91.53c-45.272 0-58.004 15.56-58.004 58v174c0 43.14 15.564 58 58.004 58h290c42.43 0 58-14.15 58-58v-174c0-43.15-14.86-58-58-58h-147.72l84.28-85.19c11.24-11.24 0.05-28.439-12.69-29.908v0.004c-0.53-0.061-1.07-0.096-1.61-0.103zm-183.27 173.2h174c29 0 29 0 29 29v116c0 29 0 29-29 29h-174c-29 0-29 0-29-29v-116c0-29 0-29 29-29zm261 3.62c14.01 0 25.38 11.36 25.38 25.38 0 14.01-11.37 25.37-25.38 25.37s-25.38-11.36-25.38-25.37c0-14.02 11.37-25.38 25.38-25.38zm0 87c14.01 0 25.38 11.36 25.38 25.38 0 14.01-11.37 25.37-25.38 25.37s-25.38-11.36-25.38-25.37c0-14.02 11.37-25.38 25.38-25.38z"/>
</svg>
