<?xml version="1.0" encoding="UTF-8" standalone="no"?>
<svg xmlns:rdf="http://www.w3.org/1999/02/22-rdf-syntax-ns#" xmlns="http://www.w3.org/2000/svg" height="580" width="580" version="1.0" xmlns:cc="http://creativecommons.org/ns#" xmlns:dc="http://purl.org/dc/elements/1.1/">
 <title>gift</title>
 <metadata>
  <rdf:RDF>
   <cc:Work rdf:about="">
    <dc:format>image/svg+xml</dc:format>
    <dc:type rdf:resource="http://purl.org/dc/dcmitype/StillImage"/>
    <dc:title>gift</dc:title>
   </cc:Work>
  </rdf:RDF>
 </metadata>
 <path opacity=".8" d="m228.46 71.232c-40.854-0.92051-79.981 34.919-82.162 75.246-0.37383 25.464 11.904 55.099 28.026 69.582-29.32 15.94-45.14 44.94-47.05 73.94l1.434 144.96c-0.22 58.04 45.3 87.04 103.3 87.04h145c58 0 105.55-29 104.56-86.955l-0.74-144.28c-4.1823-33.406-17.732-58.441-43.778-75.169 19.761-17.046 28.323-43.666 25.912-69.214-4.81-42.54-42.56-74.464-80.96-74.798-28.04-0.807-56.01 10.44-76.24 29.758-20.43-19.739-48.94-30.622-77.29-30.108z" fill="#fff"/>
 <path d="m228.49 101.55c-25.407 0-50.813 17.785-50.813 50.813 0 33.003 15.088 50.813 48.091 50.813h74.405 7.2591 74.405c32.978 0 49.906-16.928 49.906-49.906-0.0257-33.029-25.407-51.721-50.813-51.721-38.517 0-66.54 23.323-76.22 57.165-9.7054-33.842-36.865-57.165-76.22-57.165zm0 25.407c41.133 0 48.095 32.546 50.813 50.813h-50.813c-26.702 0-25.407-24.314-25.407-25.407 0-1.0918-1.295-25.407 25.407-25.407zm152.44 0c25.407 0 25.407 24.314 25.407 25.407 0 1.0918 1.295 25.407-25.407 25.407h-50.813c2.7178-18.268 9.6293-50.813 50.813-50.813zm-163.33 105.26c-29.036 0-58.072 29.036-58.072 58.073v50.813h123.4v-108.89h-65.332zm108.89 0v108.89h123.4v-50.813c0-29.036-29.036-58.073-58.072-58.073h-65.332zm-166.96 152.44v50.813c0 29.036 29.036 58.073 58.072 58.073h65.332v-108.89h-123.4zm166.96 0v108.89h65.332c29.036 0 58.072-29.036 58.072-58.073v-50.813h-123.4z" fill="#00f"/>
</svg>
