<?xml version="1.0" encoding="UTF-8" standalone="no"?>
<svg xmlns:rdf="http://www.w3.org/1999/02/22-rdf-syntax-ns#" xmlns="http://www.w3.org/2000/svg" height="580" width="580" version="1.0" xmlns:cc="http://creativecommons.org/ns#" xmlns:dc="http://purl.org/dc/elements/1.1/">
 <title>tyres</title>
 <metadata>
  <rdf:RDF>
   <cc:Work rdf:about="">
    <dc:format>image/svg+xml</dc:format>
    <dc:type rdf:resource="http://purl.org/dc/dcmitype/StillImage"/>
    <dc:title>tyres</dc:title>
   </cc:Work>
  </rdf:RDF>
 </metadata>
 <path opacity=".8" d="m522 290a232 232 0 0 1 -232 232 232 232 0 0 1 -232 -232 232 232 0 0 1 232 -232 232 232 0 0 1 232 232z" fill-rule="evenodd" fill="#fff"/>
 <path fill="#00f" d="m264.43 87.547l-9.01 15.593-12.97-10.394-46.29 16.114-2.38 16.64-16.5-5.4-36.68 32.64 3.86 16.24-18.47 0.01-23.4 42.15 8.67 15.27-16.797 5.47-7.463 47.57 12.662 11.27-12.293 11.38 8.045 48.39 15.846 6.39-8.44 14.31 23.59 41.24 17.92 1.58-1.75 15.84 36.31 31.74 16.67-6.16 3.2 17.1 45.05 16.67 14.27-11.21 7.91 15.01h49.04l9-15.59 13.02 10.39 46.24-16.01 1.49-16.57 17.4 5.22 36.86-34.11-4.04-14.77 18.47-0.02 23.06-40.95-8.15-16.87 16.27-5.67 8.35-46.68-13.54-12.48 11.89-9.32-6.7-48.91-16.45-6.57 8.54-15-23.79-40.97-17.95-2.47 0.74-15.96-35.18-30.81-16.77 6.13-3.1-17.12-45.05-16.544-14.27 11.214-7.91-15.013h-49.03zm25.52 52.613c28.27-0.05 33.17 0.84 58.13 10.53 13.4 5.2 13.41 5.29 3.4 25.17-7.72 15.34-23.9 31.85-37.57 38.34-26.43 12.56-50.73 7.58-74.21-15.21-8.99-8.72-24.16-33.47-24.16-39.41 0-1.12 5.27-4.3 11.71-7.07 24.45-10.5 33.56-12.29 62.7-12.35zm101.8 38.22l11.73 12.49c24.07 25.67 37.56 62.08 37.56 101.42 0 12.12-0.77 22.4-1.7 22.85s-8.28 0.11-16.34-0.76c-29.22-3.16-55.73-20.63-65.41-43.1-10.87-25.23-1.78-57.8 22.85-81.86l11.31-11.04zm-206.79 5.62c3.6 0 23.47 20.97 30.05 31.71 7.24 11.83 12.45 34.28 10.57 45.56-4.65 27.9-31.18 51.33-65.24 57.61-7.31 1.35-14.5 2.45-15.99 2.45-4.02 0-5.42-7.83-5.45-30.59-0.04-25.22 5.78-49.34 17.1-70.83 8.81-16.75 24.26-35.91 28.96-35.91zm143.46 42.6a9.0183 9.0183 0 0 1 9.02 9.01 9.0183 9.0183 0 0 1 -9.02 9.02 9.0183 9.0183 0 0 1 -9.02 -9.02 9.0183 9.0183 0 0 1 9.02 -9.01zm-78.86 0.16a9.0183 9.0183 0 0 1 9.02 9.02 9.0183 9.0183 0 0 1 -9.02 9.01 9.0183 9.0183 0 0 1 -9.01 -9.01 9.0183 9.0183 0 0 1 9.01 -9.02zm40.52 16.12a47.205 47.205 0 0 1 47.21 47.2 47.205 47.205 0 0 1 -47.21 47.21 47.205 47.205 0 0 1 -47.2 -47.21 47.205 47.205 0 0 1 47.2 -47.2zm65.28 59.39a9.0183 9.0183 0 0 1 9.02 9.02 9.0183 9.0183 0 0 1 -9.02 9.02 9.0183 9.0183 0 0 1 -9.02 -9.02 9.0183 9.0183 0 0 1 9.02 -9.02zm-128.63 1.55a9.0183 9.0183 0 0 1 9.02 9.02 9.0183 9.0183 0 0 1 -9.02 9.02 9.0183 9.0183 0 0 1 -9.02 -9.02 9.0183 9.0183 0 0 1 9.02 -9.02zm143.5 30.62c22.07 0.04 47.21 7.89 54.9 17.14 7.68 9.24-33.56 56.82-61.89 71.39-8.68 4.47-20.86 9.68-27.06 11.58-22.98 7.04-23 7.04-26.32-2.34-1.66-4.68-2.97-17.46-2.94-28.7 0.04-17.08 0.97-22.21 5.91-32.65 11.81-24.93 29.98-36.47 57.4-36.42zm-162.89 3.02c2.78-0.01 5.86 0.1 9.43 0.3 28.81 1.63 42.52 11.04 54.84 37.61 4.59 9.9 5.76 15.98 5.84 30.39 0.05 9.91-0.71 21.81-1.69 26.45-2.07 9.72-4.22 10.15-24.14 4.84-25.69-6.84-54.37-23.61-71.37-41.73-8.1-8.64-25.6-33.28-25.6-36.06 0-3.04 17.8-13.31 31.33-18.08 7.46-2.62 13.02-3.69 21.36-3.72zm84.5 10.96a9.0183 9.0183 0 0 1 9.02 9.02 9.0183 9.0183 0 0 1 -9.02 9.01 9.0183 9.0183 0 0 1 -9.02 -9.01 9.0183 9.0183 0 0 1 9.02 -9.02z"/>
</svg>
