<?xml version="1.0" encoding="UTF-8" standalone="no"?>
<svg xmlns:rdf="http://www.w3.org/1999/02/22-rdf-syntax-ns#" xmlns="http://www.w3.org/2000/svg" height="580" width="580" version="1.0" xmlns:cc="http://creativecommons.org/ns#" xmlns:dc="http://purl.org/dc/elements/1.1/">
 <title>beauty</title>
 <metadata>
  <rdf:RDF>
   <cc:Work rdf:about="">
    <dc:format>image/svg+xml</dc:format>
    <dc:type rdf:resource="http://purl.org/dc/dcmitype/StillImage"/>
    <dc:title>beauty</dc:title>
   </cc:Work>
  </rdf:RDF>
 </metadata>
 <path opacity=".8" d="m220.65 58.562c-75.65-0.562-120.1 49.678-161.77 98.728-18.031 22.764-32.285 51.659-28.556 81.441 8.8338 28.125 39.223 8.9636 51.887 20.318-10.137 6.7719-15.769 20.183-12.404 32.064l-45.128 114.86c-5.085 29.03 21.493 38.33 32.972 27.37l58.163-44.855 9.7454 95.915c5.8227 22.521 34.995 17.279 41.475 3.2749l51.309-82.936 38.11 80.285c11.67 28.357 37.556 17.702 42.877-8.4952l31.38-87.259 58.761 70.938c16.52 23.66 38.28 3.8 38.24-22.36l0.64978-80.265 50.618 33.358c21.59 22.49 53.52-13.93 33.77-42.93l-46.968-85.396c1.6594-1.7701 1.1478-9.7299 4.457-6.2734 10.456 7.4319 24.736 14.994 37.387 8.3457 15.987-8.4642 19.986-34.072 4.9995-45.442-57.6-62.21-124.97-118.58-205.51-148.03-27.63-9.941-57.26-12.91-86.47-12.638zm197.28 167.99c-40.285 17.317-79.561 38.251-122.07 49.452-51.938 5.589-104.18-2.2187-155.24-12.315 30.822-7.1408 54.665-30.672 71.914-56.099 10.992-15.83 26.108-32.462 46.823-33.453 54.029 3.329 114.69 27.776 158.57 52.415z" fill="#fff"/>
 <path d="m213.36 87.007c-31.071 0-62.143 14.565-93.214 45.636-31.079 31.07-62.15 62.15-62.15 93.22 20.714 0 41.428 11.652 62.143 11.652 47.346 0 60.098-40.679 93.214-73.795 16.746-10.912 30.756-21.963 76.708-16.507 48.46 10.36 140.79 47.3 202.93 91.27-49.99-51.26-108.43-107.64-186.43-136.91-31.07-15.374-62.14-14.563-93.21-14.563zm228.18 160.21-125.26 54.37c-103.74 17.01-223-22.84-219.44-18.44 1.3858 1.7089 2.5354 3.164 3.8839 4.8549v0.96943l-42.72 108.75 80.592-62.143 12.623 124.29 61.172-99.04c5.6475 0.96321 11.124 2.2371 17.478 2.9114l45.636 96.127 33.984-96.127c10.474-1.8363 19.776-5.3266 29.129-8.7388l61.172 73.795 0.96943-113.6c1.7742-1.8239 3.1743-3.9368 4.8549-5.8259l87.388 57.288-58.259-101.95c2.4826-5.6227 4.9491-11.714 6.7969-17.478z" fill="#00f"/>
</svg>
