<?xml version="1.0" encoding="UTF-8" standalone="no"?>
<!-- Created with Inkscape (http://www.inkscape.org/) -->
<svg xmlns:rdf="http://www.w3.org/1999/02/22-rdf-syntax-ns#" xmlns="http://www.w3.org/2000/svg" height="580" width="580" version="1.1" xmlns:cc="http://creativecommons.org/ns#" xmlns:dc="http://purl.org/dc/elements/1.1/">
 <title>stollen</title>
 <metadata>
  <rdf:RDF>
   <cc:Work rdf:about="">
    <dc:format>image/svg+xml</dc:format>
    <dc:type rdf:resource="http://purl.org/dc/dcmitype/StillImage"/>
    <dc:title>stollen</dc:title>
   </cc:Work>
  </rdf:RDF>
 </metadata>
 <path opacity=".8" d="m58 464h174v-203h87v203h174v-116h-58v-203h-319v203h-58z" fill-rule="evenodd" fill="#fff"/>
 <path fill="#333" d="m116 377c29 0 29 0 29-29v-145c0-29 0-29 29-29h203c29 0 29 0 29 29v145c0 29 0 29 29 29s29 0 29 29 0 29-29 29h-87v-174c0-29 0-29-29-29h-87c-29 0-29 0-29 29v174h-87c-29 0-29 0-29-29s0-29 29-29z" fill-rule="evenodd"/>
</svg>
