<?xml version="1.0" encoding="UTF-8" standalone="no"?>
<!-- Created with Inkscape (http://www.inkscape.org/) -->
<svg xmlns:rdf="http://www.w3.org/1999/02/22-rdf-syntax-ns#" xmlns="http://www.w3.org/2000/svg" height="580" width="580" version="1.1" xmlns:cc="http://creativecommons.org/ns#" xmlns:dc="http://purl.org/dc/elements/1.1/">
 <title>turm</title>
 <metadata>
  <rdf:RDF>
   <cc:Work rdf:about="">
    <dc:format>image/svg+xml</dc:format>
    <dc:type rdf:resource="http://purl.org/dc/dcmitype/StillImage"/>
    <dc:title>turm</dc:title>
   </cc:Work>
  </rdf:RDF>
 </metadata>
 <path d="m203 58h29v58c0 28.742 0 29 29 29h29c29 0 29-0.25271 29-29v-58h29v87c0 29 0 29-29 29v290c0 29 0 29 29 29v29l-29-0.00014c-29 0-29 0-29-29v-58l-29-0.00017v58c0 29 0 29-29 29l-29 0.00014v-29c29 0 29 0 29-29v-290c-29 0-29 0-29-29m87 261v-58h-29v58m29-87v-58h-29v58m29-87v-58h-29v58" fill="#202020"/>
</svg>
