<?xml version="1.0" encoding="UTF-8" standalone="no"?>
<svg xmlns:rdf="http://www.w3.org/1999/02/22-rdf-syntax-ns#" xmlns="http://www.w3.org/2000/svg" height="580" width="580" version="1.1" xmlns:cc="http://creativecommons.org/ns#" xmlns:dc="http://purl.org/dc/elements/1.1/">
 <title>wasserfall</title>
 <metadata>
  <rdf:RDF>
   <cc:Work rdf:about="">
    <dc:format>image/svg+xml</dc:format>
    <dc:type rdf:resource="http://purl.org/dc/dcmitype/StillImage"/>
    <dc:title>wasserfall</dc:title>
   </cc:Work>
  </rdf:RDF>
 </metadata>
 <path d="m116 87h87l58 29h87l58-29h87v87l-45.268 29 26.878 145 47.39 29v87l-87 58h-261l-87-58v-87l46.683-29 24.05-145-41.73-29z" fill-rule="evenodd" fill="#f1eee9"/>
 <g stroke-linejoin="round" stroke="#0064fe" stroke-linecap="round" stroke-width="29" fill="none">
  <path d="m362.76 416.7c2.438-88.21-12.969-170.64-29-257"/>
  <path d="m421.05 412.7c2.438-88.21-12.969-166.64-29-253l57.704-29"/>
  <path d="m246.76 416.7c-2.438-88.21 12.969-170.64 29-257"/>
  <path d="m188.46 412.7c-2.438-88.21 12.969-166.64 29-253l-57.704-29"/>
  <path d="m463.2 391.7s15.561 15.269 15.561 29c0 58-112.86 58-174 58-61.137 0-174 0-174-58 0-17.127 14.854-29 14.854-29"/>
 </g>
</svg>
