<?xml version="1.0" encoding="UTF-8" standalone="no"?>
<!-- Created with Inkscape (http://www.inkscape.org/) -->
<svg xmlns:rdf="http://www.w3.org/1999/02/22-rdf-syntax-ns#" xmlns="http://www.w3.org/2000/svg" height="580" width="580" version="1.1" xmlns:cc="http://creativecommons.org/ns#" xmlns:dc="http://purl.org/dc/elements/1.1/">
 <title>windrad</title>
 <metadata>
  <rdf:RDF>
   <cc:Work rdf:about="">
    <dc:format>image/svg+xml</dc:format>
    <dc:type rdf:resource="http://purl.org/dc/dcmitype/StillImage"/>
    <dc:title>windrad</dc:title>
   </cc:Work>
  </rdf:RDF>
 </metadata>
 <g fill="#6c6c6c">
  <path d="m507.21 6.4541c-27.92-3.9572-98.78 39.943-184.26 121.62 28.38 1.5 56.59 30.47 54.05 56.51 84.33-80.58 133.24-148.75 130.21-178.13z"/>
  <path d="m122.71 114.56c-23.96 0.85301-41.782 4.0587-50.366 11.056 12.02 25.509 86.272 60.607 201.46 87.218-14.328-24.545-4.7305-63.996 18.427-76.162-71.027-16.408-129.59-23.537-169.52-22.112z"/>
  <path d="m321.72 139.64c-24.137 0-43.704 19.567-43.704 43.704s19.567 43.704 43.704 43.704 43.704-19.567 43.704-43.704-19.567-43.704-43.704-43.704z"/>
  <path d="m373.31 204.23c-7.9386 24.925-45.808 40.536-72.478 30.711 46.306 108.78 94.4 175.65 121.62 183.04 14.378-25.796-3.4553-106.43-49.137-213.75z"/>
  <path d="m290 279.42v300.58h58v-192.42c-17.63-28.66-39.44-71.9-58-108.16z"/>
 </g>
</svg>
