<?xml version="1.0" encoding="UTF-8" standalone="no"?>
<!-- Created with Inkscape (http://www.inkscape.org/) -->
<svg xmlns:rdf="http://www.w3.org/1999/02/22-rdf-syntax-ns#" xmlns="http://www.w3.org/2000/svg" height="580" width="580" version="1.1" xmlns:cc="http://creativecommons.org/ns#" xmlns:dc="http://purl.org/dc/elements/1.1/">
 <title>alm</title>
 <metadata>
  <rdf:RDF>
   <cc:Work rdf:about="">
    <dc:format>image/svg+xml</dc:format>
    <dc:type rdf:resource="http://purl.org/dc/dcmitype/StillImage"/>
    <dc:title>alm</dc:title>
   </cc:Work>
  </rdf:RDF>
 </metadata>
 <path d="m0 0h580v580h-580z" fill="#edeae3"/>
 <path fill="#c5eb92" d="m18.121-0.0058594c0 72.5 36.25 72.5 36.25 36.25 36.25 0 36.25-36.25-36.25-36.25zm308.13 0c0 54.375 0 54.875 72.5 54.875 0-54.375 0-54.875-72.5-54.875zm163.13 0c-54.38 0-36.26 0-36.25 54.375 54.38 0 36.5-0.5 36.25-54.375zm-362.5 0.5c0 72.5 0 72.5 108.75 72.5 0-36.25 0-72.5-108.75-72.5zm454.47 0c-54.37 0-37.6-0.5-37.6 90.125 36.25 0 36.25 0 37.61-90.125l-0.01 0.00014zm-509.13 71.387c-16.1 0.225-25.543 15.562-17.832 54.999v-0.01h90.625c-20.39-30.588-52.094-55.279-72.793-54.989zm254.04 0.613c-36.25 0-108.75 18.125-108.75 72.496 36.25 18.12 163.12-54.371 108.75-72.496zm90.62 18.125c0 108.75-18.13 90.621 64.72 90.621 44.03-72.5 25.91-90.621-64.72-90.621zm108.55 51.481c-6.19 0.13 0.2 6.86 0.2 39.14 36.25 0 36.5 17.63 36.25-36.25-22.09 0-32.21-2.99-36.45-2.89zm-144.81 2.89v0.01h0.01l-0.01-0.01zm0 0.01c-72.49 0-90.61 0-54.37 90.62 54.37 0 36.25-54.37 54.37-90.62zm-380.61 18.12c0 54.37 0.0013868 54.37 36.25 54.37 90.634-36.25 90.634-54.37-36.25-54.37zm189.6 18.56c-46.8-0.11-62.73 3.96-62.73 54.94 54.38-1 72.5-1 72.5-54.88-3.39-0.03-6.65-0.06-9.77-0.06zm371.42 32.92c-12.98-0.1-34.83 2.89-71.65 2.89 0 36.25 0.5 34.9 90.62 36.25 0-32.28 0-39-18.97-39.14zm-271.03 21.01c-72.5 18.13-108.75 18.13-108.75 90.63h0.01c72.49 0 108.74-36.75 108.74-90.63zm108.24 0.58c18.63 35.69 0.5 89.06 54.88 90.06 36.25-36.25-0.5-90.56-54.88-90.06zm-383.44 14.67c-5.7774 0-10.826 0.9-14.791 2.88-0.0001406 54.38 72.5 72.5 108.75 72.5 48.42-16.14-46.92-75.42-93.963-75.38zm547.09 39.13c-72.5 0-54.38 0-54.38 54.38 54.37 0 54.62-0.5 54.37-54.38h0.01zm-199.39 0.01c-90.62 1.71-54.37 126.88 10.26 126.88 72.85-54.38-38.29-61.9-10.26-126.88zm-332.59 54.31c-29.69-0.09-29.91 4.6-29.91 72.57 54.375 0 36.25 0 36.25-72.5-2.25-0.04-4.361-0.06-6.34-0.07zm169.47 18.18v72.5c108.75-18.12 126.88-72.5 0-72.5zm-54.12 0.5c-54.379 0-54.879 0-54.879 72.5 54.379 0 54.879 0 54.879-72.5zm289.74 17.63c-18.12 72.5 72.5 54.37 126.88 72.5 0-54.38-18.12-72.5-126.88-72.5zm-72.5 72.5c-108.25-0.24-126.88 18.13-126.88 54.38 145 0 126.88 0 126.88-54.38zm-217.5 18.12c0 72.5 0 72.5 54.38 72.5-18.13-72.5-18.13-72.5-54.38-72.5zm253.76 0c54.37 72.5 54.37 90.63 90.62 0h-90.62zm-334.04 14.43c-43.644-0.21-33.585 39.95-10.334 39.95 0 28.47 54.375 36.25 36.25-36.25-10.196-2.55-18.775-3.67-25.916-3.7zm485.24 21c-10.87-0.24-29.99 24.61-60.58 55.2h72.5c0-39.65-3.46-55.02-11.92-55.2zm-181.76 16.06c-16.53-0.1-41.38 2.89-78.19 2.89 0 36.26 0.5 36.5 108.75 36.26 0-32.29-6.4-39.02-30.56-39.15z"/>
</svg>
