<?xml version="1.0" encoding="UTF-8" standalone="no"?>
<!-- Created with Inkscape (http://www.inkscape.org/) -->
<svg xmlns:rdf="http://www.w3.org/1999/02/22-rdf-syntax-ns#" xmlns="http://www.w3.org/2000/svg" height="580" width="580" version="1.1" xmlns:cc="http://creativecommons.org/ns#" xmlns:dc="http://purl.org/dc/elements/1.1/">
 <title>fels</title>
 <metadata>
  <rdf:RDF>
   <cc:Work rdf:about="">
    <dc:format>image/svg+xml</dc:format>
    <dc:type rdf:resource="http://purl.org/dc/dcmitype/StillImage"/>
    <dc:title>fels</dc:title>
   </cc:Work>
  </rdf:RDF>
 </metadata>
 <path fill-rule="evenodd" fill="#d8dcd8" d="m0 0h580v580h-580z"/>
 <g stroke-linejoin="round" transform="scale(9.0625 9.0625)" stroke="#a0a4a0" stroke-linecap="round" stroke-width="2" fill="none">
  <path d="m7 1h6v2"/>
  <path d="m1 5h2l2 2h4v2"/>
  <path d="m1 11h4v2"/>
  <path d="m1 15v2h2l2 2"/>
  <path d="m1 23v2h2"/>
  <path d="m19 1h-2v6h-2v2h-2v6"/>
  <path d="m9 13h4"/>
  <path d="m11 19h-2v10h-4v2h-2v2h-2v2"/>
  <path d="m1 59h4v2h6"/>
  <path d="m1 53h2v2h10v2h2l2 2v4"/>
  <path d="m5 49h2l2 2h2"/>
  <path d="m3 45h4v2h6l2 2h4v2"/>
  <path d="m23 53v2h-2v4h6v2h2v2h2"/>
  <path d="m35 61h2v2h2"/>
  <path d="m27 55h6v2h4l2 2h6"/>
  <path d="m49 63v-2h2v-4h2v-2"/>
  <path d="m5 39v2h6v2h6v2h4v2h2v2h2v2"/>
  <path d="m11 35h6v2h2l2 2h2v2h2"/>
  <path d="m13 27v2h4l2 2h2l2 2h4v2h2l2 2h4l2 2h4l2 2h6l2 2h4"/>
  <path d="m31 41h-2v4l-2 2 2 2h4v2h8v2h8"/>
  <path d="m57 59v2h2l2 2h2"/>
  <path d="m37 45h4l2 2h8v2h4v2h2l4 4h2v2"/>
  <path d="m61 37v4l2 2-2 2v2"/>
  <path d="m43 33v2h6l2 2h6"/>
  <path d="m39 35"/>
  <path d="m63 33"/>
  <path d="m43 1"/>
  <path d="m49 3h2v-2h4v2h6v2h2"/>
  <path d="m55 13v2h4v2h2"/>
  <path d="m47 19h2v2h4l2 2h4v2h2v2h2v2"/>
  <path d="m47 7v2h12v2h2l2 2"/>
  <path d="m49 11-4 4h-2v2h-2v4h-2v2l4 4h2v2h10l2 2h2v2"/>
  <path d="m33 31h2v-2l2-2"/>
  <path d="m13 23h4v2h4l2 2h4l2 2"/>
  <path d="m15 17v2h4v2h10v2h4v2"/>
  <path d="m19 11h2v2h4v2h2l2 2h2l2 2h2"/>
  <path d="m23 5h2v2h2v2h4l2 2h2l2 2h2"/>
  <path d="m31 1h4v2h2v2h4v2l2 2"/>
 </g>
</svg>
