<?xml version="1.0" encoding="UTF-8" standalone="no"?>
<!-- Created with Inkscape (http://www.inkscape.org/) -->
<svg xmlns:rdf="http://www.w3.org/1999/02/22-rdf-syntax-ns#" xmlns="http://www.w3.org/2000/svg" height="580" width="580" version="1.1" xmlns:cc="http://creativecommons.org/ns#" xmlns:dc="http://purl.org/dc/elements/1.1/">
 <title>kraftwerk</title>
 <metadata>
  <rdf:RDF>
   <cc:Work rdf:about="">
    <dc:format>image/svg+xml</dc:format>
    <dc:type rdf:resource="http://purl.org/dc/dcmitype/StillImage"/>
    <dc:title>kraftwerk</dc:title>
   </cc:Work>
  </rdf:RDF>
 </metadata>
 <path d="m54.375 0v54.375h-54.375v18.125h54.375v54.38h-54.375v18.12h54.375v54.38h-54.375v18.12h54.375v54.38h-54.375v18.12h54.375v54.38h-54.375v18.12h54.375v54.38h-54.375v18.12h54.375v54.38h-54.375v18.12h54.375v54.38h-54.375v18.12h580v-18.12-54.38-18.12-489.38h-18.12v54.375h-54.38v-54.375h-18.12v54.375h-54.38v-54.375h-18.12v54.375h-54.38v-54.375h-18.12v54.375h-54.38v-54.375h-18.12v54.375h-54.38v-54.375h-18.12v54.375h-54.38v-54.375h-18.12v54.375h-54.38v-54.375h-18.125zm18.125 72.5h54.38v54.38h-54.38v-54.38zm72.5 0h54.38v54.38h-54.38v-54.38zm72.5 0h54.38v54.38h-54.38v-54.38zm72.5 0h54.38v54.38h-54.38v-54.38zm72.5 0h54.38v54.38h-54.38v-54.38zm72.5 0h54.38v54.38h-54.38v-54.38zm72.5 0h54.38v54.38h-54.38v-54.38zm-435 72.5h54.38v54.38h-54.38v-54.38zm72.5 0h54.38v54.38h-54.38v-54.38zm72.5 0h54.38v54.38h-54.38v-54.38zm72.5 0h54.38v54.38h-54.38v-54.38zm72.5 0h54.38v54.38h-54.38v-54.38zm72.5 0h54.38v54.38h-54.38v-54.38zm72.5 0h54.38v54.38h-54.38v-54.38zm-435 72.5h54.38v54.38h-54.38v-54.38zm72.5 0h54.38v54.38h-54.38v-54.38zm72.5 0h54.38v54.38h-54.38v-54.38zm72.5 0h54.38v54.38h-54.38v-54.38zm72.5 0h54.38v54.38h-54.38v-54.38zm72.5 0h54.38v54.38h-54.38v-54.38zm72.5 0h54.38v54.38h-54.38v-54.38zm-435 72.5h54.38v54.38h-54.38v-54.38zm72.5 0h54.38v54.38h-54.38v-54.38zm72.5 0h54.38v54.38h-54.38v-54.38zm72.5 0h54.38v54.38h-54.38v-54.38zm72.5 0h54.38v54.38h-54.38v-54.38zm72.5 0h54.38v54.38h-54.38v-54.38zm72.5 0h54.38v54.38h-54.38v-54.38zm-435 72.5h54.38v54.38h-54.38v-54.38zm72.5 0h54.38v54.38h-54.38v-54.38zm72.5 0h54.38v54.38h-54.38v-54.38zm72.5 0h54.38v54.38h-54.38v-54.38zm72.5 0h54.38v54.38h-54.38v-54.38zm72.5 0h54.38v54.38h-54.38v-54.38zm72.5 0h54.38v54.38h-54.38v-54.38zm-435 72.5h54.38v54.38h-54.38v-54.38zm72.5 0h54.38v54.38h-54.38v-54.38zm72.5 0h54.38v54.38h-54.38v-54.38zm72.5 0h54.38v54.38h-54.38v-54.38zm72.5 0h54.38v54.38h-54.38v-54.38zm72.5 0h54.38v54.38h-54.38v-54.38zm72.5 0h54.38v54.38h-54.38v-54.38zm-435 72.5h54.38v54.38h-54.38v-54.38zm72.5 0h54.38v54.38h-54.38v-54.38zm72.5 0h54.38v54.38h-54.38v-54.38zm72.5 0h54.38v54.38h-54.38v-54.38zm72.5 0h54.38v54.38h-54.38v-54.38zm72.5 0h54.38v54.38h-54.38v-54.38zm72.5 0h54.38v54.38h-54.38v-54.38z" fill-rule="evenodd" fill="#acacac"/>
</svg>
