<?xml version="1.0" encoding="UTF-8" standalone="no"?>
<!-- Created with Inkscape (http://www.inkscape.org/) -->
<svg xmlns:rdf="http://www.w3.org/1999/02/22-rdf-syntax-ns#" xmlns="http://www.w3.org/2000/svg" height="580" width="580" version="1.1" xmlns:cc="http://creativecommons.org/ns#" xmlns:dc="http://purl.org/dc/elements/1.1/">
 <title>mischwald</title>
 <metadata>
  <rdf:RDF>
   <cc:Work rdf:about="">
    <dc:format>image/svg+xml</dc:format>
    <dc:type rdf:resource="http://purl.org/dc/dcmitype/StillImage"/>
    <dc:title>mischwald</dc:title>
   </cc:Work>
  </rdf:RDF>
 </metadata>
 <path d="m0 290v-290h290 290v290 290h-290-290v-290z" fill="#a5df94"/>
 <path stroke-linejoin="round" d="m59.348 181.78 57.362-84.793 57.36 84.793" stroke="#69c274" stroke-linecap="round" stroke-width="30" fill="none"/>
 <path d="m411.69 377.11c-36.729 0.00096-66.825 30.097-66.824 66.826v0.0215c0.0298 20.535 9.5183 39.944 25.705 52.58 6.5242 5.2184 16.054 4.1015 21.195-2.484 5.1409-6.5855 3.9114-16.102-2.7344-21.164-8.9318-6.9723-14.145-17.634-14.164-28.965 0.006-20.51 16.311-36.814 36.822-36.814 20.516-0.00023 36.826 16.31 36.826 36.826-0.006 9.8051-3.9093 19.108-10.74 25.961h-4c-8.3672-0.11833-15.214 6.6319-15.214 15s6.8464 15.118 15.214 15h48c8.3672 0.11833 15.214-6.6319 15.214-15s-6.8464-15.118-15.214-15h-8.5234c3.4264-8.1162 5.2598-16.927 5.2637-25.955v-0.006c0.00041-36.73-30.097-66.827-66.826-66.826z" fill="#69c274"/>
</svg>
