<?xml version="1.0" encoding="UTF-8" standalone="no"?>
<!-- Created with Inkscape (http://www.inkscape.org/) -->
<svg xmlns:rdf="http://www.w3.org/1999/02/22-rdf-syntax-ns#" xmlns="http://www.w3.org/2000/svg" height="580" width="580" version="1.1" xmlns:cc="http://creativecommons.org/ns#" xmlns:dc="http://purl.org/dc/elements/1.1/">
 <title>watt</title>
 <metadata>
  <rdf:RDF>
   <cc:Work rdf:about="">
    <dc:format>image/svg+xml</dc:format>
    <dc:type rdf:resource="http://purl.org/dc/dcmitype/StillImage"/>
    <dc:title>watt</dc:title>
   </cc:Work>
  </rdf:RDF>
 </metadata>
 <g transform="translate(9.0625)" stroke="#e0d4c6" stroke-width="18.125" fill="none">
  <path d="m0 0v36.25"/>
  <path d="m18.125 72.5v36.25"/>
  <path d="m0 126.88v18.12"/>
  <path d="m54.375 235.62v18.125"/>
  <path d="m36.25 271.88v18.125"/>
  <path d="m0 326.25v18.125"/>
  <path d="m18.125 380.62v18.125"/>
  <path d="m18.125 435v18.125"/>
  <path d="m36.25 471.25v18.125"/>
  <path d="m36.25 561.88v18.125"/>
  <path d="m108.75 543.75v18.125"/>
  <path d="m145 507.5v18.125"/>
  <path d="m181.25 507.5v36.25"/>
  <path d="m181.25 471.25v18.125"/>
  <path d="m126.88 453.12v18.125"/>
  <path d="m145 398.75v18.125"/>
  <path d="m108.75 344.38v36.25"/>
  <path d="m90.625 290v18.125"/>
  <path d="m126.88 253.75v18.125"/>
  <path d="m126.88 217.5v18.125"/>
  <path d="m145 199.38v18.125"/>
  <path d="m181.25 199.38v18.125"/>
  <path d="m108.75 181.25v18.125"/>
  <path d="m90.625 163.12v18.125"/>
  <path d="m126.88 72.5v36.25"/>
  <path d="m163.12 54.375v18.125"/>
  <path d="m90.625 18.125v18.125"/>
  <path d="m271.88 0v18.125"/>
  <path d="m199.38 36.25v18.125"/>
  <path d="m235.62 36.25v18.125"/>
  <path d="m217.5 90.625v18.125"/>
  <path d="m181.25 126.88v18.125"/>
  <path d="m253.75 126.88v18.125"/>
  <path d="m235.62 163.12v18.125"/>
  <path d="m199.38 163.12v18.125"/>
  <path d="m217.5 235.62v18.125"/>
  <path d="m199.38 253.75v18.125"/>
  <path d="m199.38 308.12v18.125"/>
  <path d="m235.62 290v36.25"/>
  <path d="m199.38 362.88v17.75"/>
  <path d="m235.62 380.62v18.125"/>
  <path d="m199.38 453.12v18.125"/>
  <path d="m253.75 416.88v36.25"/>
  <path d="m235.62 507.5v18.125"/>
  <path d="m217.5 543.75v18.125"/>
  <path d="m199.38 561.88v18.125"/>
  <path d="m326.25 18.125v18.125"/>
  <path d="m362.5 0v36.25"/>
  <path d="m290 108.75v18.125"/>
  <path d="m362.5 54.375v36.25"/>
  <path d="m362.5 108.75v18.125"/>
  <path d="m308.12 145v18.125"/>
  <path d="m344.38 163.12v18.125"/>
  <path d="m290 199.38v18.125"/>
  <path d="m308.12 235.62v18.125"/>
  <path d="m271.88 253.75v18.125"/>
  <path d="m308.12 290v18.125"/>
  <path d="m271.88 326.25v18.125"/>
  <path d="m271.88 380.62v18.125"/>
  <path d="m362.5 398.75v36.25"/>
  <path d="m326.25 489.38v18.125"/>
  <path d="m271.88 525.62v18.125"/>
  <path d="m271.88 561.88v18.125"/>
  <path d="m398.75 72.5v18.125"/>
  <path d="m416.88 126.88v18.125"/>
  <path d="m398.75 181.25v18.125"/>
  <path d="m399.5 344.75-0.75 17.75"/>
  <path d="m416.88 398.75v18.125"/>
  <path d="m380.62 489.38v18.125"/>
  <path d="m543.75 0v18.125"/>
  <path d="m507.5 36.25v18.125"/>
  <path d="m489.38 54.375v18.125"/>
  <path d="m525.62 145v18.125"/>
  <path d="m561.88 108.75v36.25"/>
  <path d="m561.88 181.25v36.25"/>
  <path d="m525.62 181.25v18.125"/>
  <path d="m453.12 271.88v18.125"/>
  <path d="m507.5 271.88v18.125"/>
  <path d="m507.5 308.12v36.25"/>
  <path d="m489.38 435v18.125"/>
  <path d="m543.75 453.12v18.125"/>
  <path d="m507.5 471.25v18.125"/>
  <path d="m453.12 525.62v18.125"/>
  <path d="m471.25 561.88v18.125"/>
 </g>
 <g transform="translate(0,9.0625)" stroke="#e0d4c6" stroke-width="18.125" fill="none">
  <path d="m145 18.125h36.25"/>
  <path d="m108.75 108.75h54.375"/>
  <path d="m217.5 199.38h36.25"/>
  <path d="m235.62 217.5h36.25"/>
  <path d="m453.12 199.38h36.25"/>
  <path d="m416.88 217.5h36.25"/>
  <path d="m362.5 235.62h36.25"/>
  <path d="m380.62 253.75h36.25"/>
  <path d="m362.5 453.12h36.25"/>
  <path d="m416.88 471.25h36.25"/>
  <path d="m163.12 416.88h36.25"/>
  <path d="m54.375 380.62h36.25"/>
 </g>
 <g style="" fill="#e0d4c6" fill-rule="evenodd">
  <path d="m290 54.375h36.25v36.25h-36.25z"/>
  <path d="m54.375 308.12h36.25v36.25h-36.25z"/>
  <path d="m525.62 344.38h36.25v36.25h-36.25z"/>
  <path d="m489.38 507.5h36.25v36.25h-36.25z"/>
  <path d="m326.25 525.62h36.25v36.25h-36.25z"/>
  <path d="m72.5 489.38h36.25v36.25h-36.25z"/>
  <path d="m0 507.5h36.25v36.25h-36.25z"/>
  <path d="m543.75 54.375h36.25v18.125h-18.125v18.125h-18.125z"/>
  <path d="m453.12 90.625h36.25v18.125h-18.125v18.125h-18.125z"/>
  <path d="m525.62 416.88h36.25v18.125h-18.125v18.125h-18.125z"/>
  <path d="m36.25 126.88h36.25v18.125h-18.125v18.125h-18.125z"/>
  <path d="m435 290v36.25h-18.125v-18.125h-18.125v-18.125z"/>
  <path d="m435 543.75v36.25h-18.125v-18.125h-18.125v-18.125z"/>
  <path d="m453.12 54.375h-36.25v-18.125h18.125v-18.125h18.125z"/>
  <path d="m380.62 217.5h-36.25v-18.125h18.125v-18.125h18.125z"/>
  <path d="m525.62 253.75h-36.25v-18.125h18.125v-18.125h18.125z"/>
  <path d="m36.25 253.75h-36.25v-18.125h18.125v-18.125h18.125z"/>
  <path d="m54.375 90.625v-36.25h18.125v18.125h18.125v18.125z"/>
  <path d="m453.12 181.25v-36.25h18.125v18.125h18.125v18.125z"/>
  <path d="m543.75 290v-36.25h18.125v18.125h18.125v18.125z"/>
  <path d="m453.12 344.38v-36.25h18.125v18.125h18.125v18.125z"/>
  <path d="m471.25 416.88v-36.25h18.125v18.125h18.125v18.125z"/>
  <path d="m362.5 344.38v-36.25h18.125v18.125h18.125v18.125z"/>
  <path d="m308.12 380.62v-36.25h18.125v18.125h18.125v18.125z"/>
  <path d="m308.12 453.12v-36.25h18.125v18.125h18.125v18.125z"/>
  <path d="m271.88 507.5v-36.25h18.125v18.125h18.125v18.125z"/>
  <path d="m163.12 362.5v-36.25h18.125v18.125h18.125v18.125z"/>
  <path d="m72.5 453.12v-36.25h18.125v18.125h18.125v18.125z"/>
 </g>
</svg>
